ISO-10303-21;
HEADER;
FILE_DESCRIPTION (( 'STEP AP203' ),
    '1' );
FILE_NAME ('up_Default_sldprt.STEP',
    '2026-08-14T04:29:45',
    ( '' ),
    ( '' ),
    'SwSTEP 2.0',
    'SolidWorks 2023',
    '' );
FILE_SCHEMA (( 'CONFIG_CONTROL_DESIGN' ));
ENDSEC;

DATA;
#1 = EDGE_LOOP ( 'NONE', ( #967, #720, #156, #36 ) ) ;
#2 = AXIS2_PLACEMENT_3D ( 'NONE', #147, #826, #252 ) ;
#3 = ADVANCED_FACE ( 'NONE', ( #847 ), #835, .F. ) ;
#4 = PERSON_AND_ORGANIZATION ( #1060, #734 ) ;
#5 = DIRECTION ( 'NONE',  ( 0.000000000000000000, 0.000000000000000000, 1.000000000000000000 ) ) ;
#6 = ORIENTED_EDGE ( 'NONE', *, *, #1076, .T. ) ;
#7 = ORIENTED_EDGE ( 'NONE', *, *, #937, .F. ) ;
#8 = ADVANCED_FACE ( 'NONE', ( #362 ), #116, .F. ) ;
#9 = VECTOR ( 'NONE', #126, 1000.000000000000000 ) ;
#10 = CARTESIAN_POINT ( 'NONE',  ( 0.000000000000000000, -14.99999999999999645, 0.000000000000000000 ) ) ;
#11 = LINE ( 'NONE', #356, #240 ) ;
#12 = ORIENTED_EDGE ( 'NONE', *, *, #859, .T. ) ;
#13 = DIRECTION ( 'NONE',  ( 1.000000000000000000, -0.000000000000000000, 0.000000000000000000 ) ) ;
#14 = PLANE ( 'NONE',  #466 ) ;
#15 = PLANE ( 'NONE',  #290 ) ;
#16 = VERTEX_POINT ( 'NONE', #460 ) ;
#17 = FACE_OUTER_BOUND ( 'NONE', #1029, .T. ) ;
#18 = VECTOR ( 'NONE', #622, 1000.000000000000000 ) ;
#19 = EDGE_CURVE ( 'NONE', #296, #663, #618, .T. ) ;
#20 = PLANE ( 'NONE',  #28 ) ;
#21 = CARTESIAN_POINT ( 'NONE',  ( 0.000000000000000000, -34.99999999999999289, 0.000000000000000000 ) ) ;
#22 = ORIENTED_EDGE ( 'NONE', *, *, #859, .F. ) ;
#23 = LINE ( 'NONE', #941, #254 ) ;
#24 = CARTESIAN_POINT ( 'NONE',  ( 0.000000000000000000, 0.000000000000000000, -210.4964744118461795 ) ) ;
#25 = LINE ( 'NONE', #864, #429 ) ;
#26 = ORIENTED_EDGE ( 'NONE', *, *, #1041, .T. ) ;
#27 = CARTESIAN_POINT ( 'NONE',  ( 0.000000000000000000, 34.00000000000000000, 318.9999999999999432 ) ) ;
#28 = AXIS2_PLACEMENT_3D ( 'NONE', #790, #120, #462 ) ;
#29 = DIRECTION ( 'NONE',  ( -1.000000000000000000, 0.000000000000000000, 0.000000000000000000 ) ) ;
#30 = VERTEX_POINT ( 'NONE', #529 ) ;
#31 = DIRECTION ( 'NONE',  ( 0.000000000000000000, 0.7070437182785901387, -0.7071698384707776341 ) ) ;
#32 = ADVANCED_FACE ( 'NONE', ( #17 ), #799, .T. ) ;
#33 = ADVANCED_FACE ( 'NONE', ( #95 ), #697, .F. ) ;
#34 = CIRCLE ( 'NONE', #803, 24.99999999999999289 ) ;
#35 = DIRECTION ( 'NONE',  ( 0.000000000000000000, -0.7070437182785901387, 0.7071698384707776341 ) ) ;
#36 = ORIENTED_EDGE ( 'NONE', *, *, #877, .T. ) ;
#37 = DIRECTION ( 'NONE',  ( 1.000000000000000000, 0.000000000000000000, -0.000000000000000000 ) ) ;
#38 = EDGE_LOOP ( 'NONE', ( #812, #489, #1010, #895 ) ) ;
#39 = EDGE_CURVE ( 'NONE', #758, #661, #369, .T. ) ;
#40 =( NAMED_UNIT ( * ) SI_UNIT ( $, .STERADIAN. ) SOLID_ANGLE_UNIT ( ) );
#41 = AXIS2_PLACEMENT_3D ( 'NONE', #371, #186, #868 ) ;
#42 = FACE_OUTER_BOUND ( 'NONE', #121, .T. ) ;
#43 = CARTESIAN_POINT ( 'NONE',  ( 19.77591903501618731, -34.99999999999999289, -225.4964744118465205 ) ) ;
#44 = ORIENTED_EDGE ( 'NONE', *, *, #922, .T. ) ;
#45 = EDGE_CURVE ( 'NONE', #187, #261, #203, .T. ) ;
#46 = LINE ( 'NONE', #735, #63 ) ;
#47 = LINE ( 'NONE', #825, #294 ) ;
#48 = DIRECTION ( 'NONE',  ( -1.000000000000000000, -0.000000000000000000, -1.896941266429254820E-15 ) ) ;
#49 = ORIENTED_EDGE ( 'NONE', *, *, #989, .F. ) ;
#50 = DIRECTION ( 'NONE',  ( 0.000000000000000000, 1.000000000000000000, 0.000000000000000000 ) ) ;
#51 = EDGE_CURVE ( 'NONE', #606, #110, #794, .T. ) ;
#52 = LINE ( 'NONE', #477, #629 ) ;
#53 = CARTESIAN_POINT ( 'NONE',  ( -6.769916579342449836, -14.99999999999999645, 179.5035255881530531 ) ) ;
#54 = VECTOR ( 'NONE', #1008, 1000.000000000000000 ) ;
#55 = PLANE ( 'NONE',  #1025 ) ;
#56 = CC_DESIGN_PERSON_AND_ORGANIZATION_ASSIGNMENT ( #4, #341, ( #822 ) ) ;
#57 = AXIS2_PLACEMENT_3D ( 'NONE', #513, #755, #61 ) ;
#58 = DIRECTION ( 'NONE',  ( 0.000000000000000000, 0.000000000000000000, -1.000000000000000000 ) ) ;
#59 = CYLINDRICAL_SURFACE ( 'NONE', #305, 1.000000000000000888 ) ;
#60 = VERTEX_POINT ( 'NONE', #111 ) ;
#61 = DIRECTION ( 'NONE',  ( 1.000000000000000000, 0.000000000000000000, 0.000000000000000000 ) ) ;
#62 = DIRECTION ( 'NONE',  ( -0.000000000000000000, -0.000000000000000000, -1.000000000000000000 ) ) ;
#63 = VECTOR ( 'NONE', #130, 1000.000000000000000 ) ;
#64 = DIRECTION ( 'NONE',  ( 1.000000000000000000, 0.000000000000000000, -0.000000000000000000 ) ) ;
#65 = ORIENTED_EDGE ( 'NONE', *, *, #1057, .F. ) ;
#66 = ORIENTED_EDGE ( 'NONE', *, *, #662, .T. ) ;
#67 = ADVANCED_FACE ( 'NONE', ( #193 ), #948, .T. ) ;
#68 = APPROVAL_STATUS ( 'not_yet_approved' ) ;
#69 = DIRECTION ( 'NONE',  ( 1.000000000000000000, 0.000000000000000000, -0.000000000000000000 ) ) ;
#70 = CARTESIAN_POINT ( 'NONE',  ( 0.000000000000000000, 35.00000000000000000, 0.000000000000000000 ) ) ;
#71 = ORIENTED_EDGE ( 'NONE', *, *, #414, .T. ) ;
#72 = VECTOR ( 'NONE', #886, 1000.000000000000000 ) ;
#73 = ORIENTED_EDGE ( 'NONE', *, *, #327, .T. ) ;
#74 = DATE_AND_TIME ( #1094, #1017 ) ;
#75 = DIRECTION ( 'NONE',  ( -0.000000000000000000, -1.000000000000000000, -0.000000000000000000 ) ) ;
#76 = DIRECTION ( 'NONE',  ( -1.896941266429254820E-15, 0.000000000000000000, 1.000000000000000000 ) ) ;
#77 = ORIENTED_EDGE ( 'NONE', *, *, #837, .F. ) ;
#78 = EDGE_CURVE ( 'NONE', #308, #785, #871, .T. ) ;
#79 = ORIENTED_EDGE ( 'NONE', *, *, #823, .T. ) ;
#80 = CARTESIAN_POINT ( 'NONE',  ( -6.769916579342449836, -14.99999999999999645, 179.5035255881530531 ) ) ;
#81 = DIRECTION ( 'NONE',  ( 0.000000000000000000, 0.000000000000000000, -1.000000000000000000 ) ) ;
#82 = ORIENTED_EDGE ( 'NONE', *, *, #442, .F. ) ;
#83 = CIRCLE ( 'NONE', #797, 23.99999999999999289 ) ;
#84 = EDGE_LOOP ( 'NONE', ( #854, #497, #417, #517 ) ) ;
#85 = PERSON_AND_ORGANIZATION ( #1060, #734 ) ;
#86 = FACE_OUTER_BOUND ( 'NONE', #911, .T. ) ;
#87 = DIRECTION ( 'NONE',  ( 0.000000000000000000, 0.000000000000000000, -1.000000000000000000 ) ) ;
#88 = ORIENTED_EDGE ( 'NONE', *, *, #238, .T. ) ;
#89 = EDGE_CURVE ( 'NONE', #785, #973, #447, .T. ) ;
#90 = EDGE_LOOP ( 'NONE', ( #44, #523, #242, #675, #1009 ) ) ;
#91 = CIRCLE ( 'NONE', #605, 23.99999999999999289 ) ;
#92 = DIRECTION ( 'NONE',  ( 0.000000000000000000, -0.000000000000000000, 1.000000000000000000 ) ) ;
#93 = DIRECTION ( 'NONE',  ( 0.000000000000000000, 0.000000000000000000, 1.000000000000000000 ) ) ;
#94 = ORIENTED_EDGE ( 'NONE', *, *, #129, .T. ) ;
#95 = FACE_OUTER_BOUND ( 'NONE', #182, .T. ) ;
#96 = AXIS2_PLACEMENT_3D ( 'NONE', #956, #195, #791 ) ;
#97 = DIRECTION ( 'NONE',  ( 1.000000000000000000, -0.000000000000000000, 0.000000000000000000 ) ) ;
#98 = PLANE ( 'NONE',  #107 ) ;
#99 = ORIENTED_EDGE ( 'NONE', *, *, #778, .F. ) ;
#100 = DIRECTION ( 'NONE',  ( 0.000000000000000000, 0.000000000000000000, -1.000000000000000000 ) ) ;
#101 = DIRECTION ( 'NONE',  ( 0.000000000000000000, 0.000000000000000000, -1.000000000000000000 ) ) ;
#102 = CARTESIAN_POINT ( 'NONE',  ( 0.000000000000000000, -34.99999999999999289, 0.000000000000000000 ) ) ;
#103 = VERTEX_POINT ( 'NONE', #602 ) ;
#104 = VECTOR ( 'NONE', #876, 1000.000000000000000 ) ;
#105 = DIRECTION ( 'NONE',  ( 0.000000000000000000, -1.000000000000000000, 0.000000000000000000 ) ) ;
#106 = VECTOR ( 'NONE', #478, 1000.000000000000000 ) ;
#107 = AXIS2_PLACEMENT_3D ( 'NONE', #21, #1044, #113 ) ;
#108 = CARTESIAN_POINT ( 'NONE',  ( -6.769916579342449836, -14.99999999999999645, -175.4964744118461795 ) ) ;
#109 = CARTESIAN_POINT ( 'NONE',  ( -363.2368461863853781, -34.99999999999999289, -174.8567744887362778 ) ) ;
#110 = VERTEX_POINT ( 'NONE', #1052 ) ;
#111 = CARTESIAN_POINT ( 'NONE',  ( 19.77591903501618731, -34.99999999999999289, -175.4964744118461795 ) ) ;
#112 = CARTESIAN_POINT ( 'NONE',  ( 114.7074235807857860, 34.00000000000000000, -260.0000000000000000 ) ) ;
#113 = DIRECTION ( 'NONE',  ( 0.000000000000000000, -0.000000000000000000, -1.000000000000000000 ) ) ;
#114 = ORIENTED_EDGE ( 'NONE', *, *, #1031, .F. ) ;
#115 = EDGE_CURVE ( 'NONE', #253, #1086, #23, .T. ) ;
#116 = PLANE ( 'NONE',  #118 ) ;
#117 = EDGE_CURVE ( 'NONE', #946, #446, #197, .T. ) ;
#118 = AXIS2_PLACEMENT_3D ( 'NONE', #274, #100, #612 ) ;
#119 = VECTOR ( 'NONE', #185, 1000.000000000000000 ) ;
#120 = DIRECTION ( 'NONE',  ( 1.000000000000000000, 0.000000000000000000, -0.000000000000000000 ) ) ;
#121 = EDGE_LOOP ( 'NONE', ( #422, #582, #278, #377 ) ) ;
#122 = PLANE ( 'NONE',  #1070 ) ;
#123 = ADVANCED_FACE ( 'NONE', ( #710 ), #183, .F. ) ;
#124 = VECTOR ( 'NONE', #495, 1000.000000000000000 ) ;
#125 = EDGE_CURVE ( 'NONE', #388, #493, #443, .T. ) ;
#126 = DIRECTION ( 'NONE',  ( -0.000000000000000000, 0.000000000000000000, 1.000000000000000000 ) ) ;
#127 = DIRECTION ( 'NONE',  ( -1.000000000000000000, 0.000000000000000000, 0.000000000000000000 ) ) ;
#128 = EDGE_LOOP ( 'NONE', ( #77, #874, #320, #798, #957, #228 ) ) ;
#129 = EDGE_CURVE ( 'NONE', #308, #621, #534, .T. ) ;
#130 = DIRECTION ( 'NONE',  ( -1.000000000000000000, 0.000000000000000000, 0.000000000000000000 ) ) ;
#131 = DIRECTION ( 'NONE',  ( -0.9998216550178951056, 0.000000000000000000, -0.01888539534342284498 ) ) ;
#132 = CARTESIAN_POINT ( 'NONE',  ( -402.2925764192142424, 0.000000000000000000, 214.3965921979798566 ) ) ;
#133 = ORIENTED_EDGE ( 'NONE', *, *, #134, .T. ) ;
#134 = EDGE_CURVE ( 'NONE', #16, #30, #358, .T. ) ;
#135 = DIRECTION ( 'NONE',  ( -0.000000000000000000, -1.000000000000000000, -0.000000000000000000 ) ) ;
#136 = CARTESIAN_POINT ( 'NONE',  ( -402.2925764192142424, 0.000000000000000000, -225.6034078020198308 ) ) ;
#137 = DIRECTION ( 'NONE',  ( 0.000000000000000000, 0.000000000000000000, -1.000000000000000000 ) ) ;
#138 = ORIENTED_EDGE ( 'NONE', *, *, #280, .T. ) ;
#139 = APPROVAL ( #657, 'UNSPECIFIED' ) ;
#140 = CARTESIAN_POINT ( 'NONE',  ( -472.2925764192141855, 34.00000000000000000, -235.0000000000000000 ) ) ;
#141 = DIRECTION ( 'NONE',  ( 0.01888539534342284498, 0.000000000000000000, -0.9998216550178951056 ) ) ;
#142 = CARTESIAN_POINT ( 'NONE',  ( -363.2368461863853781, -34.99999999999999289, -174.8567744887362778 ) ) ;
#143 = AXIS2_PLACEMENT_3D ( 'NONE', #70, #1099, #344 ) ;
#144 = VERTEX_POINT ( 'NONE', #545 ) ;
#145 =( NAMED_UNIT ( * ) PLANE_ANGLE_UNIT ( ) SI_UNIT ( $, .RADIAN. ) );
#146 = DIRECTION ( 'NONE',  ( -0.000000000000000000, -1.000000000000000000, -0.000000000000000000 ) ) ;
#147 = CARTESIAN_POINT ( 'NONE',  ( -472.2925764192141855, 0.000000000000000000, -235.0000000000000000 ) ) ;
#148 = VECTOR ( 'NONE', #615, 1000.000000000000000 ) ;
#149 = EDGE_CURVE ( 'NONE', #577, #267, #1069, .T. ) ;
#150 = ORIENTED_EDGE ( 'NONE', *, *, #627, .T. ) ;
#151 = VERTEX_POINT ( 'NONE', #714 ) ;
#152 = EDGE_CURVE ( 'NONE', #103, #144, #312, .T. ) ;
#153 = DATE_AND_TIME ( #596, #980 ) ;
#154 = LINE ( 'NONE', #354, #656 ) ;
#155 = CARTESIAN_POINT ( 'NONE',  ( 114.7074235807857860, 34.00000000000000000, 319.9999999999999432 ) ) ;
#156 = ORIENTED_EDGE ( 'NONE', *, *, #39, .F. ) ;
#157 = ORIENTED_EDGE ( 'NONE', *, *, #870, .T. ) ;
#158 = EDGE_CURVE ( 'NONE', #296, #328, #309, .T. ) ;
#159 = CARTESIAN_POINT ( 'NONE',  ( -390.4469890217190482, -34.99999999999999289, 179.3965921979797997 ) ) ;
#160 = DIRECTION ( 'NONE',  ( 1.000000000000000000, 0.000000000000000000, 0.000000000000000000 ) ) ;
#161 = VERTEX_POINT ( 'NONE', #132 ) ;
#162 = CIRCLE ( 'NONE', #623, 1.000000000000000888 ) ;
#163 = ORIENTED_EDGE ( 'NONE', *, *, #949, .F. ) ;
#164 = APPROVAL_DATE_TIME ( #153, #617 ) ;
#165 = DIRECTION ( 'NONE',  ( 0.000000000000000000, 0.000000000000000000, 1.000000000000000000 ) ) ;
#166 = VECTOR ( 'NONE', #304, 1000.000000000000114 ) ;
#167 = FACE_OUTER_BOUND ( 'NONE', #402, .T. ) ;
#168 = ORIENTED_EDGE ( 'NONE', *, *, #115, .F. ) ;
#169 = ORIENTED_EDGE ( 'NONE', *, *, #547, .F. ) ;
#170 = EDGE_CURVE ( 'NONE', #144, #1023, #628, .T. ) ;
#171 = PERSON_AND_ORGANIZATION ( #1060, #734 ) ;
#172 = PRODUCT ( 'up_Default_sldprt', 'up_Default_sldprt', '', ( #1084 ) ) ;
#173 = DIRECTION ( 'NONE',  ( -0.000000000000000000, 1.000000000000000000, 0.000000000000000000 ) ) ;
#174 = DIRECTION ( 'NONE',  ( -0.000000000000000000, -1.000000000000000000, -0.000000000000000000 ) ) ;
#175 = ORIENTED_EDGE ( 'NONE', *, *, #115, .T. ) ;
#176 = CLOSED_SHELL ( 'NONE', ( #321, #67, #1018, #398, #123, #753, #432, #635, #32, #270, #317, #561, #1026, #355, #518, #223, #430, #33, #243, #482, #959, #1065, #450, #829, #289, #842, #650, #670, #336, #8, #788, #743, #403, #217, #658, #3, #730 ) ) ;
#177 = VECTOR ( 'NONE', #101, 1000.000000000000000 ) ;
#178 = ORIENTED_EDGE ( 'NONE', *, *, #544, .T. ) ;
#179 = EDGE_CURVE ( 'NONE', #273, #412, #208, .T. ) ;
#180 = CARTESIAN_POINT ( 'NONE',  ( -496.2925764192141855, 35.00000000000000000, -235.0000000000000000 ) ) ;
#181 = FACE_OUTER_BOUND ( 'NONE', #1003, .T. ) ;
#182 = EDGE_LOOP ( 'NONE', ( #207, #781, #407, #1050 ) ) ;
#183 = PLANE ( 'NONE',  #924 ) ;
#184 = AXIS2_PLACEMENT_3D ( 'NONE', #1006, #173, #856 ) ;
#185 = DIRECTION ( 'NONE',  ( -0.000000000000000000, -0.000000000000000000, 1.000000000000000000 ) ) ;
#186 = DIRECTION ( 'NONE',  ( 0.000000000000000000, 0.000000000000000000, 1.000000000000000000 ) ) ;
#187 = VERTEX_POINT ( 'NONE', #474 ) ;
#188 = CARTESIAN_POINT ( 'NONE',  ( -362.2925764192142424, -38.45158795810492336, -171.3867347585938887 ) ) ;
#189 = AXIS2_PLACEMENT_3D ( 'NONE', #991, #386, #810 ) ;
#190 = DIRECTION ( 'NONE',  ( 0.000000000000000000, -0.7071067811865475727, 0.7071067811865475727 ) ) ;
#191 = LINE ( 'NONE', #350, #716 ) ;
#192 = ORIENTED_EDGE ( 'NONE', *, *, #640, .T. ) ;
#193 = FACE_OUTER_BOUND ( 'NONE', #351, .T. ) ;
#194 = LINE ( 'NONE', #108, #560 ) ;
#195 = DIRECTION ( 'NONE',  ( 0.000000000000000000, 1.000000000000000000, 0.000000000000000000 ) ) ;
#196 = ORIENTED_EDGE ( 'NONE', *, *, #149, .T. ) ;
#197 = LINE ( 'NONE', #787, #1032 ) ;
#198 = AXIS2_PLACEMENT_3D ( 'NONE', #426, #932, #845 ) ;
#199 = LINE ( 'NONE', #457, #986 ) ;
#200 = CARTESIAN_POINT ( 'NONE',  ( 114.7074235807857860, 35.00000000000000000, 319.9999999999999432 ) ) ;
#201 = ORIENTED_EDGE ( 'NONE', *, *, #314, .T. ) ;
#202 = EDGE_CURVE ( 'NONE', #504, #577, #811, .T. ) ;
#203 = LINE ( 'NONE', #541, #104 ) ;
#204 = CC_DESIGN_APPROVAL ( #456, ( #646 ) ) ;
#205 = DIRECTION ( 'NONE',  ( -0.000000000000000000, -1.000000000000000000, -0.000000000000000000 ) ) ;
#206 = EDGE_CURVE ( 'NONE', #606, #103, #649, .T. ) ;
#207 = ORIENTED_EDGE ( 'NONE', *, *, #553, .T. ) ;
#208 = LINE ( 'NONE', #633, #585 ) ;
#209 = CARTESIAN_POINT ( 'NONE',  ( 0.000000000000000000, 0.000000000000000000, 0.000000000000000000 ) ) ;
#210 = DIRECTION ( 'NONE',  ( -0.000000000000000000, -0.000000000000000000, -1.000000000000000000 ) ) ;
#211 = CARTESIAN_POINT ( 'NONE',  ( -497.2925764192141855, 34.00000000000000000, -260.0000000000000000 ) ) ;
#212 = ORIENTED_EDGE ( 'NONE', *, *, #206, .F. ) ;
#213 = CARTESIAN_POINT ( 'NONE',  ( -362.2925764192142424, -34.99999999999999289, -224.8478572396313950 ) ) ;
#214 = VECTOR ( 'NONE', #725, 1000.000000000000000 ) ;
#215 = DIRECTION ( 'NONE',  ( -0.000000000000000000, 0.7071067811865474617, 0.7071067811865474617 ) ) ;
#216 = CARTESIAN_POINT ( 'NONE',  ( 113.7074235807857860, 35.00000000000000000, 318.9999999999999432 ) ) ;
#217 = ADVANCED_FACE ( 'NONE', ( #1075 ), #122, .F. ) ;
#218 = ORIENTED_EDGE ( 'NONE', *, *, #314, .F. ) ;
#219 = DIRECTION ( 'NONE',  ( 0.000000000000000000, 0.000000000000000000, 1.000000000000000000 ) ) ;
#220 = CARTESIAN_POINT ( 'NONE',  ( -496.2925764192141855, 35.00000000000000000, 318.9999999999999432 ) ) ;
#221 = DIRECTION ( 'NONE',  ( 0.000000000000000000, 0.000000000000000000, 1.000000000000000000 ) ) ;
#222 = EDGE_LOOP ( 'NONE', ( #668, #257, #776, #934 ) ) ;
#223 = ADVANCED_FACE ( 'NONE', ( #391 ), #732, .T. ) ;
#224 = VECTOR ( 'NONE', #636, 1000.000000000000114 ) ;
#225 = DIRECTION ( 'NONE',  ( 0.000000000000000000, -0.000000000000000000, 1.000000000000000000 ) ) ;
#226 = DIRECTION ( 'NONE',  ( 1.000000000000000000, -0.000000000000000000, 0.000000000000000000 ) ) ;
#227 = CARTESIAN_POINT ( 'NONE',  ( -390.4469890217190482, -34.99999999999999289, -175.3707404567839205 ) ) ;
#228 = ORIENTED_EDGE ( 'NONE', *, *, #235, .F. ) ;
#229 = CARTESIAN_POINT ( 'NONE',  ( -6.769916579342449836, -34.99999999999999289, -175.4964744118461795 ) ) ;
#230 = EDGE_CURVE ( 'NONE', #493, #498, #719, .T. ) ;
#231 = VECTOR ( 'NONE', #343, 1000.000000000000000 ) ;
#232 = CARTESIAN_POINT ( 'NONE',  ( -390.4469890217190482, -14.99999999999999645, -175.3707404567839205 ) ) ;
#233 = LINE ( 'NONE', #581, #1071 ) ;
#234 = ORIENTED_EDGE ( 'NONE', *, *, #942, .T. ) ;
#235 = EDGE_CURVE ( 'NONE', #248, #103, #1063, .T. ) ;
#236 = DATE_AND_TIME ( #1089, #682 ) ;
#237 = CARTESIAN_POINT ( 'NONE',  ( 19.77591903501618731, -34.99999999999999289, -225.4964744118465205 ) ) ;
#238 = EDGE_CURVE ( 'NONE', #261, #60, #396, .T. ) ;
#239 = CARTESIAN_POINT ( 'NONE',  ( -362.2925764192142424, -34.99999999999999289, -174.8389383998954543 ) ) ;
#240 = VECTOR ( 'NONE', #690, 1000.000000000000000 ) ;
#241 = ORIENTED_EDGE ( 'NONE', *, *, #662, .F. ) ;
#242 = ORIENTED_EDGE ( 'NONE', *, *, #908, .T. ) ;
#243 = ADVANCED_FACE ( 'NONE', ( #558 ), #1058, .F. ) ;
#244 = CALENDAR_DATE ( 2026, 14, 8 ) ;
#245 = DIRECTION ( 'NONE',  ( -1.000000000000000000, 0.000000000000000000, 0.000000000000000000 ) ) ;
#246 = FACE_OUTER_BOUND ( 'NONE', #539, .T. ) ;
#247 = ORIENTED_EDGE ( 'NONE', *, *, #134, .F. ) ;
#248 = VERTEX_POINT ( 'NONE', #297 ) ;
#249 = AXIS2_PLACEMENT_3D ( 'NONE', #777, #105, #782 ) ;
#250 = APPROVAL_ROLE ( '' ) ;
#251 = CARTESIAN_POINT ( 'NONE',  ( -362.2925764192142424, 0.000000000000000000, -209.8451815877103570 ) ) ;
#252 = DIRECTION ( 'NONE',  ( 0.000000000000000000, 0.000000000000000000, 1.000000000000000000 ) ) ;
#253 = VERTEX_POINT ( 'NONE', #483 ) ;
#254 = VECTOR ( 'NONE', #705, 1000.000000000000000 ) ;
#255 = TOROIDAL_SURFACE ( 'NONE', #728, 24.00000000000000000, 1.000000000000000000 ) ;
#256 = EDGE_CURVE ( 'NONE', #834, #1064, #819, .T. ) ;
#257 = ORIENTED_EDGE ( 'NONE', *, *, #971, .F. ) ;
#258 = APPROVAL_ROLE ( '' ) ;
#259 = CARTESIAN_POINT ( 'NONE',  ( -362.2925764192142424, 0.000000000000000000, 214.3965921979798281 ) ) ;
#260 = CARTESIAN_POINT ( 'NONE',  ( -390.4469890217190482, -14.99999999999999645, 179.3965921979797997 ) ) ;
#261 = VERTEX_POINT ( 'NONE', #982 ) ;
#262 = CC_DESIGN_PERSON_AND_ORGANIZATION_ASSIGNMENT ( #1005, #329, ( #646 ) ) ;
#263 = EDGE_LOOP ( 'NONE', ( #933, #133, #881, #590 ) ) ;
#264 = COORDINATED_UNIVERSAL_TIME_OFFSET ( 5, 30, .AHEAD. ) ;
#265 = LINE ( 'NONE', #938, #124 ) ;
#266 = CARTESIAN_POINT ( 'NONE',  ( 114.7074235807857860, 34.00000000000000000, -235.0000000000000000 ) ) ;
#267 = VERTEX_POINT ( 'NONE', #549 ) ;
#268 = VECTOR ( 'NONE', #867, 1000.000000000000000 ) ;
#269 = ORIENTED_EDGE ( 'NONE', *, *, #831, .T. ) ;
#270 = ADVANCED_FACE ( 'NONE', ( #301 ), #59, .T. ) ;
#271 = LINE ( 'NONE', #112, #323 ) ;
#272 = DIRECTION ( 'NONE',  ( 0.000000000000000000, 1.000000000000000000, 0.000000000000000000 ) ) ;
#273 = VERTEX_POINT ( 'NONE', #593 ) ;
#274 = CARTESIAN_POINT ( 'NONE',  ( -6.769916579342449836, -14.99999999999999645, -175.4964744118461795 ) ) ;
#275 = AXIS2_PLACEMENT_3D ( 'NONE', #10, #1001, #92 ) ;
#276 = DIRECTION ( 'NONE',  ( 1.000000000000000000, -0.000000000000000000, -0.000000000000000000 ) ) ;
#277 = LINE ( 'NONE', #857, #148 ) ;
#278 = ORIENTED_EDGE ( 'NONE', *, *, #870, .F. ) ;
#279 = CARTESIAN_POINT ( 'NONE',  ( -18.15016872805719217, -34.99999999999999289, -225.4964744118465205 ) ) ;
#280 = EDGE_CURVE ( 'NONE', #708, #577, #162, .T. ) ;
#281 = CARTESIAN_POINT ( 'NONE',  ( 114.7074235807857860, 34.00000000000000000, 319.9999999999999432 ) ) ;
#282 = ORIENTED_EDGE ( 'NONE', *, *, #706, .T. ) ;
#283 = CARTESIAN_POINT ( 'NONE',  ( -6.769916579342449836, -14.99999999999999645, 179.5035255881530531 ) ) ;
#284 = LINE ( 'NONE', #689, #943 ) ;
#285 = FACE_OUTER_BOUND ( 'NONE', #90, .T. ) ;
#286 = ORIENTED_EDGE ( 'NONE', *, *, #627, .F. ) ;
#287 = CARTESIAN_POINT ( 'NONE',  ( -497.2925764192141855, 35.00000000000000000, 319.9999999999999432 ) ) ;
#288 = AXIS2_PLACEMENT_3D ( 'NONE', #897, #141, #131 ) ;
#289 = ADVANCED_FACE ( 'NONE', ( #411 ), #416, .T. ) ;
#290 = AXIS2_PLACEMENT_3D ( 'NONE', #200, #880, #93 ) ;
#291 = CARTESIAN_POINT ( 'NONE',  ( 114.7074235807857860, 0.000000000000000000, 319.9999999999999432 ) ) ;
#292 = ORIENTED_EDGE ( 'NONE', *, *, #520, .F. ) ;
#293 = DIRECTION ( 'NONE',  ( 0.9998216550178951056, 0.000000000000000000, 0.01888539534342284498 ) ) ;
#294 = VECTOR ( 'NONE', #146, 1000.000000000000000 ) ;
#295 = LINE ( 'NONE', #974, #598 ) ;
#296 = VERTEX_POINT ( 'NONE', #1081 ) ;
#297 = CARTESIAN_POINT ( 'NONE',  ( -402.2925764192142424, -34.99999999999999289, -175.5944889622839185 ) ) ;
#298 = VERTEX_POINT ( 'NONE', #839 ) ;
#299 = LINE ( 'NONE', #393, #546 ) ;
#300 = CARTESIAN_POINT ( 'NONE',  ( -497.2925764192141855, 34.00000000000000000, -235.0000000000000000 ) ) ;
#301 = FACE_OUTER_BOUND ( 'NONE', #869, .T. ) ;
#302 = ORIENTED_EDGE ( 'NONE', *, *, #364, .F. ) ;
#303 = ADVANCED_BREP_SHAPE_REPRESENTATION ( 'up_Default_sldprt', ( #892, #57 ), #591 ) ;
#304 = DIRECTION ( 'NONE',  ( 0.000000000000000000, -0.7071067811865474617, -0.7071067811865474617 ) ) ;
#305 = AXIS2_PLACEMENT_3D ( 'NONE', #469, #401, #160 ) ;
#306 = PLANE ( 'NONE',  #1087 ) ;
#307 = CARTESIAN_POINT ( 'NONE',  ( -375.8152362590859639, -34.99999999999999289, 179.3965921979798281 ) ) ;
#308 = VERTEX_POINT ( 'NONE', #239 ) ;
#309 =( BOUNDED_CURVE ( )  B_SPLINE_CURVE ( 3, ( #216, #807, #975, #815 ),
 .UNSPECIFIED., .F., .F. ) 
 B_SPLINE_CURVE_WITH_KNOTS ( ( 4, 4 ),
 ( 1.570796326794896558, 3.141592653589793116 ),
 .UNSPECIFIED. ) 
 CURVE ( )  GEOMETRIC_REPRESENTATION_ITEM ( )  RATIONAL_B_SPLINE_CURVE ( ( 1.000000000000000000, 0.8047378541243649375, 0.8047378541243649375, 1.000000000000000000 ) ) 
 REPRESENTATION_ITEM ( '' )  );
#310 = PLANE ( 'NONE',  #848 ) ;
#311 = DIRECTION ( 'NONE',  ( 0.000000000000000000, 0.7071067811865474617, -0.7071067811865474617 ) ) ;
#312 = LINE ( 'NONE', #227, #551 ) ;
#313 = ORIENTED_EDGE ( 'NONE', *, *, #373, .T. ) ;
#314 = EDGE_CURVE ( 'NONE', #161, #765, #233, .T. ) ;
#315 = VECTOR ( 'NONE', #630, 1000.000000000000000 ) ;
#316 = PLANE ( 'NONE',  #884 ) ;
#317 = ADVANCED_FACE ( 'NONE', ( #745 ), #331, .T. ) ;
#318 = PLANE ( 'NONE',  #288 ) ;
#319 = FACE_OUTER_BOUND ( 'NONE', #38, .T. ) ;
#320 = ORIENTED_EDGE ( 'NONE', *, *, #78, .F. ) ;
#321 = ADVANCED_FACE ( 'NONE', ( #325 ), #997, .T. ) ;
#322 = APPLICATION_PROTOCOL_DEFINITION ( 'international standard', 'config_control_design', 1994, #1072 ) ;
#323 = VECTOR ( 'NONE', #276, 1000.000000000000000 ) ;
#324 = DIRECTION ( 'NONE',  ( 1.000000000000000000, 0.000000000000000000, 0.000000000000000000 ) ) ;
#325 = FACE_OUTER_BOUND ( 'NONE', #431, .T. ) ;
#326 = ORIENTED_EDGE ( 'NONE', *, *, #1053, .F. ) ;
#327 = EDGE_CURVE ( 'NONE', #412, #792, #338, .T. ) ;
#328 = VERTEX_POINT ( 'NONE', #155 ) ;
#329 = PERSON_AND_ORGANIZATION_ROLE ( 'design_supplier' ) ;
#330 = CARTESIAN_POINT ( 'NONE',  ( 19.77591903501618731, -34.99999999999999289, -175.4964744118461795 ) ) ;
#331 = CYLINDRICAL_SURFACE ( 'NONE', #535, 1.000000000000000888 ) ;
#332 = VECTOR ( 'NONE', #609, 1000.000000000000000 ) ;
#333 = ORIENTED_EDGE ( 'NONE', *, *, #611, .F. ) ;
#334 = ORIENTED_EDGE ( 'NONE', *, *, #442, .T. ) ;
#335 = PERSON_AND_ORGANIZATION ( #1060, #734 ) ;
#336 = ADVANCED_FACE ( 'NONE', ( #319 ), #852, .F. ) ;
#337 = CARTESIAN_POINT ( 'NONE',  ( 89.70742358078578604, 0.000000000000000000, -235.0000000000000284 ) ) ;
#338 = LINE ( 'NONE', #667, #569 ) ;
#339 = ORIENTED_EDGE ( 'NONE', *, *, #1053, .T. ) ;
#340 = ORIENTED_EDGE ( 'NONE', *, *, #373, .F. ) ;
#341 = PERSON_AND_ORGANIZATION_ROLE ( 'classification_officer' ) ;
#342 = PRODUCT_DEFINITION ( 'UNKNOWN', '', #646, #793 ) ;
#343 = DIRECTION ( 'NONE',  ( -0.000000000000000000, -0.000000000000000000, 1.000000000000000000 ) ) ;
#344 = DIRECTION ( 'NONE',  ( 0.000000000000000000, -0.000000000000000000, 1.000000000000000000 ) ) ;
#345 = EDGE_LOOP ( 'NONE', ( #286, #138, #361, #754 ) ) ;
#346 = AXIS2_PLACEMENT_3D ( 'NONE', #660, #992, #406 ) ;
#347 = ORIENTED_EDGE ( 'NONE', *, *, #722, .F. ) ;
#348 = DIRECTION ( 'NONE',  ( -0.000000000000000000, -1.000000000000000000, -0.000000000000000000 ) ) ;
#349 = LOCAL_TIME ( 9, 59, 45.00000000000000000, #671 ) ;
#350 = CARTESIAN_POINT ( 'NONE',  ( -18.15016872805719217, -34.99999999999999289, -225.4964744118465205 ) ) ;
#351 = EDGE_LOOP ( 'NONE', ( #953, #178, #94, #423 ) ) ;
#352 = EDGE_LOOP ( 'NONE', ( #759, #428, #885, #26 ) ) ;
#353 = EDGE_CURVE ( 'NONE', #1035, #261, #654, .T. ) ;
#354 = CARTESIAN_POINT ( 'NONE',  ( -472.2925764192141855, 35.00000000000000000, -260.0000000000000000 ) ) ;
#355 = ADVANCED_FACE ( 'NONE', ( #763 ), #1091, .T. ) ;
#356 = CARTESIAN_POINT ( 'NONE',  ( -402.2925764192142424, -34.99999999999999289, -225.6034078020198308 ) ) ;
#357 = ORIENTED_EDGE ( 'NONE', *, *, #125, .T. ) ;
#358 = LINE ( 'NONE', #894, #641 ) ;
#359 = CARTESIAN_POINT ( 'NONE',  ( -6.769916579342449836, -34.99999999999999289, 179.5035255881530531 ) ) ;
#360 = DIRECTION ( 'NONE',  ( 0.000000000000000000, -1.000000000000000000, 0.000000000000000000 ) ) ;
#361 = ORIENTED_EDGE ( 'NONE', *, *, #202, .F. ) ;
#362 = FACE_OUTER_BOUND ( 'NONE', #821, .T. ) ;
#363 = VECTOR ( 'NONE', #37, 1000.000000000000000 ) ;
#364 = EDGE_CURVE ( 'NONE', #688, #16, #926, .T. ) ;
#365 = CARTESIAN_POINT ( 'NONE',  ( 89.70742358078578604, 35.00000000000000000, -260.0000000000000000 ) ) ;
#366 = DIRECTION ( 'NONE',  ( 0.000000000000000000, 0.000000000000000000, 1.000000000000000000 ) ) ;
#367 = ORIENTED_EDGE ( 'NONE', *, *, #327, .F. ) ;
#368 = APPROVAL_PERSON_ORGANIZATION ( #171, #617, #250 ) ;
#369 = LINE ( 'NONE', #954, #1066 ) ;
#370 = CARTESIAN_POINT ( 'NONE',  ( -402.2925764192142424, 0.000000000000000000, -210.6007321500987928 ) ) ;
#371 = CARTESIAN_POINT ( 'NONE',  ( 113.7074235807857860, 34.00000000000000000, -235.0000000000000284 ) ) ;
#372 = ORIENTED_EDGE ( 'NONE', *, *, #820, .F. ) ;
#373 = EDGE_CURVE ( 'NONE', #267, #475, #480, .T. ) ;
#374 = CARTESIAN_POINT ( 'NONE',  ( 3.833087829687717107, 0.000000000000000000, -202.9295202995079421 ) ) ;
#375 = VECTOR ( 'NONE', #951, 1000.000000000000114 ) ;
#376 = PLANE ( 'NONE',  #380 ) ;
#377 = ORIENTED_EDGE ( 'NONE', *, *, #507, .T. ) ;
#378 = CC_DESIGN_PERSON_AND_ORGANIZATION_ASSIGNMENT ( #85, #742, ( #172 ) ) ;
#379 = DIRECTION ( 'NONE',  ( 0.000000000000000000, 0.000000000000000000, -1.000000000000000000 ) ) ;
#380 = AXIS2_PLACEMENT_3D ( 'NONE', #955, #702, #29 ) ;
#381 = DIRECTION ( 'NONE',  ( 0.000000000000000000, 0.000000000000000000, 1.000000000000000000 ) ) ;
#382 = ORIENTED_EDGE ( 'NONE', *, *, #206, .T. ) ;
#383 = CARTESIAN_POINT ( 'NONE',  ( 114.7074235807857860, 30.00000000000002842, 319.9999999999999432 ) ) ;
#384 = ORIENTED_EDGE ( 'NONE', *, *, #566, .F. ) ;
#385 = AXIS2_PLACEMENT_3D ( 'NONE', #473, #907, #1068 ) ;
#386 = DIRECTION ( 'NONE',  ( 1.000000000000000000, 0.000000000000000000, -0.000000000000000000 ) ) ;
#387 = CARTESIAN_POINT ( 'NONE',  ( -375.8152362590859639, -14.99999999999999645, 179.3965921979798281 ) ) ;
#388 = VERTEX_POINT ( 'NONE', #492 ) ;
#389 = FACE_OUTER_BOUND ( 'NONE', #853, .T. ) ;
#390 = LINE ( 'NONE', #814, #905 ) ;
#391 = FACE_OUTER_BOUND ( 'NONE', #510, .T. ) ;
#392 = ORIENTED_EDGE ( 'NONE', *, *, #1041, .F. ) ;
#393 = CARTESIAN_POINT ( 'NONE',  ( -375.8152362590859639, -14.99999999999999645, -175.0943647310704989 ) ) ;
#394 = VECTOR ( 'NONE', #31, 1000.000000000000114 ) ;
#395 = FACE_OUTER_BOUND ( 'NONE', #1077, .T. ) ;
#396 = LINE ( 'NONE', #987, #363 ) ;
#397 = CC_DESIGN_APPROVAL ( #139, ( #342 ) ) ;
#398 = ADVANCED_FACE ( 'NONE', ( #167 ), #421, .T. ) ;
#399 = LINE ( 'NONE', #887, #166 ) ;
#400 = CARTESIAN_POINT ( 'NONE',  ( 89.70742358078575762, 35.00000000000000000, -259.0000000000000000 ) ) ;
#401 = DIRECTION ( 'NONE',  ( 0.000000000000000000, -0.000000000000000000, 1.000000000000000000 ) ) ;
#402 = EDGE_LOOP ( 'NONE', ( #579, #157, #372, #150, #234, #988 ) ) ;
#403 = ADVANCED_FACE ( 'NONE', ( #246 ), #920, .F. ) ;
#404 = VECTOR ( 'NONE', #1027, 1000.000000000000000 ) ;
#405 = LINE ( 'NONE', #554, #994 ) ;
#406 = DIRECTION ( 'NONE',  ( -0.9998216550178949946, 0.000000000000000000, -0.01888539534342267498 ) ) ;
#407 = ORIENTED_EDGE ( 'NONE', *, *, #512, .F. ) ;
#408 = VERTEX_POINT ( 'NONE', #1014 ) ;
#409 = VECTOR ( 'NONE', #902, 1000.000000000000000 ) ;
#410 = PLANE ( 'NONE',  #516 ) ;
#411 = FACE_OUTER_BOUND ( 'NONE', #128, .T. ) ;
#412 = VERTEX_POINT ( 'NONE', #260 ) ;
#413 = ORIENTED_EDGE ( 'NONE', *, *, #78, .T. ) ;
#414 = EDGE_CURVE ( 'NONE', #446, #691, #1011, .T. ) ;
#415 = CARTESIAN_POINT ( 'NONE',  ( -496.2925764192141855, 35.00000000000000000, 318.9999999999999432 ) ) ;
#416 = PLANE ( 'NONE',  #346 ) ;
#417 = ORIENTED_EDGE ( 'NONE', *, *, #230, .F. ) ;
#418 = ORIENTED_EDGE ( 'NONE', *, *, #438, .F. ) ;
#419 = DATE_TIME_ROLE ( 'classification_date' ) ;
#420 = CARTESIAN_POINT ( 'NONE',  ( -18.15016872805719217, -34.99999999999999289, -175.4964744118461795 ) ) ;
#421 = PLANE ( 'NONE',  #143 ) ;
#422 = ORIENTED_EDGE ( 'NONE', *, *, #831, .F. ) ;
#423 = ORIENTED_EDGE ( 'NONE', *, *, #631, .T. ) ;
#424 = COORDINATED_UNIVERSAL_TIME_OFFSET ( 5, 30, .AHEAD. ) ;
#425 = CARTESIAN_POINT ( 'NONE',  ( 114.7074235807857860, 35.00000000000000000, 319.9999999999999432 ) ) ;
#426 = CARTESIAN_POINT ( 'NONE',  ( 0.000000000000000000, -34.99999999999999289, 0.000000000000000000 ) ) ;
#427 = AXIS2_PLACEMENT_3D ( 'NONE', #80, #245, #165 ) ;
#428 = ORIENTED_EDGE ( 'NONE', *, *, #711, .F. ) ;
#429 = VECTOR ( 'NONE', #784, 1000.000000000000114 ) ;
#430 = ADVANCED_FACE ( 'NONE', ( #1028 ), #255, .T. ) ;
#431 = EDGE_LOOP ( 'NONE', ( #49, #88, #713, #339 ) ) ;
#432 = ADVANCED_FACE ( 'NONE', ( #285 ), #15, .F. ) ;
#433 = PLANE ( 'NONE',  #275 ) ;
#434 = FACE_OUTER_BOUND ( 'NONE', #695, .T. ) ;
#435 = EDGE_LOOP ( 'NONE', ( #977, #928, #916, #12 ) ) ;
#436 = VECTOR ( 'NONE', #452, 999.9999999999998863 ) ;
#437 = DIRECTION ( 'NONE',  ( 1.000000000000000000, 0.000000000000000000, -0.000000000000000000 ) ) ;
#438 = EDGE_CURVE ( 'NONE', #30, #910, #25, .T. ) ;
#439 = CARTESIAN_POINT ( 'NONE',  ( -390.4469890217190482, -34.99999999999999289, 179.3965921979797997 ) ) ;
#440 = DIRECTION ( 'NONE',  ( 0.000000000000000000, -0.000000000000000000, -1.000000000000000000 ) ) ;
#441 = ORIENTED_EDGE ( 'NONE', *, *, #711, .T. ) ;
#442 = EDGE_CURVE ( 'NONE', #792, #298, #600, .T. ) ;
#443 = LINE ( 'NONE', #283, #18 ) ;
#444 = CARTESIAN_POINT ( 'NONE',  ( 0.000000000000000000, -34.99999999999999289, 179.3965921979798566 ) ) ;
#445 = DIRECTION ( 'NONE',  ( -0.000000000000000000, -0.000000000000000000, -1.000000000000000000 ) ) ;
#446 = VERTEX_POINT ( 'NONE', #266 ) ;
#447 = LINE ( 'NONE', #374, #727 ) ;
#448 = VECTOR ( 'NONE', #969, 1000.000000000000000 ) ;
#449 = PRODUCT_DEFINITION_SHAPE ( 'NONE', 'NONE',  #342 ) ;
#450 = ADVANCED_FACE ( 'NONE', ( #434 ), #98, .T. ) ;
#451 = DIRECTION ( 'NONE',  ( 0.000000000000000000, 0.000000000000000000, 1.000000000000000000 ) ) ;
#452 = DIRECTION ( 'NONE',  ( 0.9998216550178951056, 0.000000000000000000, 0.01888539534342267845 ) ) ;
#453 = ORIENTED_EDGE ( 'NONE', *, *, #706, .F. ) ;
#454 = AXIS2_PLACEMENT_3D ( 'NONE', #140, #568, #381 ) ;
#455 = DIRECTION ( 'NONE',  ( 0.000000000000000000, 0.000000000000000000, 1.000000000000000000 ) ) ;
#456 = APPROVAL ( #68, 'UNSPECIFIED' ) ;
#457 = CARTESIAN_POINT ( 'NONE',  ( -402.2925764192142424, -34.99999999999999289, 179.3965921979798566 ) ) ;
#458 = LINE ( 'NONE', #806, #1056 ) ;
#459 = ORIENTED_EDGE ( 'NONE', *, *, #877, .F. ) ;
#460 = CARTESIAN_POINT ( 'NONE',  ( -6.769916579342449836, -34.99999999999999289, 179.5035255881530531 ) ) ;
#461 = VECTOR ( 'NONE', #97, 1000.000000000000000 ) ;
#462 = DIRECTION ( 'NONE',  ( -0.000000000000000000, 0.000000000000000000, -1.000000000000000000 ) ) ;
#463 = EDGE_LOOP ( 'NONE', ( #962, #490, #384, #686 ) ) ;
#464 = CARTESIAN_POINT ( 'NONE',  ( -472.2925764192141855, 35.00000000000000000, -235.0000000000000000 ) ) ;
#465 = EDGE_CURVE ( 'NONE', #785, #765, #771, .T. ) ;
#466 = AXIS2_PLACEMENT_3D ( 'NONE', #444, #190, #619 ) ;
#467 = DIRECTION ( 'NONE',  ( -0.000000000000000000, -1.000000000000000000, -0.000000000000000000 ) ) ;
#468 = CARTESIAN_POINT ( 'NONE',  ( -472.2925764192141855, 34.00000000000000000, -259.0000000000000000 ) ) ;
#469 = CARTESIAN_POINT ( 'NONE',  ( 113.7074235807857860, 34.00000000000000000, 0.000000000000000000 ) ) ;
#470 = ORIENTED_EDGE ( 'NONE', *, *, #51, .T. ) ;
#471 = AXIS2_PLACEMENT_3D ( 'NONE', #468, #226, #58 ) ;
#472 = CARTESIAN_POINT ( 'NONE',  ( -6.769916579342449836, -14.99999999999999645, -175.4964744118461795 ) ) ;
#473 = CARTESIAN_POINT ( 'NONE',  ( 114.7074235807857860, 35.00000000000000000, -260.0000000000000000 ) ) ;
#474 = CARTESIAN_POINT ( 'NONE',  ( 5.423210722851790067, -14.99999999999999645, -175.4964744118461795 ) ) ;
#475 = VERTEX_POINT ( 'NONE', #945 ) ;
#476 = EDGE_CURVE ( 'NONE', #446, #663, #524, .T. ) ;
#477 = CARTESIAN_POINT ( 'NONE',  ( -402.2925764192142424, -34.99999999999999289, 179.3965921979798566 ) ) ;
#478 = DIRECTION ( 'NONE',  ( 0.000000000000000000, -0.000000000000000000, -1.000000000000000000 ) ) ;
#479 = ORIENTED_EDGE ( 'NONE', *, *, #904, .T. ) ;
#480 = CIRCLE ( 'NONE', #2, 24.99999999999999289 ) ;
#481 = DIRECTION ( 'NONE',  ( 0.000000000000000000, 0.000000000000000000, 1.000000000000000000 ) ) ;
#482 = ADVANCED_FACE ( 'NONE', ( #1039 ), #527, .T. ) ;
#483 = CARTESIAN_POINT ( 'NONE',  ( 114.7074235807857860, 0.000000000000000000, 289.9999999999999432 ) ) ;
#484 = ORIENTED_EDGE ( 'NONE', *, *, #129, .F. ) ;
#485 = DIRECTION ( 'NONE',  ( 1.000000000000000000, -0.000000000000000000, 0.000000000000000000 ) ) ;
#486 = CIRCLE ( 'NONE', #912, 1.000000000000000888 ) ;
#487 = LINE ( 'NONE', #1062, #574 ) ;
#488 = DIRECTION ( 'NONE',  ( 1.000000000000000000, 0.000000000000000000, 0.000000000000000000 ) ) ;
#489 = ORIENTED_EDGE ( 'NONE', *, *, #1036, .F. ) ;
#490 = ORIENTED_EDGE ( 'NONE', *, *, #820, .T. ) ;
#491 = FACE_OUTER_BOUND ( 'NONE', #84, .T. ) ;
#492 = CARTESIAN_POINT ( 'NONE',  ( 5.423210722851790067, -14.99999999999999645, 179.5035255881530531 ) ) ;
#493 = VERTEX_POINT ( 'NONE', #620 ) ;
#494 = ORIENTED_EDGE ( 'NONE', *, *, #476, .F. ) ;
#495 = DIRECTION ( 'NONE',  ( 0.000000000000000000, 0.000000000000000000, -1.000000000000000000 ) ) ;
#496 = CARTESIAN_POINT ( 'NONE',  ( -390.4469890217190482, -14.99999999999999645, 179.3965921979797997 ) ) ;
#497 = ORIENTED_EDGE ( 'NONE', *, *, #904, .F. ) ;
#498 = VERTEX_POINT ( 'NONE', #1034 ) ;
#499 = CC_DESIGN_APPROVAL ( #617, ( #822 ) ) ;
#500 = COORDINATED_UNIVERSAL_TIME_OFFSET ( 5, 30, .AHEAD. ) ;
#501 = CARTESIAN_POINT ( 'NONE',  ( 19.77591903501618731, -34.99999999999999289, 179.5035255881530531 ) ) ;
#502 = CARTESIAN_POINT ( 'NONE',  ( -496.2925764192141855, 34.00000000000000000, 0.000000000000000000 ) ) ;
#503 = ORIENTED_EDGE ( 'NONE', *, *, #1021, .F. ) ;
#504 = VERTEX_POINT ( 'NONE', #780 ) ;
#505 = PERSON_AND_ORGANIZATION ( #1060, #734 ) ;
#506 = VECTOR ( 'NONE', #984, 1000.000000000000000 ) ;
#507 = EDGE_CURVE ( 'NONE', #559, #691, #486, .T. ) ;
#508 = DIRECTION ( 'NONE',  ( 1.000000000000000000, 0.000000000000000000, -0.000000000000000000 ) ) ;
#509 = CARTESIAN_POINT ( 'NONE',  ( -496.2925764192141855, 34.00000000000000000, -235.0000000000000000 ) ) ;
#510 = EDGE_LOOP ( 'NONE', ( #340, #983, #1093, #99 ) ) ;
#511 = VERTEX_POINT ( 'NONE', #538 ) ;
#512 = EDGE_CURVE ( 'NONE', #30, #921, #191, .T. ) ;
#513 = CARTESIAN_POINT ( 'NONE',  ( 0.000000000000000000, 0.000000000000000000, 0.000000000000000000 ) ) ;
#514 = CARTESIAN_POINT ( 'NONE',  ( 89.70742358078578604, 34.00000000000000000, -260.0000000000000000 ) ) ;
#515 = DIRECTION ( 'NONE',  ( 0.000000000000000000, 0.000000000000000000, 1.000000000000000000 ) ) ;
#516 = AXIS2_PLACEMENT_3D ( 'NONE', #425, #751, #678 ) ;
#517 = ORIENTED_EDGE ( 'NONE', *, *, #611, .T. ) ;
#518 = ADVANCED_FACE ( 'NONE', ( #181 ), #809, .T. ) ;
#519 = DIRECTION ( 'NONE',  ( 0.000000000000000000, 0.000000000000000000, 1.000000000000000000 ) ) ;
#520 = EDGE_CURVE ( 'NONE', #267, #1086, #277, .T. ) ;
#521 = CARTESIAN_POINT ( 'NONE',  ( -18.15016872805719217, 0.000000000000000000, 214.5035255881531384 ) ) ;
#522 = CARTESIAN_POINT ( 'NONE',  ( 89.70742358078578604, 34.00000000000000000, -235.0000000000000284 ) ) ;
#523 = ORIENTED_EDGE ( 'NONE', *, *, #117, .T. ) ;
#524 = CIRCLE ( 'NONE', #41, 1.000000000000000888 ) ;
#525 = CARTESIAN_POINT ( 'NONE',  ( -390.4469890217190482, -14.99999999999999645, 179.3965921979797997 ) ) ;
#526 = CARTESIAN_POINT ( 'NONE',  ( 114.7074235807857860, 35.00000000000000000, 318.9999999999999432 ) ) ;
#527 = PLANE ( 'NONE',  #665 ) ;
#528 = ORIENTED_EDGE ( 'NONE', *, *, #353, .T. ) ;
#529 = CARTESIAN_POINT ( 'NONE',  ( -18.15016872805719217, -34.99999999999999289, 179.5035255881530531 ) ) ;
#530 = EDGE_CURVE ( 'NONE', #298, #248, #11, .T. ) ;
#531 = FACE_OUTER_BOUND ( 'NONE', #435, .T. ) ;
#532 = LINE ( 'NONE', #952, #332 ) ;
#533 = ORIENTED_EDGE ( 'NONE', *, *, #644, .F. ) ;
#534 = LINE ( 'NONE', #963, #890 ) ;
#535 = AXIS2_PLACEMENT_3D ( 'NONE', #502, #87, #1096 ) ;
#536 = EDGE_CURVE ( 'NONE', #110, #273, #532, .T. ) ;
#537 = CARTESIAN_POINT ( 'NONE',  ( 114.7074235807857860, 0.000000000000000000, -235.0000000000000000 ) ) ;
#538 = CARTESIAN_POINT ( 'NONE',  ( -472.2925764192141855, 34.00000000000000000, -260.0000000000000000 ) ) ;
#539 = EDGE_LOOP ( 'NONE', ( #752, #367, #841, #441 ) ) ;
#540 = APPROVAL_PERSON_ORGANIZATION ( #584, #139, #683 ) ;
#541 = CARTESIAN_POINT ( 'NONE',  ( 5.423210722851790067, -14.99999999999999645, -175.4964744118461795 ) ) ;
#542 = LINE ( 'NONE', #439, #268 ) ;
#543 = ORIENTED_EDGE ( 'NONE', *, *, #800, .F. ) ;
#544 = EDGE_CURVE ( 'NONE', #144, #308, #873, .T. ) ;
#545 = CARTESIAN_POINT ( 'NONE',  ( -375.8152362590859639, -34.99999999999999289, -175.0943647310704989 ) ) ;
#546 = VECTOR ( 'NONE', #135, 1000.000000000000000 ) ;
#547 = EDGE_CURVE ( 'NONE', #792, #103, #458, .T. ) ;
#548 = LINE ( 'NONE', #985, #862 ) ;
#549 = CARTESIAN_POINT ( 'NONE',  ( -497.2925764192141855, 0.000000000000000000, -235.0000000000000000 ) ) ;
#550 = ORIENTED_EDGE ( 'NONE', *, *, #1076, .F. ) ;
#551 = VECTOR ( 'NONE', #293, 999.9999999999998863 ) ;
#552 = DIRECTION ( 'NONE',  ( -1.000000000000000000, 0.000000000000000000, 0.000000000000000000 ) ) ;
#553 = EDGE_CURVE ( 'NONE', #910, #1004, #548, .T. ) ;
#554 = CARTESIAN_POINT ( 'NONE',  ( 0.000000000000000000, 0.000000000000000000, 214.5035255881531100 ) ) ;
#555 = ORIENTED_EDGE ( 'NONE', *, *, #1021, .T. ) ;
#556 = CARTESIAN_POINT ( 'NONE',  ( 114.7074235807857860, 35.00000000000000000, 319.9999999999999432 ) ) ;
#557 = CARTESIAN_POINT ( 'NONE',  ( -362.2925764192142424, -34.99999999999999289, 179.3965921979798566 ) ) ;
#558 = FACE_OUTER_BOUND ( 'NONE', #589, .T. ) ;
#559 = VERTEX_POINT ( 'NONE', #400 ) ;
#560 = VECTOR ( 'NONE', #205, 1000.000000000000000 ) ;
#561 = ADVANCED_FACE ( 'NONE', ( #42 ), #818, .T. ) ;
#562 = CARTESIAN_POINT ( 'NONE',  ( 114.7074235807857860, 30.00000000000002842, 319.9999999999999432 ) ) ;
#563 = DIRECTION ( 'NONE',  ( -1.000000000000000000, 0.000000000000000000, 0.000000000000000000 ) ) ;
#564 = CARTESIAN_POINT ( 'NONE',  ( -390.4469890217190482, -14.99999999999999645, -175.3707404567839205 ) ) ;
#565 = VERTEX_POINT ( 'NONE', #220 ) ;
#566 = EDGE_CURVE ( 'NONE', #511, #408, #950, .T. ) ;
#567 = VECTOR ( 'NONE', #592, 1000.000000000000114 ) ;
#568 = DIRECTION ( 'NONE',  ( 0.000000000000000000, 1.000000000000000000, 0.000000000000000000 ) ) ;
#569 = VECTOR ( 'NONE', #174, 1000.000000000000000 ) ;
#570 = LINE ( 'NONE', #718, #9 ) ;
#571 = CARTESIAN_POINT ( 'NONE',  ( 89.70742358078578604, 35.00000000000000000, -235.0000000000000284 ) ) ;
#572 = ORIENTED_EDGE ( 'NONE', *, *, #530, .T. ) ;
#573 = PERSON_AND_ORGANIZATION_ROLE ( 'creator' ) ;
#574 = VECTOR ( 'NONE', #563, 1000.000000000000000 ) ;
#575 = LINE ( 'NONE', #330, #748 ) ;
#576 = CARTESIAN_POINT ( 'NONE',  ( 5.423210722851790067, -14.99999999999999645, 179.5035255881530531 ) ) ;
#577 = VERTEX_POINT ( 'NONE', #300 ) ;
#578 =( BOUNDED_CURVE ( )  B_SPLINE_CURVE ( 3, ( #996, #844, #599, #415 ),
 .UNSPECIFIED., .F., .F. ) 
 B_SPLINE_CURVE_WITH_KNOTS ( ( 4, 4 ),
 ( 3.141592653589793116, 4.712388980384689674 ),
 .UNSPECIFIED. ) 
 CURVE ( )  GEOMETRIC_REPRESENTATION_ITEM ( )  RATIONAL_B_SPLINE_CURVE ( ( 1.000000000000000000, 0.8047378541243649375, 0.8047378541243649375, 1.000000000000000000 ) ) 
 REPRESENTATION_ITEM ( '' )  );
#579 = ORIENTED_EDGE ( 'NONE', *, *, #947, .F. ) ;
#580 = LINE ( 'NONE', #762, #709 ) ;
#581 = CARTESIAN_POINT ( 'NONE',  ( 0.000000000000000000, 0.000000000000000000, 214.3965921979798281 ) ) ;
#582 = ORIENTED_EDGE ( 'NONE', *, *, #566, .T. ) ;
#583 = EDGE_LOOP ( 'NONE', ( #543, #459, #241, #1055, #1015, #347 ) ) ;
#584 = PERSON_AND_ORGANIZATION ( #1060, #734 ) ;
#585 = VECTOR ( 'NONE', #48, 1000.000000000000000 ) ;
#586 = AXIS2_PLACEMENT_3D ( 'NONE', #571, #1002, #915 ) ;
#587 = DIRECTION ( 'NONE',  ( 0.000000000000000000, 0.000000000000000000, 1.000000000000000000 ) ) ;
#588 = CARTESIAN_POINT ( 'NONE',  ( -6.769916579342449836, -34.99999999999999289, -175.4964744118461795 ) ) ;
#589 = EDGE_LOOP ( 'NONE', ( #827, #66, #669, #1059 ) ) ;
#590 = ORIENTED_EDGE ( 'NONE', *, *, #722, .T. ) ;
#591 =( GEOMETRIC_REPRESENTATION_CONTEXT ( 3 ) GLOBAL_UNCERTAINTY_ASSIGNED_CONTEXT ( ( #632 ) ) GLOBAL_UNIT_ASSIGNED_CONTEXT ( ( #896, #145, #40 ) ) REPRESENTATION_CONTEXT ( 'NONE', 'WORKASPACE' ) );
#592 = DIRECTION ( 'NONE',  ( 0.000000000000000000, -0.7071067811865474617, 0.7071067811865474617 ) ) ;
#593 = CARTESIAN_POINT ( 'NONE',  ( -375.8152362590859639, -14.99999999999999645, 179.3965921979798281 ) ) ;
#594 = ORIENTED_EDGE ( 'NONE', *, *, #202, .T. ) ;
#595 = EDGE_LOOP ( 'NONE', ( #738, #168, #65, #610 ) ) ;
#596 = CALENDAR_DATE ( 2026, 14, 8 ) ;
#597 = EDGE_CURVE ( 'NONE', #151, #475, #487, .T. ) ;
#598 = VECTOR ( 'NONE', #990, 1000.000000000000000 ) ;
#599 = CARTESIAN_POINT ( 'NONE',  ( -496.8783628568410791, 35.00000000000000000, 319.5857864376268935 ) ) ;
#600 = LINE ( 'NONE', #685, #1051 ) ;
#601 = ORIENTED_EDGE ( 'NONE', *, *, #1036, .T. ) ;
#602 = CARTESIAN_POINT ( 'NONE',  ( -390.4469890217190482, -34.99999999999999289, -175.3707404567839205 ) ) ;
#603 = LINE ( 'NONE', #24, #651 ) ;
#604 = CARTESIAN_POINT ( 'NONE',  ( -472.2925764192141855, 34.00000000000000000, -235.0000000000000000 ) ) ;
#605 = AXIS2_PLACEMENT_3D ( 'NONE', #931, #75, #756 ) ;
#606 = VERTEX_POINT ( 'NONE', #232 ) ;
#607 = DIRECTION ( 'NONE',  ( 0.000000000000000000, 0.000000000000000000, 1.000000000000000000 ) ) ;
#608 = DIRECTION ( 'NONE',  ( 0.000000000000000000, 0.7071067811865474617, 0.7071067811865474617 ) ) ;
#609 = DIRECTION ( 'NONE',  ( -0.000000000000000000, -0.000000000000000000, 1.000000000000000000 ) ) ;
#610 = ORIENTED_EDGE ( 'NONE', *, *, #256, .F. ) ;
#611 = EDGE_CURVE ( 'NONE', #493, #16, #47, .T. ) ;
#612 = DIRECTION ( 'NONE',  ( -1.000000000000000000, 0.000000000000000000, -0.000000000000000000 ) ) ;
#613 = APPLICATION_CONTEXT ( 'configuration controlled 3d designs of mechanical parts and assemblies' ) ;
#614 = LINE ( 'NONE', #291, #177 ) ;
#615 = DIRECTION ( 'NONE',  ( -0.000000000000000000, -0.000000000000000000, 1.000000000000000000 ) ) ;
#616 = ORIENTED_EDGE ( 'NONE', *, *, #597, .T. ) ;
#617 = APPROVAL ( #913, 'UNSPECIFIED' ) ;
#618 = LINE ( 'NONE', #860, #739 ) ;
#619 = DIRECTION ( 'NONE',  ( 1.000000000000000000, 0.000000000000000000, 0.000000000000000000 ) ) ;
#620 = CARTESIAN_POINT ( 'NONE',  ( -6.769916579342449836, -14.99999999999999645, 179.5035255881530531 ) ) ;
#621 = VERTEX_POINT ( 'NONE', #557 ) ;
#622 = DIRECTION ( 'NONE',  ( -1.000000000000000000, -0.000000000000000000, -0.000000000000000000 ) ) ;
#623 = AXIS2_PLACEMENT_3D ( 'NONE', #509, #757, #488 ) ;
#624 = EDGE_CURVE ( 'NONE', #161, #973, #637, .T. ) ;
#625 = CARTESIAN_POINT ( 'NONE',  ( -497.2925764192141855, 35.00000000000000000, -259.0000000000000000 ) ) ;
#626 = ORIENTED_EDGE ( 'NONE', *, *, #89, .T. ) ;
#627 = EDGE_CURVE ( 'NONE', #708, #565, #570, .T. ) ;
#628 = LINE ( 'NONE', #307, #448 ) ;
#629 = VECTOR ( 'NONE', #724, 1000.000000000000000 ) ;
#630 = DIRECTION ( 'NONE',  ( -0.000000000000000000, -0.000000000000000000, 1.000000000000000000 ) ) ;
#631 = EDGE_CURVE ( 'NONE', #621, #1023, #52, .T. ) ;
#632 = UNCERTAINTY_MEASURE_WITH_UNIT (LENGTH_MEASURE( 1.000000000000000082E-05 ), #896, 'distance_accuracy_value', 'NONE');
#633 = CARTESIAN_POINT ( 'NONE',  ( -390.4469890217190482, -14.99999999999999645, 179.3965921979797997 ) ) ;
#634 = ORIENTED_EDGE ( 'NONE', *, *, #922, .F. ) ;
#635 = ADVANCED_FACE ( 'NONE', ( #395 ), #1079, .F. ) ;
#636 = DIRECTION ( 'NONE',  ( -0.000000000000000000, -0.7071067811865474617, -0.7071067811865474617 ) ) ;
#637 = LINE ( 'NONE', #136, #968 ) ;
#638 = CARTESIAN_POINT ( 'NONE',  ( -497.2925764192141855, 35.00000000000000000, -235.0000000000000000 ) ) ;
#639 = EDGE_LOOP ( 'NONE', ( #550, #218, #22, #82, #163, #808 ) ) ;
#640 = EDGE_CURVE ( 'NONE', #1086, #834, #648, .T. ) ;
#641 = VECTOR ( 'NONE', #737, 1000.000000000000000 ) ;
#642 = CARTESIAN_POINT ( 'NONE',  ( -6.769916579342449836, -14.99999999999999645, 179.5035255881530531 ) ) ;
#643 = DIRECTION ( 'NONE',  ( 0.000000000000000000, -1.000000000000000000, 0.000000000000000000 ) ) ;
#644 = EDGE_CURVE ( 'NONE', #910, #661, #405, .T. ) ;
#645 = EDGE_LOOP ( 'NONE', ( #292, #313, #828, #79, #634, #175 ) ) ;
#646 = PRODUCT_DEFINITION_FORMATION_WITH_SPECIFIED_SOURCE ( 'ANY', '', #172, .NOT_KNOWN. ) ;
#647 = CARTESIAN_POINT ( 'NONE',  ( -497.2925764192141855, 35.00000000000000000, 319.9999999999999432 ) ) ;
#648 = LINE ( 'NONE', #731, #1000 ) ;
#649 = LINE ( 'NONE', #564, #72 ) ;
#650 = ADVANCED_FACE ( 'NONE', ( #893 ), #1085, .T. ) ;
#651 = VECTOR ( 'NONE', #944, 1000.000000000000000 ) ;
#652 = DIRECTION ( 'NONE',  ( 1.000000000000000000, 0.000000000000000000, 0.000000000000000000 ) ) ;
#653 = FACE_OUTER_BOUND ( 'NONE', #805, .T. ) ;
#654 = LINE ( 'NONE', #588, #906 ) ;
#655 = ORIENTED_EDGE ( 'NONE', *, *, #235, .T. ) ;
#656 = VECTOR ( 'NONE', #672, 1000.000000000000000 ) ;
#657 = APPROVAL_STATUS ( 'not_yet_approved' ) ;
#658 = ADVANCED_FACE ( 'NONE', ( #1074 ), #318, .F. ) ;
#659 = CARTESIAN_POINT ( 'NONE',  ( 19.77591903501618731, 0.000000000000000000, 214.5035255881530247 ) ) ;
#660 = CARTESIAN_POINT ( 'NONE',  ( 3.172098992667922612, -34.99999999999999289, -167.9357623738815732 ) ) ;
#661 = VERTEX_POINT ( 'NONE', #659 ) ;
#662 = EDGE_CURVE ( 'NONE', #60, #758, #390, .T. ) ;
#663 = VERTEX_POINT ( 'NONE', #888 ) ;
#664 = PRODUCT_RELATED_PRODUCT_CATEGORY ( 'detail', '', ( #172 ) ) ;
#665 = AXIS2_PLACEMENT_3D ( 'NONE', #102, #360, #440 ) ;
#666 = DIRECTION ( 'NONE',  ( -1.000000000000000000, -0.000000000000000000, -0.000000000000000000 ) ) ;
#667 = CARTESIAN_POINT ( 'NONE',  ( -390.4469890217190482, -14.99999999999999645, 179.3965921979797997 ) ) ;
#668 = ORIENTED_EDGE ( 'NONE', *, *, #823, .F. ) ;
#669 = ORIENTED_EDGE ( 'NONE', *, *, #39, .T. ) ;
#670 = ADVANCED_FACE ( 'NONE', ( #653 ), #306, .F. ) ;
#671 = COORDINATED_UNIVERSAL_TIME_OFFSET ( 5, 30, .AHEAD. ) ;
#672 = DIRECTION ( 'NONE',  ( -0.000000000000000000, 1.000000000000000000, -0.000000000000000000 ) ) ;
#673 = DIRECTION ( 'NONE',  ( 1.000000000000000000, -0.000000000000000000, 0.000000000000000000 ) ) ;
#674 = EDGE_LOOP ( 'NONE', ( #357, #858, #1088, #1100 ) ) ;
#675 = ORIENTED_EDGE ( 'NONE', *, *, #979, .T. ) ;
#676 = DATE_TIME_ROLE ( 'creation_date' ) ;
#677 = AXIS2_PLACEMENT_3D ( 'NONE', #522, #272, #699 ) ;
#678 = DIRECTION ( 'NONE',  ( -1.000000000000000000, 0.000000000000000000, -0.000000000000000000 ) ) ;
#679 = DIRECTION ( 'NONE',  ( 1.000000000000000000, 0.000000000000000000, 1.896941266429254820E-15 ) ) ;
#680 = ORIENTED_EDGE ( 'NONE', *, *, #158, .F. ) ;
#681 = ORIENTED_EDGE ( 'NONE', *, *, #465, .F. ) ;
#682 = LOCAL_TIME ( 9, 59, 45.00000000000000000, #264 ) ;
#683 = APPROVAL_ROLE ( '' ) ;
#684 = FACE_OUTER_BOUND ( 'NONE', #1024, .T. ) ;
#685 = CARTESIAN_POINT ( 'NONE',  ( -402.2925764192142424, -34.99999999999999289, 179.3965921979798566 ) ) ;
#686 = ORIENTED_EDGE ( 'NONE', *, *, #1083, .T. ) ;
#687 = EDGE_CURVE ( 'NONE', #504, #565, #578, .T. ) ;
#688 = VERTEX_POINT ( 'NONE', #851 ) ;
#689 = CARTESIAN_POINT ( 'NONE',  ( -402.2925764192142424, -38.82936323329013817, -171.7644426594544029 ) ) ;
#690 = DIRECTION ( 'NONE',  ( -0.000000000000000000, -0.000000000000000000, -1.000000000000000000 ) ) ;
#691 = VERTEX_POINT ( 'NONE', #514 ) ;
#692 = DIRECTION ( 'NONE',  ( -0.000000000000000000, 0.000000000000000000, -1.000000000000000000 ) ) ;
#693 = LINE ( 'NONE', #365, #703 ) ;
#694 = DIRECTION ( 'NONE',  ( 0.000000000000000000, 1.000000000000000000, 0.000000000000000000 ) ) ;
#695 = EDGE_LOOP ( 'NONE', ( #169, #334, #572, #655 ) ) ;
#696 = AXIS2_PLACEMENT_3D ( 'NONE', #464, #643, #137 ) ;
#697 = PLANE ( 'NONE',  #1007 ) ;
#698 = LINE ( 'NONE', #359, #740 ) ;
#699 = DIRECTION ( 'NONE',  ( 0.000000000000000000, 0.000000000000000000, 1.000000000000000000 ) ) ;
#700 = ORIENTED_EDGE ( 'NONE', *, *, #741, .T. ) ;
#701 = DIRECTION ( 'NONE',  ( 0.9998216550178951056, 0.000000000000000000, 0.01888539534342284498 ) ) ;
#702 = DIRECTION ( 'NONE',  ( -0.000000000000000000, -0.7071067811865475727, -0.7071067811865475727 ) ) ;
#703 = VECTOR ( 'NONE', #872, 1000.000000000000000 ) ;
#704 = EDGE_LOOP ( 'NONE', ( #7, #533, #418, #247, #302, #326 ) ) ;
#705 = DIRECTION ( 'NONE',  ( -1.000000000000000000, 0.000000000000000000, 0.000000000000000000 ) ) ;
#706 = EDGE_CURVE ( 'NONE', #412, #606, #265, .T. ) ;
#707 = LINE ( 'NONE', #625, #404 ) ;
#708 = VERTEX_POINT ( 'NONE', #180 ) ;
#709 = VECTOR ( 'NONE', #666, 1000.000000000000000 ) ;
#710 = FACE_OUTER_BOUND ( 'NONE', #891, .T. ) ;
#711 = EDGE_CURVE ( 'NONE', #273, #1023, #838, .T. ) ;
#712 = CARTESIAN_POINT ( 'NONE',  ( -497.2925764192141855, 0.000000000000000000, 289.9999999999999432 ) ) ;
#713 = ORIENTED_EDGE ( 'NONE', *, *, #761, .T. ) ;
#714 = CARTESIAN_POINT ( 'NONE',  ( 89.70742358078578604, 0.000000000000000000, -260.0000000000000000 ) ) ;
#715 = ORIENTED_EDGE ( 'NONE', *, *, #520, .T. ) ;
#716 = VECTOR ( 'NONE', #445, 1000.000000000000000 ) ;
#717 = CARTESIAN_POINT ( 'NONE',  ( -18.15016872805719217, 0.000000000000000000, -210.4964744118461795 ) ) ;
#718 = CARTESIAN_POINT ( 'NONE',  ( -496.2925764192141855, 35.00000000000000000, 319.9999999999999432 ) ) ;
#719 = LINE ( 'NONE', #53, #214 ) ;
#720 = ORIENTED_EDGE ( 'NONE', *, *, #644, .T. ) ;
#721 = CARTESIAN_POINT ( 'NONE',  ( 114.7074235807857860, 30.00000000000002842, 319.9999999999999432 ) ) ;
#722 = EDGE_CURVE ( 'NONE', #921, #1035, #575, .T. ) ;
#723 = VECTOR ( 'NONE', #701, 999.9999999999998863 ) ;
#724 = DIRECTION ( 'NONE',  ( -1.000000000000000000, 0.000000000000000000, 0.000000000000000000 ) ) ;
#725 = DIRECTION ( 'NONE',  ( 0.000000000000000000, 0.000000000000000000, -1.000000000000000000 ) ) ;
#726 = ORIENTED_EDGE ( 'NONE', *, *, #971, .T. ) ;
#727 = VECTOR ( 'NONE', #882, 999.9999999999998863 ) ;
#728 = AXIS2_PLACEMENT_3D ( 'NONE', #604, #694, #515 ) ;
#729 = CARTESIAN_POINT ( 'NONE',  ( 114.7074235807857860, 30.00000000000002842, 319.9999999999999432 ) ) ;
#730 = ADVANCED_FACE ( 'NONE', ( #684 ), #1095, .F. ) ;
#731 = CARTESIAN_POINT ( 'NONE',  ( -497.2925764192141855, 30.00000000000002842, 319.9999999999999432 ) ) ;
#732 = CYLINDRICAL_SURFACE ( 'NONE', #696, 25.00000000000002132 ) ;
#733 = ORIENTED_EDGE ( 'NONE', *, *, #741, .F. ) ;
#734 = ORGANIZATION ( 'UNSPECIFIED', 'UNSPECIFIED', '' ) ;
#735 = CARTESIAN_POINT ( 'NONE',  ( -18.15016872805719217, -34.99999999999999289, 179.5035255881531384 ) ) ;
#736 = CARTESIAN_POINT ( 'NONE',  ( 0.000000000000000000, -34.99999999999999289, 179.5035255881531384 ) ) ;
#737 = DIRECTION ( 'NONE',  ( -1.000000000000000000, 0.000000000000000000, 0.000000000000000000 ) ) ;
#738 = ORIENTED_EDGE ( 'NONE', *, *, #640, .F. ) ;
#739 = VECTOR ( 'NONE', #379, 1000.000000000000000 ) ;
#740 = VECTOR ( 'NONE', #801, 1000.000000000000000 ) ;
#741 = EDGE_CURVE ( 'NONE', #328, #504, #580, .T. ) ;
#742 = PERSON_AND_ORGANIZATION_ROLE ( 'design_owner' ) ;
#743 = ADVANCED_FACE ( 'NONE', ( #914 ), #433, .F. ) ;
#744 = DIRECTION ( 'NONE',  ( 0.000000000000000000, 0.000000000000000000, -1.000000000000000000 ) ) ;
#745 = FACE_OUTER_BOUND ( 'NONE', #345, .T. ) ;
#746 = ORIENTED_EDGE ( 'NONE', *, *, #624, .F. ) ;
#747 = ORIENTED_EDGE ( 'NONE', *, *, #45, .F. ) ;
#748 = VECTOR ( 'NONE', #69, 1000.000000000000000 ) ;
#749 = EDGE_CURVE ( 'NONE', #187, #388, #1020, .T. ) ;
#750 = PERSON_AND_ORGANIZATION ( #1060, #734 ) ;
#751 = DIRECTION ( 'NONE',  ( 0.000000000000000000, 0.000000000000000000, -1.000000000000000000 ) ) ;
#752 = ORIENTED_EDGE ( 'NONE', *, *, #949, .T. ) ;
#753 = ADVANCED_FACE ( 'NONE', ( #86 ), #410, .F. ) ;
#754 = ORIENTED_EDGE ( 'NONE', *, *, #687, .T. ) ;
#755 = DIRECTION ( 'NONE',  ( 0.000000000000000000, 0.000000000000000000, 1.000000000000000000 ) ) ;
#756 = DIRECTION ( 'NONE',  ( 0.000000000000000000, 0.000000000000000000, 1.000000000000000000 ) ) ;
#757 = DIRECTION ( 'NONE',  ( 0.000000000000000000, -0.000000000000000000, 1.000000000000000000 ) ) ;
#758 = VERTEX_POINT ( 'NONE', #774 ) ;
#759 = ORIENTED_EDGE ( 'NONE', *, *, #170, .T. ) ;
#760 = APPROVAL_DATE_TIME ( #236, #456 ) ;
#761 = EDGE_CURVE ( 'NONE', #60, #772, #770, .T. ) ;
#762 = CARTESIAN_POINT ( 'NONE',  ( -497.2925764192141855, 34.00000000000000000, 319.9999999999999432 ) ) ;
#763 = FACE_OUTER_BOUND ( 'NONE', #222, .T. ) ;
#764 = ORIENTED_EDGE ( 'NONE', *, *, #158, .T. ) ;
#765 = VERTEX_POINT ( 'NONE', #259 ) ;
#766 = DATE_AND_TIME ( #244, #349 ) ;
#767 = VECTOR ( 'NONE', #587, 1000.000000000000000 ) ;
#768 = AXIS2_PLACEMENT_3D ( 'NONE', #496, #76, #679 ) ;
#769 = CC_DESIGN_PERSON_AND_ORGANIZATION_ASSIGNMENT ( #750, #573, ( #646 ) ) ;
#770 = LINE ( 'NONE', #237, #767 ) ;
#771 = LINE ( 'NONE', #961, #875 ) ;
#772 = VERTEX_POINT ( 'NONE', #501 ) ;
#773 = ORIENTED_EDGE ( 'NONE', *, *, #547, .T. ) ;
#774 = CARTESIAN_POINT ( 'NONE',  ( 19.77591903501618731, 0.000000000000000000, -210.4964744118461795 ) ) ;
#775 = CARTESIAN_POINT ( 'NONE',  ( 89.70742358078578604, 34.00000000000000000, -259.0000000000000000 ) ) ;
#776 = ORIENTED_EDGE ( 'NONE', *, *, #414, .F. ) ;
#777 = CARTESIAN_POINT ( 'NONE',  ( 0.000000000000000000, -34.99999999999999289, 0.000000000000000000 ) ) ;
#778 = EDGE_CURVE ( 'NONE', #475, #511, #154, .T. ) ;
#779 = CARTESIAN_POINT ( 'NONE',  ( 19.77591903501618731, -34.99999999999999289, 179.5035255881531384 ) ) ;
#780 = CARTESIAN_POINT ( 'NONE',  ( -497.2925764192141855, 34.00000000000000000, 319.9999999999999432 ) ) ;
#781 = ORIENTED_EDGE ( 'NONE', *, *, #800, .T. ) ;
#782 = DIRECTION ( 'NONE',  ( 0.000000000000000000, -0.000000000000000000, -1.000000000000000000 ) ) ;
#783 = CARTESIAN_POINT ( 'NONE',  ( 89.70742358078578604, 35.00000000000000000, -235.0000000000000284 ) ) ;
#784 = DIRECTION ( 'NONE',  ( 0.000000000000000000, 0.7071067811865474617, 0.7071067811865474617 ) ) ;
#785 = VERTEX_POINT ( 'NONE', #251 ) ;
#786 = VECTOR ( 'NONE', #972, 1000.000000000000000 ) ;
#787 = CARTESIAN_POINT ( 'NONE',  ( 114.7074235807857860, 35.00000000000000000, -235.0000000000000000 ) ) ;
#788 = ADVANCED_FACE ( 'NONE', ( #491 ), #832, .F. ) ;
#789 = CC_DESIGN_SECURITY_CLASSIFICATION ( #822, ( #646 ) ) ;
#790 = CARTESIAN_POINT ( 'NONE',  ( -402.2925764192142424, -34.99999999999999289, -225.6034078020198308 ) ) ;
#791 = DIRECTION ( 'NONE',  ( 0.000000000000000000, 0.000000000000000000, 1.000000000000000000 ) ) ;
#792 = VERTEX_POINT ( 'NONE', #159 ) ;
#793 = DESIGN_CONTEXT ( 'detailed design', #1072, 'design' ) ;
#794 = LINE ( 'NONE', #958, #723 ) ;
#795 = DIRECTION ( 'NONE',  ( -0.000000000000000000, -1.000000000000000000, -0.000000000000000000 ) ) ;
#796 = AXIS2_PLACEMENT_3D ( 'NONE', #525, #1030, #1047 ) ;
#797 = AXIS2_PLACEMENT_3D ( 'NONE', #783, #795, #883 ) ;
#798 = ORIENTED_EDGE ( 'NONE', *, *, #544, .F. ) ;
#799 = CYLINDRICAL_SURFACE ( 'NONE', #919, 1.000000000000000888 ) ;
#800 = EDGE_CURVE ( 'NONE', #1004, #921, #1090, .T. ) ;
#801 = DIRECTION ( 'NONE',  ( 0.000000000000000000, 0.000000000000000000, -1.000000000000000000 ) ) ;
#802 = ORIENTED_EDGE ( 'NONE', *, *, #179, .T. ) ;
#803 = AXIS2_PLACEMENT_3D ( 'NONE', #337, #925, #451 ) ;
#804 = DIRECTION ( 'NONE',  ( 0.9998216550178951056, 0.000000000000000000, 0.01888539534342267845 ) ) ;
#805 = EDGE_LOOP ( 'NONE', ( #899, #333, #917, #601 ) ) ;
#806 = CARTESIAN_POINT ( 'NONE',  ( -390.4469890217190482, -34.99999999999999289, 179.3965921979797997 ) ) ;
#807 = CARTESIAN_POINT ( 'NONE',  ( 114.2932100184127080, 35.00000000000000000, 319.5857864376268935 ) ) ;
#808 = ORIENTED_EDGE ( 'NONE', *, *, #631, .F. ) ;
#809 = TOROIDAL_SURFACE ( 'NONE', #96, 24.00000000000000000, 1.000000000000000000 ) ;
#810 = DIRECTION ( 'NONE',  ( 0.000000000000000000, 0.000000000000000000, -1.000000000000000000 ) ) ;
#811 = LINE ( 'NONE', #211, #106 ) ;
#812 = ORIENTED_EDGE ( 'NONE', *, *, #989, .T. ) ;
#813 = CARTESIAN_POINT ( 'NONE',  ( 5.423210722851790067, -34.99999999999999289, 179.5035255881530531 ) ) ;
#814 = CARTESIAN_POINT ( 'NONE',  ( 19.77591903501618731, -34.99999999999999289, -175.4964744118461795 ) ) ;
#815 = CARTESIAN_POINT ( 'NONE',  ( 114.7074235807857860, 34.00000000000000000, 319.9999999999999432 ) ) ;
#816 = AXIS2_PLACEMENT_3D ( 'NONE', #576, #673, #81 ) ;
#817 = FACE_BOUND ( 'NONE', #1, .T. ) ;
#818 = CYLINDRICAL_SURFACE ( 'NONE', #189, 1.000000000000000888 ) ;
#819 = LINE ( 'NONE', #383, #786 ) ;
#820 = EDGE_CURVE ( 'NONE', #708, #408, #91, .T. ) ;
#821 = EDGE_LOOP ( 'NONE', ( #528, #747, #114, #479 ) ) ;
#822 = SECURITY_CLASSIFICATION ( '', '', #1012 ) ;
#823 = EDGE_CURVE ( 'NONE', #151, #946, #34, .T. ) ;
#824 = FACE_OUTER_BOUND ( 'NONE', #595, .T. ) ;
#825 = CARTESIAN_POINT ( 'NONE',  ( -6.769916579342449836, -14.99999999999999645, 179.5035255881530531 ) ) ;
#826 = DIRECTION ( 'NONE',  ( -0.000000000000000000, -1.000000000000000000, -0.000000000000000000 ) ) ;
#827 = ORIENTED_EDGE ( 'NONE', *, *, #761, .F. ) ;
#828 = ORIENTED_EDGE ( 'NONE', *, *, #597, .F. ) ;
#829 = ADVANCED_FACE ( 'NONE', ( #1033 ), #376, .T. ) ;
#830 = APPLICATION_PROTOCOL_DEFINITION ( 'international standard', 'config_control_design', 1994, #613 ) ;
#831 = EDGE_CURVE ( 'NONE', #511, #691, #271, .T. ) ;
#832 = PLANE ( 'NONE',  #427 ) ;
#833 = DIRECTION ( 'NONE',  ( 1.000000000000000000, 0.000000000000000000, 0.000000000000000000 ) ) ;
#834 = VERTEX_POINT ( 'NONE', #879 ) ;
#835 = PLANE ( 'NONE',  #796 ) ;
#836 = VECTOR ( 'NONE', #804, 999.9999999999998863 ) ;
#837 = EDGE_CURVE ( 'NONE', #973, #248, #284, .T. ) ;
#838 = LINE ( 'NONE', #918, #1048 ) ;
#839 = CARTESIAN_POINT ( 'NONE',  ( -402.2925764192142424, -34.99999999999999289, 179.3965921979797713 ) ) ;
#840 = ORIENTED_EDGE ( 'NONE', *, *, #908, .F. ) ;
#841 = ORIENTED_EDGE ( 'NONE', *, *, #179, .F. ) ;
#842 = ADVANCED_FACE ( 'NONE', ( #960 ), #14, .T. ) ;
#843 = APPROVAL_DATE_TIME ( #850, #139 ) ;
#844 = CARTESIAN_POINT ( 'NONE',  ( -497.2925764192141855, 34.58578643762690774, 319.9999999999999432 ) ) ;
#845 = DIRECTION ( 'NONE',  ( 0.000000000000000000, -0.000000000000000000, -1.000000000000000000 ) ) ;
#846 = ORIENTED_EDGE ( 'NONE', *, *, #778, .T. ) ;
#847 = FACE_OUTER_BOUND ( 'NONE', #1045, .T. ) ;
#848 = AXIS2_PLACEMENT_3D ( 'NONE', #213, #552, #219 ) ;
#849 = CC_DESIGN_PERSON_AND_ORGANIZATION_ASSIGNMENT ( #505, #930, ( #342 ) ) ;
#850 = DATE_AND_TIME ( #995, #878 ) ;
#851 = CARTESIAN_POINT ( 'NONE',  ( 5.423210722851790067, -34.99999999999999289, 179.5035255881531384 ) ) ;
#852 = PLANE ( 'NONE',  #816 ) ;
#853 = EDGE_LOOP ( 'NONE', ( #484, #413, #1082, #6 ) ) ;
#854 = ORIENTED_EDGE ( 'NONE', *, *, #861, .T. ) ;
#855 = AXIS2_PLACEMENT_3D ( 'NONE', #736, #901, #324 ) ;
#856 = DIRECTION ( 'NONE',  ( 0.000000000000000000, -0.000000000000000000, 1.000000000000000000 ) ) ;
#857 = CARTESIAN_POINT ( 'NONE',  ( -497.2925764192141855, 0.000000000000000000, 319.9999999999999432 ) ) ;
#858 = ORIENTED_EDGE ( 'NONE', *, *, #230, .T. ) ;
#859 = EDGE_CURVE ( 'NONE', #298, #161, #199, .T. ) ;
#860 = CARTESIAN_POINT ( 'NONE',  ( 113.7074235807857860, 35.00000000000000000, -260.0000000000000000 ) ) ;
#861 = EDGE_CURVE ( 'NONE', #16, #1035, #698, .T. ) ;
#862 = VECTOR ( 'NONE', #210, 1000.000000000000000 ) ;
#863 = LINE ( 'NONE', #779, #375 ) ;
#864 = CARTESIAN_POINT ( 'NONE',  ( -18.15016872805719217, -34.99999999999999289, 179.5035255881531384 ) ) ;
#865 = ORIENTED_EDGE ( 'NONE', *, *, #19, .F. ) ;
#866 = DIRECTION ( 'NONE',  ( 0.000000000000000000, 0.000000000000000000, -1.000000000000000000 ) ) ;
#867 = DIRECTION ( 'NONE',  ( -1.000000000000000000, -0.000000000000000000, -1.896941266429254820E-15 ) ) ;
#868 = DIRECTION ( 'NONE',  ( 1.000000000000000000, 0.000000000000000000, 0.000000000000000000 ) ) ;
#869 = EDGE_LOOP ( 'NONE', ( #840, #1092, #865, #764 ) ) ;
#870 = EDGE_CURVE ( 'NONE', #559, #408, #707, .T. ) ;
#871 = LINE ( 'NONE', #188, #394 ) ;
#872 = DIRECTION ( 'NONE',  ( 0.000000000000000000, -1.000000000000000000, 0.000000000000000000 ) ) ;
#873 = LINE ( 'NONE', #109, #436 ) ;
#874 = ORIENTED_EDGE ( 'NONE', *, *, #89, .F. ) ;
#875 = VECTOR ( 'NONE', #5, 1000.000000000000000 ) ;
#876 = DIRECTION ( 'NONE',  ( -0.000000000000000000, -1.000000000000000000, -0.000000000000000000 ) ) ;
#877 = EDGE_CURVE ( 'NONE', #758, #1004, #603, .T. ) ;
#878 = LOCAL_TIME ( 9, 59, 45.00000000000000000, #500 ) ;
#879 = CARTESIAN_POINT ( 'NONE',  ( -497.2925764192141855, 30.00000000000002842, 319.9999999999999432 ) ) ;
#880 = DIRECTION ( 'NONE',  ( -1.000000000000000000, 0.000000000000000000, 0.000000000000000000 ) ) ;
#881 = ORIENTED_EDGE ( 'NONE', *, *, #512, .T. ) ;
#882 = DIRECTION ( 'NONE',  ( -0.9998216550178951056, 0.000000000000000000, -0.01888539534342267845 ) ) ;
#883 = DIRECTION ( 'NONE',  ( 1.734723475976807686E-15, 0.000000000000000000, 1.000000000000000000 ) ) ;
#884 = AXIS2_PLACEMENT_3D ( 'NONE', #721, #900, #485 ) ;
#885 = ORIENTED_EDGE ( 'NONE', *, *, #536, .F. ) ;
#886 = DIRECTION ( 'NONE',  ( -0.000000000000000000, -1.000000000000000000, -0.000000000000000000 ) ) ;
#887 = CARTESIAN_POINT ( 'NONE',  ( -362.2925764192142424, -34.99999999999999289, 179.3965921979798566 ) ) ;
#888 = CARTESIAN_POINT ( 'NONE',  ( 113.7074235807857860, 35.00000000000000000, -235.0000000000000284 ) ) ;
#889 = DIRECTION ( 'NONE',  ( 1.000000000000000000, -0.000000000000000000, 0.000000000000000000 ) ) ;
#890 = VECTOR ( 'NONE', #519, 1000.000000000000000 ) ;
#891 = EDGE_LOOP ( 'NONE', ( #594, #196, #715, #192, #503 ) ) ;
#892 = MANIFOLD_SOLID_BREP ( 'Cut-Extrude1', #176 ) ;
#893 = FACE_OUTER_BOUND ( 'NONE', #704, .T. ) ;
#894 = CARTESIAN_POINT ( 'NONE',  ( -18.15016872805719217, -34.99999999999999289, 179.5035255881531384 ) ) ;
#895 = ORIENTED_EDGE ( 'NONE', *, *, #45, .T. ) ;
#896 =( LENGTH_UNIT ( ) NAMED_UNIT ( * ) SI_UNIT ( .MILLI., .METRE. ) );
#897 = CARTESIAN_POINT ( 'NONE',  ( -390.4469890217190482, -14.99999999999999645, -175.3707404567839205 ) ) ;
#898 = DIRECTION ( 'NONE',  ( 0.000000000000000000, 0.000000000000000000, -1.000000000000000000 ) ) ;
#899 = ORIENTED_EDGE ( 'NONE', *, *, #364, .T. ) ;
#900 = DIRECTION ( 'NONE',  ( 0.000000000000000000, 0.7071067811865475727, -0.7071067811865475727 ) ) ;
#901 = DIRECTION ( 'NONE',  ( 0.000000000000000000, -0.7071067811865475727, 0.7071067811865475727 ) ) ;
#902 = DIRECTION ( 'NONE',  ( -0.000000000000000000, -1.000000000000000000, 0.000000000000000000 ) ) ;
#903 = EDGE_LOOP ( 'NONE', ( #993, #392, #940, #382 ) ) ;
#904 = EDGE_CURVE ( 'NONE', #498, #1035, #194, .T. ) ;
#905 = VECTOR ( 'NONE', #311, 1000.000000000000114 ) ;
#906 = VECTOR ( 'NONE', #833, 1000.000000000000000 ) ;
#907 = DIRECTION ( 'NONE',  ( 0.000000000000000000, -0.000000000000000000, 1.000000000000000000 ) ) ;
#908 = EDGE_CURVE ( 'NONE', #446, #328, #1049, .T. ) ;
#909 = CARTESIAN_POINT ( 'NONE',  ( -6.769916579342449836, -34.99999999999999289, 179.5035255881530531 ) ) ;
#910 = VERTEX_POINT ( 'NONE', #521 ) ;
#911 = EDGE_LOOP ( 'NONE', ( #555, #1097, #998, #700 ) ) ;
#912 = AXIS2_PLACEMENT_3D ( 'NONE', #775, #939, #366 ) ;
#913 = APPROVAL_STATUS ( 'not_yet_approved' ) ;
#914 = FACE_OUTER_BOUND ( 'NONE', #674, .T. ) ;
#915 = DIRECTION ( 'NONE',  ( 0.000000000000000000, 0.000000000000000000, -1.000000000000000000 ) ) ;
#916 = ORIENTED_EDGE ( 'NONE', *, *, #530, .F. ) ;
#917 = ORIENTED_EDGE ( 'NONE', *, *, #125, .F. ) ;
#918 = CARTESIAN_POINT ( 'NONE',  ( -375.8152362590859639, -14.99999999999999645, 179.3965921979798281 ) ) ;
#919 = AXIS2_PLACEMENT_3D ( 'NONE', #27, #1037, #455 ) ;
#920 = PLANE ( 'NONE',  #768 ) ;
#921 = VERTEX_POINT ( 'NONE', #966 ) ;
#922 = EDGE_CURVE ( 'NONE', #253, #946, #614, .T. ) ;
#923 = EDGE_LOOP ( 'NONE', ( #746, #201, #681, #626 ) ) ;
#924 = AXIS2_PLACEMENT_3D ( 'NONE', #287, #13, #866 ) ;
#925 = DIRECTION ( 'NONE',  ( -0.000000000000000000, -1.000000000000000000, -0.000000000000000000 ) ) ;
#926 = LINE ( 'NONE', #909, #54 ) ;
#927 = ORIENTED_EDGE ( 'NONE', *, *, #687, .F. ) ;
#928 = ORIENTED_EDGE ( 'NONE', *, *, #837, .T. ) ;
#929 = CIRCLE ( 'NONE', #454, 24.99999999999999289 ) ;
#930 = PERSON_AND_ORGANIZATION_ROLE ( 'creator' ) ;
#931 = CARTESIAN_POINT ( 'NONE',  ( -472.2925764192141855, 35.00000000000000000, -235.0000000000000000 ) ) ;
#932 = DIRECTION ( 'NONE',  ( 0.000000000000000000, -1.000000000000000000, 0.000000000000000000 ) ) ;
#933 = ORIENTED_EDGE ( 'NONE', *, *, #861, .F. ) ;
#934 = ORIENTED_EDGE ( 'NONE', *, *, #117, .F. ) ;
#935 = VECTOR ( 'NONE', #467, 1000.000000000000000 ) ;
#936 = SHAPE_DEFINITION_REPRESENTATION ( #449, #303 ) ;
#937 = EDGE_CURVE ( 'NONE', #661, #772, #863, .T. ) ;
#938 = CARTESIAN_POINT ( 'NONE',  ( -390.4469890217190482, -14.99999999999999645, 179.3965921979797997 ) ) ;
#939 = DIRECTION ( 'NONE',  ( -1.000000000000000000, 0.000000000000000000, 0.000000000000000000 ) ) ;
#940 = ORIENTED_EDGE ( 'NONE', *, *, #51, .F. ) ;
#941 = CARTESIAN_POINT ( 'NONE',  ( 0.000000000000000000, 0.000000000000000000, 289.9999999999999432 ) ) ;
#942 = EDGE_CURVE ( 'NONE', #565, #296, #1038, .T. ) ;
#943 = VECTOR ( 'NONE', #35, 1000.000000000000114 ) ;
#944 = DIRECTION ( 'NONE',  ( -1.000000000000000000, 0.000000000000000000, 0.000000000000000000 ) ) ;
#945 = CARTESIAN_POINT ( 'NONE',  ( -472.2925764192141855, 0.000000000000000000, -260.0000000000000000 ) ) ;
#946 = VERTEX_POINT ( 'NONE', #537 ) ;
#947 = EDGE_CURVE ( 'NONE', #559, #663, #83, .T. ) ;
#948 = PLANE ( 'NONE',  #249 ) ;
#949 = EDGE_CURVE ( 'NONE', #1023, #792, #542, .T. ) ;
#950 = CIRCLE ( 'NONE', #471, 1.000000000000000888 ) ;
#951 = DIRECTION ( 'NONE',  ( 0.000000000000000000, -0.7071067811865474617, -0.7071067811865474617 ) ) ;
#952 = CARTESIAN_POINT ( 'NONE',  ( -375.8152362590859639, -14.99999999999999645, 179.3965921979798281 ) ) ;
#953 = ORIENTED_EDGE ( 'NONE', *, *, #170, .F. ) ;
#954 = CARTESIAN_POINT ( 'NONE',  ( 19.77591903501618731, 0.000000000000000000, -225.4964744118465205 ) ) ;
#955 = CARTESIAN_POINT ( 'NONE',  ( 0.000000000000000000, -34.99999999999999289, -175.4964744118461795 ) ) ;
#956 = CARTESIAN_POINT ( 'NONE',  ( 89.70742358078578604, 34.00000000000000000, -235.0000000000000284 ) ) ;
#957 = ORIENTED_EDGE ( 'NONE', *, *, #152, .F. ) ;
#958 = CARTESIAN_POINT ( 'NONE',  ( -390.4469890217190482, -14.99999999999999645, -175.3707404567839205 ) ) ;
#959 = ADVANCED_FACE ( 'NONE', ( #531 ), #20, .F. ) ;
#960 = FACE_OUTER_BOUND ( 'NONE', #639, .T. ) ;
#961 = CARTESIAN_POINT ( 'NONE',  ( -362.2925764192142424, 0.000000000000000000, -224.8478572396313950 ) ) ;
#962 = ORIENTED_EDGE ( 'NONE', *, *, #280, .F. ) ;
#963 = CARTESIAN_POINT ( 'NONE',  ( -362.2925764192142424, -34.99999999999999289, -224.8478572396313950 ) ) ;
#964 = CC_DESIGN_DATE_AND_TIME_ASSIGNMENT ( #766, #419, ( #822 ) ) ;
#965 = APPROVAL_PERSON_ORGANIZATION ( #335, #456, #258 ) ;
#966 = CARTESIAN_POINT ( 'NONE',  ( -18.15016872805719217, -34.99999999999999289, -175.4964744118461795 ) ) ;
#967 = ORIENTED_EDGE ( 'NONE', *, *, #553, .F. ) ;
#968 = VECTOR ( 'NONE', #62, 1000.000000000000000 ) ;
#969 = DIRECTION ( 'NONE',  ( -0.000000000000000000, -0.000000000000000000, 1.000000000000000000 ) ) ;
#970 = FACE_OUTER_BOUND ( 'NONE', #645, .T. ) ;
#971 = EDGE_CURVE ( 'NONE', #691, #151, #693, .T. ) ;
#972 = DIRECTION ( 'NONE',  ( 1.000000000000000000, 0.000000000000000000, 0.000000000000000000 ) ) ;
#973 = VERTEX_POINT ( 'NONE', #370 ) ;
#974 = CARTESIAN_POINT ( 'NONE',  ( 5.423210722851790067, -14.99999999999999645, 179.5035255881530531 ) ) ;
#975 = CARTESIAN_POINT ( 'NONE',  ( 114.7074235807857860, 34.58578643762690774, 319.9999999999999432 ) ) ;
#976 = AXIS2_PLACEMENT_3D ( 'NONE', #43, #127, #221 ) ;
#977 = ORIENTED_EDGE ( 'NONE', *, *, #624, .T. ) ;
#978 = LINE ( 'NONE', #472, #1080 ) ;
#979 = EDGE_CURVE ( 'NONE', #328, #1064, #1043, .T. ) ;
#980 = LOCAL_TIME ( 9, 59, 45.00000000000000000, #1019 ) ;
#981 = DIRECTION ( 'NONE',  ( 1.000000000000000000, 0.000000000000000000, -0.000000000000000000 ) ) ;
#982 = CARTESIAN_POINT ( 'NONE',  ( 5.423210722851790067, -34.99999999999999289, -175.4964744118461795 ) ) ;
#983 = ORIENTED_EDGE ( 'NONE', *, *, #149, .F. ) ;
#984 = DIRECTION ( 'NONE',  ( -0.000000000000000000, -1.000000000000000000, -0.000000000000000000 ) ) ;
#985 = CARTESIAN_POINT ( 'NONE',  ( -18.15016872805719217, 0.000000000000000000, -225.4964744118465205 ) ) ;
#986 = VECTOR ( 'NONE', #608, 1000.000000000000114 ) ;
#987 = CARTESIAN_POINT ( 'NONE',  ( 19.77591903501618731, -34.99999999999999289, -175.4964744118461795 ) ) ;
#988 = ORIENTED_EDGE ( 'NONE', *, *, #19, .T. ) ;
#989 = EDGE_CURVE ( 'NONE', #261, #688, #1054, .T. ) ;
#990 = DIRECTION ( 'NONE',  ( -0.000000000000000000, -1.000000000000000000, -0.000000000000000000 ) ) ;
#991 = CARTESIAN_POINT ( 'NONE',  ( 0.000000000000000000, 34.00000000000000000, -259.0000000000000000 ) ) ;
#992 = DIRECTION ( 'NONE',  ( 0.01335399111272301750, -0.7071067811865476838, -0.7069806722403103594 ) ) ;
#993 = ORIENTED_EDGE ( 'NONE', *, *, #152, .T. ) ;
#994 = VECTOR ( 'NONE', #981, 1000.000000000000000 ) ;
#995 = CALENDAR_DATE ( 2026, 14, 8 ) ;
#996 = CARTESIAN_POINT ( 'NONE',  ( -497.2925764192141855, 34.00000000000000000, 319.9999999999999432 ) ) ;
#997 = PLANE ( 'NONE',  #198 ) ;
#998 = ORIENTED_EDGE ( 'NONE', *, *, #979, .F. ) ;
#999 = ORIENTED_EDGE ( 'NONE', *, *, #947, .T. ) ;
#1000 = VECTOR ( 'NONE', #215, 1000.000000000000114 ) ;
#1001 = DIRECTION ( 'NONE',  ( -0.000000000000000000, 1.000000000000000000, 0.000000000000000000 ) ) ;
#1002 = DIRECTION ( 'NONE',  ( 0.000000000000000000, -1.000000000000000000, 0.000000000000000000 ) ) ;
#1003 = EDGE_LOOP ( 'NONE', ( #494, #71, #1040, #999 ) ) ;
#1004 = VERTEX_POINT ( 'NONE', #717 ) ;
#1005 = PERSON_AND_ORGANIZATION ( #1060, #734 ) ;
#1006 = CARTESIAN_POINT ( 'NONE',  ( 0.000000000000000000, -14.99999999999999645, 0.000000000000000000 ) ) ;
#1007 = AXIS2_PLACEMENT_3D ( 'NONE', #279, #437, #692 ) ;
#1008 = DIRECTION ( 'NONE',  ( -1.000000000000000000, -0.000000000000000000, -0.000000000000000000 ) ) ;
#1009 = ORIENTED_EDGE ( 'NONE', *, *, #1057, .T. ) ;
#1010 = ORIENTED_EDGE ( 'NONE', *, *, #749, .F. ) ;
#1011 = CIRCLE ( 'NONE', #677, 24.99999999999999289 ) ;
#1012 = SECURITY_CLASSIFICATION_LEVEL ( 'unclassified' ) ;
#1013 = CARTESIAN_POINT ( 'NONE',  ( 5.423210722851790067, -14.99999999999999645, 179.5035255881530531 ) ) ;
#1014 = CARTESIAN_POINT ( 'NONE',  ( -472.2925764192141855, 35.00000000000000000, -259.0000000000000000 ) ) ;
#1015 = ORIENTED_EDGE ( 'NONE', *, *, #353, .F. ) ;
#1016 = ORIENTED_EDGE ( 'NONE', *, *, #942, .F. ) ;
#1017 = LOCAL_TIME ( 9, 59, 45.00000000000000000, #424 ) ;
#1018 = ADVANCED_FACE ( 'NONE', ( #817, #970, #1078 ), #55, .F. ) ;
#1019 = COORDINATED_UNIVERSAL_TIME_OFFSET ( 5, 30, .AHEAD. ) ;
#1020 = LINE ( 'NONE', #1013, #231 ) ;
#1021 = EDGE_CURVE ( 'NONE', #504, #834, #1061, .T. ) ;
#1022 = DIRECTION ( 'NONE',  ( -1.000000000000000000, 0.000000000000000000, 0.000000000000000000 ) ) ;
#1023 = VERTEX_POINT ( 'NONE', #1067 ) ;
#1024 = EDGE_LOOP ( 'NONE', ( #802, #282, #470, #1098 ) ) ;
#1025 = AXIS2_PLACEMENT_3D ( 'NONE', #209, #50, #225 ) ;
#1026 = ADVANCED_FACE ( 'NONE', ( #824 ), #316, .F. ) ;
#1027 = DIRECTION ( 'NONE',  ( -1.000000000000000000, 0.000000000000000000, 0.000000000000000000 ) ) ;
#1028 = FACE_OUTER_BOUND ( 'NONE', #463, .T. ) ;
#1029 = EDGE_LOOP ( 'NONE', ( #927, #733, #680, #1016 ) ) ;
#1030 = DIRECTION ( 'NONE',  ( -1.000000000000000000, 0.000000000000000000, 0.000000000000000000 ) ) ;
#1031 = EDGE_CURVE ( 'NONE', #498, #187, #978, .T. ) ;
#1032 = VECTOR ( 'NONE', #1042, 1000.000000000000000 ) ;
#1033 = FACE_OUTER_BOUND ( 'NONE', #583, .T. ) ;
#1034 = CARTESIAN_POINT ( 'NONE',  ( -6.769916579342449836, -14.99999999999999645, -175.4964744118461795 ) ) ;
#1035 = VERTEX_POINT ( 'NONE', #229 ) ;
#1036 = EDGE_CURVE ( 'NONE', #388, #688, #295, .T. ) ;
#1037 = DIRECTION ( 'NONE',  ( -1.000000000000000000, 0.000000000000000000, 0.000000000000000000 ) ) ;
#1038 = LINE ( 'NONE', #526, #461 ) ;
#1039 = FACE_OUTER_BOUND ( 'NONE', #263, .T. ) ;
#1040 = ORIENTED_EDGE ( 'NONE', *, *, #507, .F. ) ;
#1041 = EDGE_CURVE ( 'NONE', #110, #144, #299, .T. ) ;
#1042 = DIRECTION ( 'NONE',  ( -0.000000000000000000, 1.000000000000000000, -0.000000000000000000 ) ) ;
#1043 = LINE ( 'NONE', #556, #506 ) ;
#1044 = DIRECTION ( 'NONE',  ( 0.000000000000000000, -1.000000000000000000, 0.000000000000000000 ) ) ;
#1045 = EDGE_LOOP ( 'NONE', ( #773, #212, #453, #73 ) ) ;
#1046 = CC_DESIGN_DATE_AND_TIME_ASSIGNMENT ( #74, #676, ( #342 ) ) ;
#1047 = DIRECTION ( 'NONE',  ( 0.000000000000000000, 0.000000000000000000, 1.000000000000000000 ) ) ;
#1048 = VECTOR ( 'NONE', #348, 1000.000000000000000 ) ;
#1049 = LINE ( 'NONE', #281, #119 ) ;
#1050 = ORIENTED_EDGE ( 'NONE', *, *, #438, .T. ) ;
#1051 = VECTOR ( 'NONE', #1022, 1000.000000000000000 ) ;
#1052 = CARTESIAN_POINT ( 'NONE',  ( -375.8152362590859639, -14.99999999999999645, -175.0943647310704989 ) ) ;
#1053 = EDGE_CURVE ( 'NONE', #772, #688, #46, .T. ) ;
#1054 = LINE ( 'NONE', #813, #315 ) ;
#1055 = ORIENTED_EDGE ( 'NONE', *, *, #238, .F. ) ;
#1056 = VECTOR ( 'NONE', #744, 1000.000000000000000 ) ;
#1057 = EDGE_CURVE ( 'NONE', #1064, #253, #1073, .T. ) ;
#1058 = PLANE ( 'NONE',  #976 ) ;
#1059 = ORIENTED_EDGE ( 'NONE', *, *, #937, .T. ) ;
#1060 = PERSON ( 'UNSPECIFIED', 'UNSPECIFIED', 'UNSPECIFIED', ('UNSPECIFIED'), ('UNSPECIFIED'), ('UNSPECIFIED') ) ;
#1061 = LINE ( 'NONE', #647, #935 ) ;
#1062 = CARTESIAN_POINT ( 'NONE',  ( 114.7074235807857860, 0.000000000000000000, -260.0000000000000000 ) ) ;
#1063 = LINE ( 'NONE', #142, #836 ) ;
#1064 = VERTEX_POINT ( 'NONE', #729 ) ;
#1065 = ADVANCED_FACE ( 'NONE', ( #389 ), #310, .F. ) ;
#1066 = VECTOR ( 'NONE', #607, 1000.000000000000000 ) ;
#1067 = CARTESIAN_POINT ( 'NONE',  ( -375.8152362590859639, -34.99999999999999289, 179.3965921979798566 ) ) ;
#1068 = DIRECTION ( 'NONE',  ( 1.000000000000000000, 0.000000000000000000, -0.000000000000000000 ) ) ;
#1069 = LINE ( 'NONE', #638, #409 ) ;
#1070 = AXIS2_PLACEMENT_3D ( 'NONE', #387, #889, #898 ) ;
#1071 = VECTOR ( 'NONE', #64, 1000.000000000000000 ) ;
#1072 = APPLICATION_CONTEXT ( 'configuration controlled 3d designs of mechanical parts and assemblies' ) ;
#1073 = LINE ( 'NONE', #562, #224 ) ;
#1074 = FACE_OUTER_BOUND ( 'NONE', #903, .T. ) ;
#1075 = FACE_OUTER_BOUND ( 'NONE', #352, .T. ) ;
#1076 = EDGE_CURVE ( 'NONE', #765, #621, #399, .T. ) ;
#1077 = EDGE_LOOP ( 'NONE', ( #616, #846, #269, #726 ) ) ;
#1078 = FACE_BOUND ( 'NONE', #923, .T. ) ;
#1079 = PLANE ( 'NONE',  #385 ) ;
#1080 = VECTOR ( 'NONE', #652, 1000.000000000000000 ) ;
#1081 = CARTESIAN_POINT ( 'NONE',  ( 113.7074235807857860, 35.00000000000000000, 318.9999999999999432 ) ) ;
#1082 = ORIENTED_EDGE ( 'NONE', *, *, #465, .T. ) ;
#1083 = EDGE_CURVE ( 'NONE', #511, #577, #929, .T. ) ;
#1084 = MECHANICAL_CONTEXT ( 'NONE', #613, 'mechanical' ) ;
#1085 = PLANE ( 'NONE',  #855 ) ;
#1086 = VERTEX_POINT ( 'NONE', #712 ) ;
#1087 = AXIS2_PLACEMENT_3D ( 'NONE', #642, #481, #508 ) ;
#1088 = ORIENTED_EDGE ( 'NONE', *, *, #1031, .T. ) ;
#1089 = CALENDAR_DATE ( 2026, 14, 8 ) ;
#1090 = LINE ( 'NONE', #420, #567 ) ;
#1091 = CYLINDRICAL_SURFACE ( 'NONE', #586, 24.99999999999999289 ) ;
#1092 = ORIENTED_EDGE ( 'NONE', *, *, #476, .T. ) ;
#1093 = ORIENTED_EDGE ( 'NONE', *, *, #1083, .F. ) ;
#1094 = CALENDAR_DATE ( 2026, 14, 8 ) ;
#1095 = PLANE ( 'NONE',  #184 ) ;
#1096 = DIRECTION ( 'NONE',  ( -1.000000000000000000, 0.000000000000000000, 0.000000000000000000 ) ) ;
#1097 = ORIENTED_EDGE ( 'NONE', *, *, #256, .T. ) ;
#1098 = ORIENTED_EDGE ( 'NONE', *, *, #536, .T. ) ;
#1099 = DIRECTION ( 'NONE',  ( 0.000000000000000000, 1.000000000000000000, 0.000000000000000000 ) ) ;
#1100 = ORIENTED_EDGE ( 'NONE', *, *, #749, .T. ) ;
ENDSEC;
END-ISO-10303-21;
