ISO-10303-21;
HEADER;
FILE_DESCRIPTION (( 'STEP AP203' ),
    '1' );
FILE_NAME ('W_Default_sldprt.STEP',
    '2026-08-14T04:29:39',
    ( '' ),
    ( '' ),
    'SwSTEP 2.0',
    'SolidWorks 2023',
    '' );
FILE_SCHEMA (( 'CONFIG_CONTROL_DESIGN' ));
ENDSEC;

DATA;
#1 = EDGE_CURVE ( 'NONE', #324, #272, #945, .T. ) ;
#2 = VECTOR ( 'NONE', #760, 1000.000000000000000 ) ;
#3 = CARTESIAN_POINT ( 'NONE',  ( -0.9999999999999453770, 12.20940169502679673, 3.095341274795501363 ) ) ;
#4 = VECTOR ( 'NONE', #1070, 1000.000000000000114 ) ;
#5 = AXIS2_PLACEMENT_3D ( 'NONE', #572, #761, #926 ) ;
#6 = ORIENTED_EDGE ( 'NONE', *, *, #566, .F. ) ;
#7 = DIRECTION ( 'NONE',  ( -1.000000000000000000, -0.000000000000000000, -0.000000000000000000 ) ) ;
#8 = DIRECTION ( 'NONE',  ( 0.000000000000000000, 0.000000000000000000, -1.000000000000000000 ) ) ;
#9 = ORIENTED_EDGE ( 'NONE', *, *, #566, .T. ) ;
#10 = CALENDAR_DATE ( 2026, 14, 8 ) ;
#11 = EDGE_CURVE ( 'NONE', #970, #571, #406, .T. ) ;
#12 = ORIENTED_EDGE ( 'NONE', *, *, #338, .T. ) ;
#13 = CARTESIAN_POINT ( 'NONE',  ( 60.00000000000000000, -27.89959613044670306, 28.66378439351482754 ) ) ;
#14 = FACE_OUTER_BOUND ( 'NONE', #731, .T. ) ;
#15 = ORIENTED_EDGE ( 'NONE', *, *, #823, .F. ) ;
#16 = DIRECTION ( 'NONE',  ( 0.000000000000000000, 0.000000000000000000, -1.000000000000000000 ) ) ;
#17 = APPROVAL_ROLE ( '' ) ;
#18 = ORIENTED_EDGE ( 'NONE', *, *, #287, .T. ) ;
#19 = ORIENTED_EDGE ( 'NONE', *, *, #1091, .T. ) ;
#20 = CARTESIAN_POINT ( 'NONE',  ( 60.00000000000000000, -0.000000000000000000, 0.000000000000000000 ) ) ;
#21 = LINE ( 'NONE', #431, #546 ) ;
#22 = VERTEX_POINT ( 'NONE', #701 ) ;
#23 = DIRECTION ( 'NONE',  ( 1.000000000000000000, 0.000000000000000000, 0.000000000000000000 ) ) ;
#24 = CARTESIAN_POINT ( 'NONE',  ( -0.9999999999999453770, 0.000000000000000000, -12.59565906802719937 ) ) ;
#25 = VECTOR ( 'NONE', #785, 1000.000000000000000 ) ;
#26 = ORIENTED_EDGE ( 'NONE', *, *, #914, .F. ) ;
#27 = CYLINDRICAL_SURFACE ( 'NONE', #1119, 12.59565906802719937 ) ;
#28 = AXIS2_PLACEMENT_3D ( 'NONE', #675, #557, #98 ) ;
#29 = AXIS2_PLACEMENT_3D ( 'NONE', #359, #735, #239 ) ;
#30 = PLANE ( 'NONE',  #722 ) ;
#31 = LINE ( 'NONE', #1060, #892 ) ;
#32 = ORIENTED_EDGE ( 'NONE', *, *, #460, .T. ) ;
#33 = ORIENTED_EDGE ( 'NONE', *, *, #569, .F. ) ;
#34 = DIRECTION ( 'NONE',  ( 1.000000000000000000, -0.000000000000000000, 0.000000000000000000 ) ) ;
#35 = EDGE_CURVE ( 'NONE', #322, #1034, #690, .T. ) ;
#36 = LINE ( 'NONE', #336, #529 ) ;
#37 = ORIENTED_EDGE ( 'NONE', *, *, #914, .T. ) ;
#38 = EDGE_CURVE ( 'NONE', #558, #912, #778, .T. ) ;
#39 = DIRECTION ( 'NONE',  ( 1.000000000000000000, 0.000000000000000000, 0.000000000000000000 ) ) ;
#40 = ORIENTED_EDGE ( 'NONE', *, *, #162, .F. ) ;
#41 = CARTESIAN_POINT ( 'NONE',  ( 0.000000000000000000, -27.89959613044721820, 28.66378439351535334 ) ) ;
#42 = ORIENTED_EDGE ( 'NONE', *, *, #413, .T. ) ;
#43 = DIRECTION ( 'NONE',  ( 1.000000000000000000, 0.000000000000000000, 0.000000000000000000 ) ) ;
#44 = PERSON_AND_ORGANIZATION ( #678, #149 ) ;
#45 = CARTESIAN_POINT ( 'NONE',  ( 60.00000000000000000, 9.491012693391988181E-15, 65.00000000000000000 ) ) ;
#46 = EDGE_LOOP ( 'NONE', ( #189, #881, #12, #963 ) ) ;
#47 = CARTESIAN_POINT ( 'NONE',  ( 60.00000000000000000, -9.829866807535067252, 38.77336351860798658 ) ) ;
#48 = VECTOR ( 'NONE', #513, 1000.000000000000000 ) ;
#49 = ORIENTED_EDGE ( 'NONE', *, *, #353, .T. ) ;
#50 = AXIS2_PLACEMENT_3D ( 'NONE', #972, #713, #1076 ) ;
#51 = DIRECTION ( 'NONE',  ( 1.000000000000000000, 0.000000000000000000, 0.000000000000000000 ) ) ;
#52 = CIRCLE ( 'NONE', #487, 12.59565906802719937 ) ;
#53 = AXIS2_PLACEMENT_3D ( 'NONE', #79, #552, #895 ) ;
#54 = CALENDAR_DATE ( 2026, 14, 8 ) ;
#55 = EDGE_CURVE ( 'NONE', #272, #739, #117, .T. ) ;
#56 = DIRECTION ( 'NONE',  ( 0.000000000000000000, -0.9693340879652038167, -0.2457466701883596338 ) ) ;
#57 = CARTESIAN_POINT ( 'NONE',  ( 0.000000000000000000, 0.000000000000000000, -10.00000000000000000 ) ) ;
#58 = EDGE_CURVE ( 'NONE', #725, #1004, #1163, .T. ) ;
#59 = ORIENTED_EDGE ( 'NONE', *, *, #633, .F. ) ;
#60 = LINE ( 'NONE', #1000, #71 ) ;
#61 = LINE ( 'NONE', #1190, #1069 ) ;
#62 = VERTEX_POINT ( 'NONE', #862 ) ;
#63 = DIRECTION ( 'NONE',  ( 0.000000000000000000, 0.000000000000000000, -1.000000000000000000 ) ) ;
#64 = FACE_OUTER_BOUND ( 'NONE', #46, .T. ) ;
#65 = ADVANCED_FACE ( 'NONE', ( #1135 ), #400, .F. ) ;
#66 = ORIENTED_EDGE ( 'NONE', *, *, #136, .T. ) ;
#67 = DIRECTION ( 'NONE',  ( 1.000000000000000000, -0.000000000000000000, -0.000000000000000000 ) ) ;
#68 = VERTEX_POINT ( 'NONE', #87 ) ;
#69 = DIRECTION ( 'NONE',  ( 0.000000000000000000, -0.7165946098379072371, -0.6974899032611564520 ) ) ;
#70 = AXIS2_PLACEMENT_3D ( 'NONE', #235, #791, #524 ) ;
#71 = VECTOR ( 'NONE', #828, 1000.000000000000114 ) ;
#72 = VECTOR ( 'NONE', #451, 1000.000000000000000 ) ;
#73 = EDGE_CURVE ( 'NONE', #699, #867, #920, .T. ) ;
#74 = ORIENTED_EDGE ( 'NONE', *, *, #200, .F. ) ;
#75 = LOCAL_TIME ( 9, 59, 39.00000000000000000, #525 ) ;
#76 = ORIENTED_EDGE ( 'NONE', *, *, #58, .T. ) ;
#77 = CARTESIAN_POINT ( 'NONE',  ( 0.000000000000000000, 38.49365120105062488, -10.87376738816190702 ) ) ;
#78 = ORIENTED_EDGE ( 'NONE', *, *, #1117, .F. ) ;
#79 = CARTESIAN_POINT ( 'NONE',  ( 0.000000000000000000, 0.000000000000000000, 0.000000000000000000 ) ) ;
#80 = ORIENTED_EDGE ( 'NONE', *, *, #861, .T. ) ;
#81 = CARTESIAN_POINT ( 'NONE',  ( 0.000000000000000000, -4.013098901508176748E-13, -1.420656004819026860E-12 ) ) ;
#82 = ORIENTED_EDGE ( 'NONE', *, *, #825, .T. ) ;
#83 = FACE_OUTER_BOUND ( 'NONE', #500, .T. ) ;
#84 = DIRECTION ( 'NONE',  ( 1.000000000000000000, 0.000000000000000000, 0.000000000000000000 ) ) ;
#85 = ORIENTED_EDGE ( 'NONE', *, *, #765, .F. ) ;
#86 = FACE_BOUND ( 'NONE', #464, .T. ) ;
#87 = CARTESIAN_POINT ( 'NONE',  ( 0.000000000000000000, -38.49365120105020566, 10.87376738816025323 ) ) ;
#88 = AXIS2_PLACEMENT_3D ( 'NONE', #644, #448, #667 ) ;
#89 = ADVANCED_FACE ( 'NONE', ( #710 ), #1128, .T. ) ;
#90 = VECTOR ( 'NONE', #993, 1000.000000000000000 ) ;
#91 = DIRECTION ( 'NONE',  ( 1.000000000000000000, 0.000000000000000000, 0.000000000000000000 ) ) ;
#92 = CARTESIAN_POINT ( 'NONE',  ( 60.00000000000000000, 0.000000000000000000, 0.000000000000000000 ) ) ;
#93 = ADVANCED_FACE ( 'NONE', ( #477 ), #1037, .F. ) ;
#94 = CARTESIAN_POINT ( 'NONE',  ( 0.000000000000000000, 1.029064269082054350E-12, -1.057251015323841880E-12 ) ) ;
#95 = ORIENTED_EDGE ( 'NONE', *, *, #514, .F. ) ;
#96 = DESIGN_CONTEXT ( 'detailed design', #351, 'design' ) ;
#97 = CARTESIAN_POINT ( 'NONE',  ( 60.00000000000000000, 8.785345024869117836, -9.025981395503942295 ) ) ;
#98 = DIRECTION ( 'NONE',  ( 0.000000000000000000, 0.000000000000000000, -1.000000000000000000 ) ) ;
#99 = DIRECTION ( 'NONE',  ( 1.000000000000000000, 0.000000000000000000, 0.000000000000000000 ) ) ;
#100 = CARTESIAN_POINT ( 'NONE',  ( -64.00000000000000000, 0.000000000000000000, 0.000000000000000000 ) ) ;
#101 = VERTEX_POINT ( 'NONE', #661 ) ;
#102 = DIRECTION ( 'NONE',  ( 0.000000000000000000, 0.2718441847040459769, 0.9623412800262661770 ) ) ;
#103 = CARTESIAN_POINT ( 'NONE',  ( 60.00000000000000000, 0.000000000000000000, 0.000000000000000000 ) ) ;
#104 = CIRCLE ( 'NONE', #837, 12.59565906802719937 ) ;
#105 = DIRECTION ( 'NONE',  ( 0.000000000000000000, 0.000000000000000000, -1.000000000000000000 ) ) ;
#106 = CIRCLE ( 'NONE', #927, 24.99999999999999289 ) ;
#107 = CC_DESIGN_APPROVAL ( #769, ( #1199 ) ) ;
#108 = ORIENTED_EDGE ( 'NONE', *, *, #721, .T. ) ;
#109 = CARTESIAN_POINT ( 'NONE',  ( 34.99999999999999289, 1.102182119232618069E-14, -90.00000000000001421 ) ) ;
#110 = LINE ( 'NONE', #1032, #1008 ) ;
#111 = DIRECTION ( 'NONE',  ( 1.000000000000000000, -0.000000000000000000, -0.000000000000000000 ) ) ;
#112 = SECURITY_CLASSIFICATION_LEVEL ( 'unclassified' ) ;
#113 = CC_DESIGN_PERSON_AND_ORGANIZATION_ASSIGNMENT ( #203, #396, ( #1199 ) ) ;
#114 = ORIENTED_EDGE ( 'NONE', *, *, #555, .F. ) ;
#115 = DIRECTION ( 'NONE',  ( 1.000000000000000000, 0.000000000000000000, 0.000000000000000000 ) ) ;
#116 = CARTESIAN_POINT ( 'NONE',  ( 0.000000000000000000, 38.77336351860815711, 9.829866807534381579 ) ) ;
#117 = LINE ( 'NONE', #499, #1079 ) ;
#118 = EDGE_LOOP ( 'NONE', ( #26, #165, #19, #214 ) ) ;
#119 = ORIENTED_EDGE ( 'NONE', *, *, #942, .T. ) ;
#120 = CARTESIAN_POINT ( 'NONE',  ( -0.9999999999999453770, -8.785345024869730679, 9.025981395503340110 ) ) ;
#121 = DIRECTION ( 'NONE',  ( 0.000000000000000000, 0.7165946098379037954, 0.6974899032611600047 ) ) ;
#122 = ORIENTED_EDGE ( 'NONE', *, *, #711, .F. ) ;
#123 = ORIENTED_EDGE ( 'NONE', *, *, #358, .F. ) ;
#124 = CIRCLE ( 'NONE', #741, 24.99999999999999289 ) ;
#125 = ORIENTED_EDGE ( 'NONE', *, *, #427, .F. ) ;
#126 = DIRECTION ( 'NONE',  ( 0.000000000000000000, -0.2718441847040476977, -0.9623412800262657329 ) ) ;
#127 = AXIS2_PLACEMENT_3D ( 'NONE', #962, #804, #887 ) ;
#128 = CIRCLE ( 'NONE', #875, 65.00000000000000000 ) ;
#129 = VERTEX_POINT ( 'NONE', #1150 ) ;
#130 = DIRECTION ( 'NONE',  ( 0.000000000000000000, 1.224646799147353207E-16, 1.000000000000000000 ) ) ;
#131 = EDGE_CURVE ( 'NONE', #357, #656, #795, .T. ) ;
#132 = ORIENTED_EDGE ( 'NONE', *, *, #457, .F. ) ;
#133 = ORIENTED_EDGE ( 'NONE', *, *, #626, .T. ) ;
#134 = CARTESIAN_POINT ( 'NONE',  ( -0.9999999999999453770, 1.542523356081084226E-15, 12.59565906802719937 ) ) ;
#135 = ORIENTED_EDGE ( 'NONE', *, *, #1123, .T. ) ;
#136 = EDGE_CURVE ( 'NONE', #699, #1156, #1039, .T. ) ;
#137 = VERTEX_POINT ( 'NONE', #817 ) ;
#138 = FACE_OUTER_BOUND ( 'NONE', #1055, .T. ) ;
#139 = LINE ( 'NONE', #215, #1065 ) ;
#140 = CYLINDRICAL_SURFACE ( 'NONE', #302, 10.00000000000000000 ) ;
#141 = ADVANCED_FACE ( 'NONE', ( #1002, #83 ), #842, .F. ) ;
#142 = CARTESIAN_POINT ( 'NONE',  ( 60.00000000000000000, -3.424056670156753412, -12.12132267030008848 ) ) ;
#143 = VECTOR ( 'NONE', #39, 1000.000000000000000 ) ;
#144 = EDGE_LOOP ( 'NONE', ( #831, #1100, #364, #277, #383, #122, #40, #921, #1148, #1185, #1209, #1056, #348, #240, #1097, #15 ) ) ;
#145 = CIRCLE ( 'NONE', #167, 12.59565906802719937 ) ;
#146 = FACE_OUTER_BOUND ( 'NONE', #736, .T. ) ;
#147 = AXIS2_PLACEMENT_3D ( 'NONE', #870, #317, #797 ) ;
#148 = ADVANCED_FACE ( 'NONE', ( #1136 ), #600, .T. ) ;
#149 = ORGANIZATION ( 'UNSPECIFIED', 'UNSPECIFIED', '' ) ;
#150 = COORDINATED_UNIVERSAL_TIME_OFFSET ( 5, 30, .AHEAD. ) ;
#151 = EDGE_CURVE ( 'NONE', #746, #1075, #31, .T. ) ;
#152 = FACE_OUTER_BOUND ( 'NONE', #1027, .T. ) ;
#153 = VERTEX_POINT ( 'NONE', #517 ) ;
#154 = CARTESIAN_POINT ( 'NONE',  ( 0.000000000000000000, -9.829866807534754614, 38.77336351860674313 ) ) ;
#155 = DIRECTION ( 'NONE',  ( -1.000000000000000000, -0.000000000000000000, -0.000000000000000000 ) ) ;
#156 = DIRECTION ( 'NONE',  ( 1.000000000000000000, 0.000000000000000000, 0.000000000000000000 ) ) ;
#157 = ORIENTED_EDGE ( 'NONE', *, *, #1117, .T. ) ;
#158 = DIRECTION ( 'NONE',  ( 1.000000000000000000, 0.000000000000000000, 0.000000000000000000 ) ) ;
#159 = EDGE_LOOP ( 'NONE', ( #82, #438 ) ) ;
#160 = CARTESIAN_POINT ( 'NONE',  ( 60.00000000000000000, 0.000000000000000000, 90.00000000000001421 ) ) ;
#161 = CYLINDRICAL_SURFACE ( 'NONE', #777, 40.00000000000000000 ) ;
#162 = EDGE_CURVE ( 'NONE', #1090, #953, #793, .T. ) ;
#163 = ORIENTED_EDGE ( 'NONE', *, *, #440, .F. ) ;
#164 = FACE_OUTER_BOUND ( 'NONE', #567, .T. ) ;
#165 = ORIENTED_EDGE ( 'NONE', *, *, #296, .T. ) ;
#166 = DIRECTION ( 'NONE',  ( 1.000000000000000000, 0.000000000000000000, 0.000000000000000000 ) ) ;
#167 = AXIS2_PLACEMENT_3D ( 'NONE', #472, #300, #676 ) ;
#168 = APPROVAL ( #863, 'UNSPECIFIED' ) ;
#169 = VECTOR ( 'NONE', #323, 1000.000000000000114 ) ;
#170 = LOCAL_TIME ( 9, 59, 39.00000000000000000, #687 ) ;
#171 = ORIENTED_EDGE ( 'NONE', *, *, #1, .T. ) ;
#172 = APPROVAL_PERSON_ORGANIZATION ( #494, #168, #17 ) ;
#173 = LINE ( 'NONE', #987, #72 ) ;
#174 = ORIENTED_EDGE ( 'NONE', *, *, #805, .T. ) ;
#175 = CARTESIAN_POINT ( 'NONE',  ( 0.000000000000000000, 10.87376738816122490, 38.49365120105004934 ) ) ;
#176 = ORIENTED_EDGE ( 'NONE', *, *, #257, .T. ) ;
#177 = CYLINDRICAL_SURFACE ( 'NONE', #1208, 10.00000000000000000 ) ;
#178 = CARTESIAN_POINT ( 'NONE',  ( 0.000000000000000000, 0.000000000000000000, 0.000000000000000000 ) ) ;
#179 = ADVANCED_FACE ( 'NONE', ( #528 ), #140, .T. ) ;
#180 = CARTESIAN_POINT ( 'NONE',  ( 0.000000000000000000, -38.77336351860773789, -9.829866807536035367 ) ) ;
#181 = CARTESIAN_POINT ( 'NONE',  ( 60.00000000000000000, 27.89959613044711517, -28.66378439351648311 ) ) ;
#182 = DIRECTION ( 'NONE',  ( 0.000000000000000000, 0.000000000000000000, -1.000000000000000000 ) ) ;
#183 = VECTOR ( 'NONE', #56, 1000.000000000000114 ) ;
#184 = CIRCLE ( 'NONE', #1206, 65.00000000000000000 ) ;
#185 = CARTESIAN_POINT ( 'NONE',  ( 0.000000000000000000, 0.000000000000000000, 0.000000000000000000 ) ) ;
#186 = EDGE_CURVE ( 'NONE', #647, #480, #691, .T. ) ;
#187 = CARTESIAN_POINT ( 'NONE',  ( 0.000000000000000000, -12.20940169502637751, -3.095341274797152931 ) ) ;
#188 = DIRECTION ( 'NONE',  ( 1.000000000000000000, 0.000000000000000000, 0.000000000000000000 ) ) ;
#189 = ORIENTED_EDGE ( 'NONE', *, *, #1134, .F. ) ;
#190 = CYLINDRICAL_SURFACE ( 'NONE', #5, 90.00000000000001421 ) ;
#191 = CARTESIAN_POINT ( 'NONE',  ( 60.00000000000000000, -4.127581635622850424E-13, 1.165967924086827836E-13 ) ) ;
#192 = DIRECTION ( 'NONE',  ( 0.000000000000000000, -0.9623412800262660660, 0.2718441847040464210 ) ) ;
#193 = CARTESIAN_POINT ( 'NONE',  ( 0.000000000000000000, -4.127581635622850424E-13, 1.165967924086827836E-13 ) ) ;
#194 = ORIENTED_EDGE ( 'NONE', *, *, #1064, .F. ) ;
#195 = CARTESIAN_POINT ( 'NONE',  ( -0.9999999999999453770, 0.000000000000000000, 0.000000000000000000 ) ) ;
#196 = ORIENTED_EDGE ( 'NONE', *, *, #413, .F. ) ;
#197 = ORIENTED_EDGE ( 'NONE', *, *, #643, .F. ) ;
#198 = CARTESIAN_POINT ( 'NONE',  ( 0.000000000000000000, -3.424056670156753412, -12.12132267030008848 ) ) ;
#199 = LINE ( 'NONE', #848, #246 ) ;
#200 = EDGE_CURVE ( 'NONE', #305, #635, #104, .T. ) ;
#201 = AXIS2_PLACEMENT_3D ( 'NONE', #551, #270, #1195 ) ;
#202 = AXIS2_PLACEMENT_3D ( 'NONE', #772, #1048, #975 ) ;
#203 = PERSON_AND_ORGANIZATION ( #678, #149 ) ;
#204 = VECTOR ( 'NONE', #719, 1000.000000000000000 ) ;
#205 = ORIENTED_EDGE ( 'NONE', *, *, #714, .F. ) ;
#206 = CARTESIAN_POINT ( 'NONE',  ( 60.00000000000000000, -12.20940169502637929, -3.095341274797154263 ) ) ;
#207 = DIRECTION ( 'NONE',  ( 1.000000000000000000, 0.000000000000000000, 0.000000000000000000 ) ) ;
#208 = EDGE_LOOP ( 'NONE', ( #883, #409, #157, #95 ) ) ;
#209 = PERSON_AND_ORGANIZATION ( #678, #149 ) ;
#210 = VERTEX_POINT ( 'NONE', #637 ) ;
#211 = PRODUCT_RELATED_PRODUCT_CATEGORY ( 'detail', '', ( #345 ) ) ;
#212 = ORIENTED_EDGE ( 'NONE', *, *, #906, .F. ) ;
#213 = DIRECTION ( 'NONE',  ( 1.000000000000000000, 0.000000000000000000, 0.000000000000000000 ) ) ;
#214 = ORIENTED_EDGE ( 'NONE', *, *, #495, .F. ) ;
#215 = CARTESIAN_POINT ( 'NONE',  ( 0.000000000000000000, -38.49365120105020566, 10.87376738816025323 ) ) ;
#216 = ORIENTED_EDGE ( 'NONE', *, *, #313, .F. ) ;
#217 = EDGE_CURVE ( 'NONE', #1161, #867, #466, .T. ) ;
#218 = EDGE_CURVE ( 'NONE', #1012, #781, #291, .T. ) ;
#219 = ORIENTED_EDGE ( 'NONE', *, *, #404, .F. ) ;
#220 = PLANE ( 'NONE',  #668 ) ;
#221 = DIRECTION ( 'NONE',  ( 0.000000000000000000, 0.000000000000000000, -1.000000000000000000 ) ) ;
#222 = VERTEX_POINT ( 'NONE', #45 ) ;
#223 = EDGE_LOOP ( 'NONE', ( #108, #896, #827, #1040 ) ) ;
#224 = CIRCLE ( 'NONE', #908, 12.59565906802719937 ) ;
#225 = EDGE_LOOP ( 'NONE', ( #697, #421, #18, #85 ) ) ;
#226 = CARTESIAN_POINT ( 'NONE',  ( 0.000000000000000000, 9.025981395504320659, 8.785345024868725261 ) ) ;
#227 = CIRCLE ( 'NONE', #838, 90.00000000000001421 ) ;
#228 = VECTOR ( 'NONE', #442, 1000.000000000000000 ) ;
#229 = ORIENTED_EDGE ( 'NONE', *, *, #1115, .T. ) ;
#230 = DIRECTION ( 'NONE',  ( 1.000000000000000000, -0.000000000000000000, -0.000000000000000000 ) ) ;
#231 = ORIENTED_EDGE ( 'NONE', *, *, #1, .F. ) ;
#232 = ORIENTED_EDGE ( 'NONE', *, *, #310, .T. ) ;
#233 = CARTESIAN_POINT ( 'NONE',  ( 60.00000000000000000, 1.155504264518950027E-13, -1.187154285284261269E-13 ) ) ;
#234 = ORIENTED_EDGE ( 'NONE', *, *, #35, .T. ) ;
#235 = CARTESIAN_POINT ( 'NONE',  ( 25.00000000000000000, 0.000000000000000000, 0.000000000000000000 ) ) ;
#236 = EDGE_CURVE ( 'NONE', #621, #740, #328, .T. ) ;
#237 = CALENDAR_DATE ( 2026, 14, 8 ) ;
#238 = ORIENTED_EDGE ( 'NONE', *, *, #11, .T. ) ;
#239 = DIRECTION ( 'NONE',  ( 0.000000000000000000, 0.000000000000000000, -1.000000000000000000 ) ) ;
#240 = ORIENTED_EDGE ( 'NONE', *, *, #522, .F. ) ;
#241 = CARTESIAN_POINT ( 'NONE',  ( 60.00000000000000000, 38.49365120105063198, -10.87376738816190880 ) ) ;
#242 = DIRECTION ( 'NONE',  ( -1.000000000000000000, -0.000000000000000000, -0.000000000000000000 ) ) ;
#243 = APPROVAL_ROLE ( '' ) ;
#244 = ORIENTED_EDGE ( 'NONE', *, *, #825, .F. ) ;
#245 = CARTESIAN_POINT ( 'NONE',  ( 0.000000000000000000, -9.025981395503221094, -8.785345024869856800 ) ) ;
#246 = VECTOR ( 'NONE', #1211, 1000.000000000000000 ) ;
#247 = EDGE_LOOP ( 'NONE', ( #815, #66, #288, #261 ) ) ;
#248 = AXIS2_PLACEMENT_3D ( 'NONE', #839, #1024, #376 ) ;
#249 = CARTESIAN_POINT ( 'NONE',  ( 25.00000000000000000, 0.000000000000000000, 90.00000000000001421 ) ) ;
#250 = CIRCLE ( 'NONE', #1168, 65.00000000000000000 ) ;
#251 = VERTEX_POINT ( 'NONE', #738 ) ;
#252 = DIRECTION ( 'NONE',  ( 0.000000000000000000, 0.000000000000000000, -1.000000000000000000 ) ) ;
#253 = DIRECTION ( 'NONE',  ( 0.000000000000000000, 0.000000000000000000, -1.000000000000000000 ) ) ;
#254 = CARTESIAN_POINT ( 'NONE',  ( 0.000000000000000000, 1.029064269082054350E-12, -1.057251015323841880E-12 ) ) ;
#255 = ORIENTED_EDGE ( 'NONE', *, *, #969, .F. ) ;
#256 = CARTESIAN_POINT ( 'NONE',  ( 60.00000000000000000, 12.12132267029973676, -3.424056670157999083 ) ) ;
#257 = EDGE_CURVE ( 'NONE', #395, #558, #639, .T. ) ;
#258 = ORIENTED_EDGE ( 'NONE', *, *, #131, .F. ) ;
#259 = DIRECTION ( 'NONE',  ( 0.000000000000000000, -0.9623412800262657329, 0.2718441847040476422 ) ) ;
#260 = FACE_OUTER_BOUND ( 'NONE', #742, .T. ) ;
#261 = ORIENTED_EDGE ( 'NONE', *, *, #957, .F. ) ;
#262 = CARTESIAN_POINT ( 'NONE',  ( 34.99999999999999289, 7.960204194457797252E-15, 65.00000000000000000 ) ) ;
#263 = AXIS2_PLACEMENT_3D ( 'NONE', #103, #188, #498 ) ;
#264 = AXIS2_PLACEMENT_3D ( 'NONE', #1030, #1132, #923 ) ;
#265 = VECTOR ( 'NONE', #1212, 999.9999999999998863 ) ;
#266 = EDGE_LOOP ( 'NONE', ( #508, #496, #902, #641 ) ) ;
#267 =( LENGTH_UNIT ( ) NAMED_UNIT ( * ) SI_UNIT ( .MILLI., .METRE. ) );
#268 = ORIENTED_EDGE ( 'NONE', *, *, #960, .F. ) ;
#269 = DIRECTION ( 'NONE',  ( 0.000000000000000000, 0.000000000000000000, -1.000000000000000000 ) ) ;
#270 = DIRECTION ( 'NONE',  ( 1.000000000000000000, -0.000000000000000000, -0.000000000000000000 ) ) ;
#271 = ADVANCED_FACE ( 'NONE', ( #579 ), #1114, .F. ) ;
#272 = VERTEX_POINT ( 'NONE', #854 ) ;
#273 = DIRECTION ( 'NONE',  ( 1.000000000000000000, 0.000000000000000000, 0.000000000000000000 ) ) ;
#274 = CARTESIAN_POINT ( 'NONE',  ( 0.000000000000000000, -28.66378439351526097, -27.89959613044731412 ) ) ;
#275 = FACE_OUTER_BOUND ( 'NONE', #441, .T. ) ;
#276 = DIRECTION ( 'NONE',  ( 1.000000000000000000, 0.000000000000000000, 0.000000000000000000 ) ) ;
#277 = ORIENTED_EDGE ( 'NONE', *, *, #1130, .F. ) ;
#278 = EDGE_CURVE ( 'NONE', #898, #773, #476, .T. ) ;
#279 = UNCERTAINTY_MEASURE_WITH_UNIT (LENGTH_MEASURE( 1.000000000000000082E-05 ), #267, 'distance_accuracy_value', 'NONE');
#280 = CARTESIAN_POINT ( 'NONE',  ( 0.000000000000000000, 0.000000000000000000, 0.000000000000000000 ) ) ;
#281 = CARTESIAN_POINT ( 'NONE',  ( 0.000000000000000000, 12.12132267029973853, -3.424056670157999971 ) ) ;
#282 = LINE ( 'NONE', #493, #684 ) ;
#283 = VECTOR ( 'NONE', #1126, 1000.000000000000000 ) ;
#284 = TOROIDAL_SURFACE ( 'NONE', #548, 65.00000000000000000, 25.00000000000000000 ) ;
#285 = VECTOR ( 'NONE', #938, 1000.000000000000114 ) ;
#286 = CARTESIAN_POINT ( 'NONE',  ( 0.000000000000000000, 0.000000000000000000, 0.000000000000000000 ) ) ;
#287 = EDGE_CURVE ( 'NONE', #953, #1058, #1215, .T. ) ;
#288 = ORIENTED_EDGE ( 'NONE', *, *, #1177, .T. ) ;
#289 = DIRECTION ( 'NONE',  ( 0.000000000000000000, 0.000000000000000000, -1.000000000000000000 ) ) ;
#290 = DIRECTION ( 'NONE',  ( 0.000000000000000000, -0.2718441847040464210, -0.9623412800262660660 ) ) ;
#291 = LINE ( 'NONE', #193, #1021 ) ;
#292 = EDGE_CURVE ( 'NONE', #1034, #1196, #368, .T. ) ;
#293 = DIRECTION ( 'NONE',  ( 1.000000000000000000, -0.000000000000000000, -0.000000000000000000 ) ) ;
#294 = ORIENTED_EDGE ( 'NONE', *, *, #960, .T. ) ;
#295 = LINE ( 'NONE', #191, #949 ) ;
#296 = EDGE_CURVE ( 'NONE', #1075, #792, #443, .T. ) ;
#297 = CARTESIAN_POINT ( 'NONE',  ( 0.000000000000000000, -7.171710942422546452E-13, -1.818180238924004621E-13 ) ) ;
#298 = EDGE_LOOP ( 'NONE', ( #125, #372, #718, #734 ) ) ;
#299 = FACE_BOUND ( 'NONE', #118, .T. ) ;
#300 = DIRECTION ( 'NONE',  ( 1.000000000000000000, 0.000000000000000000, 0.000000000000000000 ) ) ;
#301 = ORIENTED_EDGE ( 'NONE', *, *, #186, .F. ) ;
#302 = AXIS2_PLACEMENT_3D ( 'NONE', #780, #794, #314 ) ;
#303 = CIRCLE ( 'NONE', #388, 40.00000000000000000 ) ;
#304 = CALENDAR_DATE ( 2026, 14, 8 ) ;
#305 = VERTEX_POINT ( 'NONE', #1044 ) ;
#306 = AXIS2_PLACEMENT_3D ( 'NONE', #617, #309, #865 ) ;
#307 = LOCAL_TIME ( 9, 59, 39.00000000000000000, #534 ) ;
#308 = ORIENTED_EDGE ( 'NONE', *, *, #721, .F. ) ;
#309 = DIRECTION ( 'NONE',  ( 0.000000000000000000, -0.9693340879652042608, -0.2457466701883584126 ) ) ;
#310 = EDGE_CURVE ( 'NONE', #699, #1090, #145, .T. ) ;
#311 = DIRECTION ( 'NONE',  ( 0.000000000000000000, 0.000000000000000000, -1.000000000000000000 ) ) ;
#312 = DIRECTION ( 'NONE',  ( 1.000000000000000000, -0.000000000000000000, -0.000000000000000000 ) ) ;
#313 = EDGE_CURVE ( 'NONE', #458, #746, #835, .T. ) ;
#314 = DIRECTION ( 'NONE',  ( 0.000000000000000000, 0.000000000000000000, -1.000000000000000000 ) ) ;
#315 = ORIENTED_EDGE ( 'NONE', *, *, #1134, .T. ) ;
#316 = ORIENTED_EDGE ( 'NONE', *, *, #338, .F. ) ;
#317 = DIRECTION ( 'NONE',  ( 1.000000000000000000, -0.000000000000000000, 0.000000000000000000 ) ) ;
#318 = ORIENTED_EDGE ( 'NONE', *, *, #733, .T. ) ;
#319 = DIRECTION ( 'NONE',  ( 0.000000000000000000, 0.000000000000000000, -1.000000000000000000 ) ) ;
#320 = CARTESIAN_POINT ( 'NONE',  ( 0.000000000000000000, 0.000000000000000000, 0.000000000000000000 ) ) ;
#321 = CC_DESIGN_PERSON_AND_ORGANIZATION_ASSIGNMENT ( #1169, #435, ( #840 ) ) ;
#322 = VERTEX_POINT ( 'NONE', #955 ) ;
#323 = DIRECTION ( 'NONE',  ( 0.000000000000000000, 0.9623412800262657329, -0.2718441847040476977 ) ) ;
#324 = VERTEX_POINT ( 'NONE', #950 ) ;
#325 = DIRECTION ( 'NONE',  ( 0.000000000000000000, -0.9623412800262658440, 0.2718441847040476422 ) ) ;
#326 = CARTESIAN_POINT ( 'NONE',  ( 34.99999999999999289, 0.000000000000000000, -65.00000000000000000 ) ) ;
#327 = AXIS2_PLACEMENT_3D ( 'NONE', #320, #726, #253 ) ;
#328 = CIRCLE ( 'NONE', #925, 65.00000000000000000 ) ;
#329 = DIRECTION ( 'NONE',  ( 0.000000000000000000, 0.000000000000000000, -1.000000000000000000 ) ) ;
#330 = AXIS2_PLACEMENT_3D ( 'NONE', #636, #366, #269 ) ;
#331 = APPROVAL_PERSON_ORGANIZATION ( #342, #543, #807 ) ;
#332 = EDGE_CURVE ( 'NONE', #101, #1161, #199, .T. ) ;
#333 = CARTESIAN_POINT ( 'NONE',  ( 0.000000000000000000, 7.150691859941823557E-13, 1.812851457450015893E-13 ) ) ;
#334 = DATE_AND_TIME ( #1081, #307 ) ;
#335 = CARTESIAN_POINT ( 'NONE',  ( -0.9999999999999453770, 0.000000000000000000, 0.000000000000000000 ) ) ;
#336 = CARTESIAN_POINT ( 'NONE',  ( -0.9999999999999453770, 8.785345024869116060, -9.025981395503940519 ) ) ;
#337 = PERSON_AND_ORGANIZATION ( #678, #149 ) ;
#338 = EDGE_CURVE ( 'NONE', #1014, #946, #749, .T. ) ;
#339 = CARTESIAN_POINT ( 'NONE',  ( -0.9999999999999453770, -3.424056670156753412, -12.12132267030008848 ) ) ;
#340 = ORIENTED_EDGE ( 'NONE', *, *, #1103, .F. ) ;
#341 = DIRECTION ( 'NONE',  ( 0.000000000000000000, 0.000000000000000000, -1.000000000000000000 ) ) ;
#342 = PERSON_AND_ORGANIZATION ( #678, #149 ) ;
#343 = EDGE_LOOP ( 'NONE', ( #132, #959 ) ) ;
#344 = CARTESIAN_POINT ( 'NONE',  ( 60.00000000000000000, 4.188422238552969232E-13, -1.652099882984794978E-12 ) ) ;
#345 = PRODUCT ( 'W_Default_sldprt', 'W_Default_sldprt', '', ( #539 ) ) ;
#346 = AXIS2_PLACEMENT_3D ( 'NONE', #845, #380, #753 ) ;
#347 = CIRCLE ( 'NONE', #127, 12.59565906802719937 ) ;
#348 = ORIENTED_EDGE ( 'NONE', *, *, #873, .T. ) ;
#349 = EDGE_CURVE ( 'NONE', #869, #401, #1019, .T. ) ;
#350 = AXIS2_PLACEMENT_3D ( 'NONE', #943, #91, #105 ) ;
#351 = APPLICATION_CONTEXT ( 'configuration controlled 3d designs of mechanical parts and assemblies' ) ;
#352 = ORIENTED_EDGE ( 'NONE', *, *, #733, .F. ) ;
#353 = EDGE_CURVE ( 'NONE', #876, #305, #110, .T. ) ;
#354 = CARTESIAN_POINT ( 'NONE',  ( 60.00000000000000000, -2.131512589594385448E-16, 8.407632992289033314E-16 ) ) ;
#355 = ORIENTED_EDGE ( 'NONE', *, *, #313, .T. ) ;
#356 = FACE_OUTER_BOUND ( 'NONE', #829, .T. ) ;
#357 = VERTEX_POINT ( 'NONE', #394 ) ;
#358 = EDGE_CURVE ( 'NONE', #876, #251, #282, .T. ) ;
#359 = CARTESIAN_POINT ( 'NONE',  ( 25.00000000000000000, 0.000000000000000000, 0.000000000000000000 ) ) ;
#360 = FACE_OUTER_BOUND ( 'NONE', #591, .T. ) ;
#361 = ORIENTED_EDGE ( 'NONE', *, *, #750, .F. ) ;
#362 = ADVANCED_FACE ( 'NONE', ( #764 ), #1111, .F. ) ;
#363 =( NAMED_UNIT ( * ) PLANE_ANGLE_UNIT ( ) SI_UNIT ( $, .RADIAN. ) );
#364 = ORIENTED_EDGE ( 'NONE', *, *, #131, .T. ) ;
#365 = ORIENTED_EDGE ( 'NONE', *, *, #1043, .F. ) ;
#366 = DIRECTION ( 'NONE',  ( 1.000000000000000000, -0.000000000000000000, 0.000000000000000000 ) ) ;
#367 = ADVANCED_FACE ( 'NONE', ( #275 ), #659, .T. ) ;
#368 = CIRCLE ( 'NONE', #263, 12.59565906802719937 ) ;
#369 = CIRCLE ( 'NONE', #28, 40.00000000000000000 ) ;
#370 = CARTESIAN_POINT ( 'NONE',  ( -0.9999999999999453770, -12.20940169502637751, -3.095341274797152931 ) ) ;
#371 = AXIS2_PLACEMENT_3D ( 'NONE', #1086, #808, #252 ) ;
#372 = ORIENTED_EDGE ( 'NONE', *, *, #440, .T. ) ;
#373 = EDGE_CURVE ( 'NONE', #210, #739, #871, .T. ) ;
#374 = CARTESIAN_POINT ( 'NONE',  ( 0.000000000000000000, -8.785345024869730679, 9.025981395503341886 ) ) ;
#375 = ORIENTED_EDGE ( 'NONE', *, *, #841, .T. ) ;
#376 = DIRECTION ( 'NONE',  ( 0.000000000000000000, 0.000000000000000000, -1.000000000000000000 ) ) ;
#377 = DIRECTION ( 'NONE',  ( 0.000000000000000000, 0.7165946098379037954, 0.6974899032611600047 ) ) ;
#378 = LINE ( 'NONE', #850, #265 ) ;
#379 = PLANE ( 'NONE',  #248 ) ;
#380 = DIRECTION ( 'NONE',  ( 1.000000000000000000, -0.000000000000000000, 0.000000000000000000 ) ) ;
#381 = ORIENTED_EDGE ( 'NONE', *, *, #747, .F. ) ;
#382 = FACE_OUTER_BOUND ( 'NONE', #638, .T. ) ;
#383 = ORIENTED_EDGE ( 'NONE', *, *, #1064, .T. ) ;
#384 = DIRECTION ( 'NONE',  ( 0.000000000000000000, 0.000000000000000000, -1.000000000000000000 ) ) ;
#385 = DIRECTION ( 'NONE',  ( 1.000000000000000000, -0.000000000000000000, -0.000000000000000000 ) ) ;
#386 = EDGE_CURVE ( 'NONE', #756, #1062, #1101, .T. ) ;
#387 = VECTOR ( 'NONE', #708, 1000.000000000000114 ) ;
#388 = AXIS2_PLACEMENT_3D ( 'NONE', #420, #1162, #329 ) ;
#389 = VECTOR ( 'NONE', #910, 1000.000000000000000 ) ;
#390 = CARTESIAN_POINT ( 'NONE',  ( 60.00000000000000000, -4.013098901508176748E-13, -1.420656004819026860E-12 ) ) ;
#391 = ADVANCED_FACE ( 'NONE', ( #14 ), #399, .F. ) ;
#392 = ORIENTED_EDGE ( 'NONE', *, *, #679, .T. ) ;
#393 = FACE_OUTER_BOUND ( 'NONE', #1170, .T. ) ;
#394 = CARTESIAN_POINT ( 'NONE',  ( -0.9999999999999453770, 0.000000000000000000, -12.59565906802719937 ) ) ;
#395 = VERTEX_POINT ( 'NONE', #872 ) ;
#396 = PERSON_AND_ORGANIZATION_ROLE ( 'creator' ) ;
#397 = ORIENTED_EDGE ( 'NONE', *, *, #35, .F. ) ;
#398 = CARTESIAN_POINT ( 'NONE',  ( 0.000000000000000000, 3.045579056488428747E-13, 2.964382668137608327E-13 ) ) ;
#399 = PLANE ( 'NONE',  #758 ) ;
#400 = CYLINDRICAL_SURFACE ( 'NONE', #201, 40.00000000000000000 ) ;
#401 = VERTEX_POINT ( 'NONE', #619 ) ;
#402 = LINE ( 'NONE', #233, #703 ) ;
#403 = CARTESIAN_POINT ( 'NONE',  ( 0.000000000000000000, -9.829866807534754614, 38.77336351860674313 ) ) ;
#404 = EDGE_CURVE ( 'NONE', #1088, #357, #1138, .T. ) ;
#405 = DIRECTION ( 'NONE',  ( 0.000000000000000000, 0.000000000000000000, -1.000000000000000000 ) ) ;
#406 = LINE ( 'NONE', #160, #483 ) ;
#407 = CIRCLE ( 'NONE', #1080, 10.00000000000000000 ) ;
#408 = VECTOR ( 'NONE', #475, 1000.000000000000000 ) ;
#409 = ORIENTED_EDGE ( 'NONE', *, *, #332, .T. ) ;
#410 = AXIS2_PLACEMENT_3D ( 'NONE', #904, #996, #712 ) ;
#411 = DIRECTION ( 'NONE',  ( 0.000000000000000000, -0.2457466701883587179, 0.9693340879652040387 ) ) ;
#412 = CARTESIAN_POINT ( 'NONE',  ( 0.000000000000000000, 12.20940169502679495, 3.095341274795501363 ) ) ;
#413 = EDGE_CURVE ( 'NONE', #357, #1088, #581, .T. ) ;
#414 = ORIENTED_EDGE ( 'NONE', *, *, #186, .T. ) ;
#415 = DIRECTION ( 'NONE',  ( 0.000000000000000000, 0.000000000000000000, -1.000000000000000000 ) ) ;
#416 = ORIENTED_EDGE ( 'NONE', *, *, #482, .T. ) ;
#417 = DIRECTION ( 'NONE',  ( 1.000000000000000000, -0.000000000000000000, 0.000000000000000000 ) ) ;
#418 = DIRECTION ( 'NONE',  ( 1.000000000000000000, -0.000000000000000000, -0.000000000000000000 ) ) ;
#419 = EDGE_CURVE ( 'NONE', #740, #571, #124, .T. ) ;
#420 = CARTESIAN_POINT ( 'NONE',  ( 60.00000000000000000, 0.000000000000000000, 0.000000000000000000 ) ) ;
#421 = ORIENTED_EDGE ( 'NONE', *, *, #162, .T. ) ;
#422 = FACE_OUTER_BOUND ( 'NONE', #208, .T. ) ;
#423 = PERSON_AND_ORGANIZATION_ROLE ( 'creator' ) ;
#424 = VECTOR ( 'NONE', #276, 1000.000000000000000 ) ;
#425 = ORIENTED_EDGE ( 'NONE', *, *, #373, .T. ) ;
#426 = AXIS2_PLACEMENT_3D ( 'NONE', #936, #207, #484 ) ;
#427 = EDGE_CURVE ( 'NONE', #458, #1196, #36, .T. ) ;
#428 = DIRECTION ( 'NONE',  ( 0.000000000000000000, 0.000000000000000000, -1.000000000000000000 ) ) ;
#429 = AXIS2_PLACEMENT_3D ( 'NONE', #598, #1089, #1187 ) ;
#430 = AXIS2_PLACEMENT_3D ( 'NONE', #1112, #84, #470 ) ;
#431 = CARTESIAN_POINT ( 'NONE',  ( 60.00000000000000000, 3.045579056488428747E-13, 2.964382668137608327E-13 ) ) ;
#432 = LINE ( 'NONE', #57, #469 ) ;
#433 = ORIENTED_EDGE ( 'NONE', *, *, #695, .F. ) ;
#434 = CARTESIAN_POINT ( 'NONE',  ( 60.00000000000000000, 3.424056670157564319, 12.12132267029985755 ) ) ;
#435 = PERSON_AND_ORGANIZATION_ROLE ( 'classification_officer' ) ;
#436 = DIRECTION ( 'NONE',  ( -1.000000000000000000, -0.000000000000000000, -0.000000000000000000 ) ) ;
#437 = ORIENTED_EDGE ( 'NONE', *, *, #569, .T. ) ;
#438 = ORIENTED_EDGE ( 'NONE', *, *, #928, .T. ) ;
#439 = DIRECTION ( 'NONE',  ( 0.000000000000000000, 1.000000000000000000, -1.224646799147353207E-16 ) ) ;
#440 = EDGE_CURVE ( 'NONE', #458, #272, #689, .T. ) ;
#441 = EDGE_LOOP ( 'NONE', ( #194, #294, #1188, #361 ) ) ;
#442 = DIRECTION ( 'NONE',  ( 1.000000000000000000, 0.000000000000000000, 0.000000000000000000 ) ) ;
#443 = CIRCLE ( 'NONE', #1042, 12.59565906802719937 ) ;
#444 = ORIENTED_EDGE ( 'NONE', *, *, #1177, .F. ) ;
#445 = AXIS2_PLACEMENT_3D ( 'NONE', #1107, #744, #1005 ) ;
#446 = DIRECTION ( 'NONE',  ( 0.000000000000000000, 0.000000000000000000, -1.000000000000000000 ) ) ;
#447 = LOCAL_TIME ( 9, 59, 39.00000000000000000, #150 ) ;
#448 = DIRECTION ( 'NONE',  ( 1.000000000000000000, 0.000000000000000000, 0.000000000000000000 ) ) ;
#449 = CC_DESIGN_DATE_AND_TIME_ASSIGNMENT ( #334, #1073, ( #840 ) ) ;
#450 = EDGE_LOOP ( 'NONE', ( #796, #473, #907, #114 ) ) ;
#451 = DIRECTION ( 'NONE',  ( 0.000000000000000000, -0.2718441847040464210, -0.9623412800262660660 ) ) ;
#452 = ORIENTED_EDGE ( 'NONE', *, *, #151, .T. ) ;
#453 = PLANE ( 'NONE',  #1118 ) ;
#454 = ORIENTED_EDGE ( 'NONE', *, *, #287, .F. ) ;
#455 = EDGE_LOOP ( 'NONE', ( #196, #219 ) ) ;
#456 = CARTESIAN_POINT ( 'NONE',  ( 34.99999999999999289, 0.000000000000000000, 90.00000000000001421 ) ) ;
#457 = EDGE_CURVE ( 'NONE', #586, #401, #407, .T. ) ;
#458 = VERTEX_POINT ( 'NONE', #1059 ) ;
#459 = DIRECTION ( 'NONE',  ( 0.000000000000000000, 0.000000000000000000, -1.000000000000000000 ) ) ;
#460 = EDGE_CURVE ( 'NONE', #1012, #635, #984, .T. ) ;
#461 = ORIENTED_EDGE ( 'NONE', *, *, #218, .F. ) ;
#462 = DIRECTION ( 'NONE',  ( 1.000000000000000000, 0.000000000000000000, 0.000000000000000000 ) ) ;
#463 = CLOSED_SHELL ( 'NONE', ( #179, #1006, #502, #589, #1174, #1031, #730, #141, #583, #1099, #939, #696, #787, #391, #148, #65, #857, #783, #271, #362, #367, #93, #937, #615, #651, #478, #89, #1216, #919, #1145, #1213, #1191 ) ) ;
#464 = EDGE_LOOP ( 'NONE', ( #454, #1147, #652, #308 ) ) ;
#465 = DIRECTION ( 'NONE',  ( 0.000000000000000000, 0.000000000000000000, -1.000000000000000000 ) ) ;
#466 = CIRCLE ( 'NONE', #88, 12.59565906802719937 ) ;
#467 = AXIS2_PLACEMENT_3D ( 'NONE', #398, #670, #681 ) ;
#468 =( GEOMETRIC_REPRESENTATION_CONTEXT ( 3 ) GLOBAL_UNCERTAINTY_ASSIGNED_CONTEXT ( ( #279 ) ) GLOBAL_UNIT_ASSIGNED_CONTEXT ( ( #267, #363, #1104 ) ) REPRESENTATION_CONTEXT ( 'NONE', 'WORKASPACE' ) );
#469 = VECTOR ( 'NONE', #67, 1000.000000000000000 ) ;
#470 = DIRECTION ( 'NONE',  ( 0.000000000000000000, 0.000000000000000000, -1.000000000000000000 ) ) ;
#471 = CARTESIAN_POINT ( 'NONE',  ( 0.000000000000000000, 0.000000000000000000, 0.000000000000000000 ) ) ;
#472 = CARTESIAN_POINT ( 'NONE',  ( 0.000000000000000000, 0.000000000000000000, 0.000000000000000000 ) ) ;
#473 = ORIENTED_EDGE ( 'NONE', *, *, #633, .T. ) ;
#474 = EDGE_CURVE ( 'NONE', #1062, #1001, #1072, .T. ) ;
#475 = DIRECTION ( 'NONE',  ( 1.000000000000000000, -0.000000000000000000, -0.000000000000000000 ) ) ;
#476 = LINE ( 'NONE', #671, #283 ) ;
#477 = FACE_OUTER_BOUND ( 'NONE', #223, .T. ) ;
#478 = ADVANCED_FACE ( 'NONE', ( #422 ), #30, .F. ) ;
#479 = LINE ( 'NONE', #390, #285 ) ;
#480 = VERTEX_POINT ( 'NONE', #241 ) ;
#481 = CARTESIAN_POINT ( 'NONE',  ( 0.000000000000000000, 9.491012693391988181E-15, 65.00000000000000000 ) ) ;
#482 = EDGE_CURVE ( 'NONE', #1012, #129, #505, .T. ) ;
#483 = VECTOR ( 'NONE', #813, 1000.000000000000000 ) ;
#484 = DIRECTION ( 'NONE',  ( 0.000000000000000000, 0.000000000000000000, -1.000000000000000000 ) ) ;
#485 = VERTEX_POINT ( 'NONE', #412 ) ;
#486 = AXIS2_PLACEMENT_3D ( 'NONE', #941, #860, #666 ) ;
#487 = AXIS2_PLACEMENT_3D ( 'NONE', #92, #1125, #465 ) ;
#488 = CC_DESIGN_PERSON_AND_ORGANIZATION_ASSIGNMENT ( #337, #423, ( #855 ) ) ;
#489 = AXIS2_PLACEMENT_3D ( 'NONE', #100, #1033, #843 ) ;
#490 = CYLINDRICAL_SURFACE ( 'NONE', #532, 40.00000000000000000 ) ;
#491 = ORIENTED_EDGE ( 'NONE', *, *, #886, .T. ) ;
#492 = DIRECTION ( 'NONE',  ( 1.000000000000000000, -0.000000000000000000, -0.000000000000000000 ) ) ;
#493 = CARTESIAN_POINT ( 'NONE',  ( 0.000000000000000000, 1.155504264518950027E-13, -1.187154285284261269E-13 ) ) ;
#494 = PERSON_AND_ORGANIZATION ( #678, #149 ) ;
#495 = EDGE_CURVE ( 'NONE', #480, #946, #702, .T. ) ;
#496 = ORIENTED_EDGE ( 'NONE', *, *, #540, .T. ) ;
#497 = FACE_OUTER_BOUND ( 'NONE', #607, .T. ) ;
#498 = DIRECTION ( 'NONE',  ( 0.000000000000000000, 0.000000000000000000, -1.000000000000000000 ) ) ;
#499 = CARTESIAN_POINT ( 'NONE',  ( 0.000000000000000000, 27.89959613044711517, -28.66378439351648311 ) ) ;
#500 = EDGE_LOOP ( 'NONE', ( #1160, #1084 ) ) ;
#501 = FACE_OUTER_BOUND ( 'NONE', #144, .T. ) ;
#502 = ADVANCED_FACE ( 'NONE', ( #146 ), #606, .T. ) ;
#503 = CARTESIAN_POINT ( 'NONE',  ( 0.000000000000000000, 3.045579056488428747E-13, 2.964382668137608327E-13 ) ) ;
#504 = EDGE_LOOP ( 'NONE', ( #78, #790, #821, #6 ) ) ;
#505 = CIRCLE ( 'NONE', #1182, 12.59565906802719937 ) ;
#506 = CIRCLE ( 'NONE', #759, 12.59565906802719937 ) ;
#507 = DIRECTION ( 'NONE',  ( 1.000000000000000000, 0.000000000000000000, 0.000000000000000000 ) ) ;
#508 = ORIENTED_EDGE ( 'NONE', *, *, #292, .T. ) ;
#509 = CIRCLE ( 'NONE', #53, 40.00000000000000000 ) ;
#510 = ORIENTED_EDGE ( 'NONE', *, *, #427, .T. ) ;
#511 = DIRECTION ( 'NONE',  ( 0.000000000000000000, 0.9623412800262657329, -0.2718441847040476977 ) ) ;
#512 = DIRECTION ( 'NONE',  ( 1.000000000000000000, 0.000000000000000000, 0.000000000000000000 ) ) ;
#513 = DIRECTION ( 'NONE',  ( 1.000000000000000000, 0.000000000000000000, 0.000000000000000000 ) ) ;
#514 = EDGE_CURVE ( 'NONE', #68, #62, #139, .T. ) ;
#515 = CARTESIAN_POINT ( 'NONE',  ( 0.000000000000000000, 0.000000000000000000, 0.000000000000000000 ) ) ;
#516 = ORIENTED_EDGE ( 'NONE', *, *, #846, .T. ) ;
#517 = CARTESIAN_POINT ( 'NONE',  ( 60.00000000000000000, -3.095341274796207465, 12.20940169502661554 ) ) ;
#518 = EDGE_LOOP ( 'NONE', ( #728, #616, #244, #998 ) ) ;
#519 = CARTESIAN_POINT ( 'NONE',  ( -64.00000000000000000, 1.224646799147330380E-15, 9.999999999999628741 ) ) ;
#520 = DIRECTION ( 'NONE',  ( 0.000000000000000000, 0.2718441847040476422, 0.9623412800262658440 ) ) ;
#521 = DATE_AND_TIME ( #10, #447 ) ;
#522 = EDGE_CURVE ( 'NONE', #153, #597, #224, .T. ) ;
#523 = DIRECTION ( 'NONE',  ( 0.000000000000000000, 0.9623412800262657329, -0.2718441847040476977 ) ) ;
#524 = DIRECTION ( 'NONE',  ( 0.000000000000000000, 0.000000000000000000, -1.000000000000000000 ) ) ;
#525 = COORDINATED_UNIVERSAL_TIME_OFFSET ( 5, 30, .AHEAD. ) ;
#526 = APPLICATION_CONTEXT ( 'configuration controlled 3d designs of mechanical parts and assemblies' ) ;
#527 = PRODUCT_DEFINITION_SHAPE ( 'NONE', 'NONE',  #1199 ) ;
#528 = FACE_OUTER_BOUND ( 'NONE', #832, .T. ) ;
#529 = VECTOR ( 'NONE', #512, 1000.000000000000000 ) ;
#530 = CYLINDRICAL_SURFACE ( 'NONE', #410, 90.00000000000001421 ) ;
#531 = AXIS2_PLACEMENT_3D ( 'NONE', #1018, #7, #289 ) ;
#532 = AXIS2_PLACEMENT_3D ( 'NONE', #185, #856, #836 ) ;
#533 = LINE ( 'NONE', #254, #608 ) ;
#534 = COORDINATED_UNIVERSAL_TIME_OFFSET ( 5, 30, .AHEAD. ) ;
#535 = CARTESIAN_POINT ( 'NONE',  ( 60.00000000000000000, -28.66378439351526097, -27.89959613044731412 ) ) ;
#536 = EDGE_CURVE ( 'NONE', #322, #324, #1166, .T. ) ;
#537 = DIRECTION ( 'NONE',  ( 0.000000000000000000, -1.000000000000000000, 0.000000000000000000 ) ) ;
#538 = CARTESIAN_POINT ( 'NONE',  ( 25.00000000000000000, 1.102182119232618069E-14, -90.00000000000001421 ) ) ;
#539 = MECHANICAL_CONTEXT ( 'NONE', #526, 'mechanical' ) ;
#540 = EDGE_CURVE ( 'NONE', #1196, #739, #21, .T. ) ;
#541 = DIRECTION ( 'NONE',  ( 0.000000000000000000, 0.000000000000000000, -1.000000000000000000 ) ) ;
#542 = EDGE_LOOP ( 'NONE', ( #163, #355, #924, #1151, #381, #986, #645, #1061, #461, #416, #1095, #176, #119, #59, #80, #392, #375, #716, #232, #834, #602, #268, #1093, #1007, #771, #171 ) ) ;
#543 = APPROVAL ( #715, 'UNSPECIFIED' ) ;
#544 = ORIENTED_EDGE ( 'NONE', *, *, #38, .T. ) ;
#545 = CARTESIAN_POINT ( 'NONE',  ( 60.00000000000000000, 0.000000000000000000, -65.00000000000000000 ) ) ;
#546 = VECTOR ( 'NONE', #806, 1000.000000000000114 ) ;
#547 = ORIENTED_EDGE ( 'NONE', *, *, #236, .F. ) ;
#548 = AXIS2_PLACEMENT_3D ( 'NONE', #913, #166, #341 ) ;
#549 = CARTESIAN_POINT ( 'NONE',  ( -0.9999999999999453770, 0.000000000000000000, -10.00000000000000000 ) ) ;
#550 = AXIS2_PLACEMENT_3D ( 'NONE', #286, #273, #1029 ) ;
#551 = CARTESIAN_POINT ( 'NONE',  ( 0.000000000000000000, 0.000000000000000000, 0.000000000000000000 ) ) ;
#552 = DIRECTION ( 'NONE',  ( 1.000000000000000000, -0.000000000000000000, 0.000000000000000000 ) ) ;
#553 = ORIENTED_EDGE ( 'NONE', *, *, #514, .T. ) ;
#554 = PLANE ( 'NONE',  #801 ) ;
#555 = EDGE_CURVE ( 'NONE', #597, #773, #776, .T. ) ;
#556 = FACE_OUTER_BOUND ( 'NONE', #1106, .T. ) ;
#557 = DIRECTION ( 'NONE',  ( 1.000000000000000000, -0.000000000000000000, 0.000000000000000000 ) ) ;
#558 = VERTEX_POINT ( 'NONE', #403 ) ;
#559 = ADVANCED_BREP_SHAPE_REPRESENTATION ( 'W_Default_sldprt', ( #595, #894 ), #468 ) ;
#560 = PLANE ( 'NONE',  #350 ) ;
#561 = CARTESIAN_POINT ( 'NONE',  ( 60.00000000000000000, 0.000000000000000000, 0.000000000000000000 ) ) ;
#562 = AXIS2_PLACEMENT_3D ( 'NONE', #1015, #23, #16 ) ;
#563 = AXIS2_PLACEMENT_3D ( 'NONE', #763, #578, #947 ) ;
#564 = DIRECTION ( 'NONE',  ( 0.000000000000000000, -0.2457466701883587734, 0.9693340879652041497 ) ) ;
#565 = CIRCLE ( 'NONE', #430, 9.999999999999628741 ) ;
#566 = EDGE_CURVE ( 'NONE', #62, #137, #1167, .T. ) ;
#567 = EDGE_LOOP ( 'NONE', ( #42, #864, #868, #32, #74, #812, #205, #315, #1204, #786, #216, #510, #1109, #397, #365, #258 ) ) ;
#568 = CARTESIAN_POINT ( 'NONE',  ( 0.000000000000000000, -2.131512589594385448E-16, 8.407632992289033314E-16 ) ) ;
#569 = EDGE_CURVE ( 'NONE', #621, #692, #1141, .T. ) ;
#570 = CARTESIAN_POINT ( 'NONE',  ( 60.00000000000000000, 1.029064269082054350E-12, -1.057251015323841880E-12 ) ) ;
#571 = VERTEX_POINT ( 'NONE', #249 ) ;
#572 = CARTESIAN_POINT ( 'NONE',  ( 60.00000000000000000, 0.000000000000000000, 0.000000000000000000 ) ) ;
#573 = FACE_BOUND ( 'NONE', #504, .T. ) ;
#574 = DIRECTION ( 'NONE',  ( 0.000000000000000000, -0.7165946098379072371, -0.6974899032611565630 ) ) ;
#575 = DIRECTION ( 'NONE',  ( 0.000000000000000000, -0.9693340879652038167, -0.2457466701883596061 ) ) ;
#576 = DIRECTION ( 'NONE',  ( 0.000000000000000000, 0.000000000000000000, -1.000000000000000000 ) ) ;
#577 = ORIENTED_EDGE ( 'NONE', *, *, #555, .T. ) ;
#578 = DIRECTION ( 'NONE',  ( 1.000000000000000000, 0.000000000000000000, 0.000000000000000000 ) ) ;
#579 = FACE_OUTER_BOUND ( 'NONE', #1164, .T. ) ;
#580 = CARTESIAN_POINT ( 'NONE',  ( 0.000000000000000000, 0.000000000000000000, 0.000000000000000000 ) ) ;
#581 = CIRCLE ( 'NONE', #50, 12.59565906802719937 ) ;
#582 = AXIS2_PLACEMENT_3D ( 'NONE', #897, #642, #459 ) ;
#583 = ADVANCED_FACE ( 'NONE', ( #360 ), #973, .T. ) ;
#584 = PERSON_AND_ORGANIZATION_ROLE ( 'design_owner' ) ;
#585 = CARTESIAN_POINT ( 'NONE',  ( 0.000000000000000000, 4.188422238552969232E-13, -1.652099882984794978E-12 ) ) ;
#586 = VERTEX_POINT ( 'NONE', #549 ) ;
#587 = DIRECTION ( 'NONE',  ( 0.000000000000000000, 0.000000000000000000, -1.000000000000000000 ) ) ;
#588 = CARTESIAN_POINT ( 'NONE',  ( 0.000000000000000000, 0.000000000000000000, 0.000000000000000000 ) ) ;
#589 = ADVANCED_FACE ( 'NONE', ( #1013 ), #284, .T. ) ;
#590 = ORIENTED_EDGE ( 'NONE', *, *, #846, .F. ) ;
#591 = EDGE_LOOP ( 'NONE', ( #197, #590, #76, #1139 ) ) ;
#592 = DIRECTION ( 'NONE',  ( 1.000000000000000000, 0.000000000000000000, 0.000000000000000000 ) ) ;
#593 = APPLICATION_PROTOCOL_DEFINITION ( 'international standard', 'config_control_design', 1994, #351 ) ;
#594 = ORIENTED_EDGE ( 'NONE', *, *, #1047, .T. ) ;
#595 = MANIFOLD_SOLID_BREP ( 'Boss-Extrude3', #463 ) ;
#596 = PLANE ( 'NONE',  #1144 ) ;
#597 = VERTEX_POINT ( 'NONE', #918 ) ;
#598 = CARTESIAN_POINT ( 'NONE',  ( 60.00000000000000000, 0.000000000000000000, 0.000000000000000000 ) ) ;
#599 = ORIENTED_EDGE ( 'NONE', *, *, #754, .F. ) ;
#600 = PLANE ( 'NONE',  #202 ) ;
#601 = CARTESIAN_POINT ( 'NONE',  ( 0.000000000000000000, 38.49365120105062488, -10.87376738816190702 ) ) ;
#602 = ORIENTED_EDGE ( 'NONE', *, *, #386, .T. ) ;
#603 = ORIENTED_EDGE ( 'NONE', *, *, #419, .F. ) ;
#604 = DIRECTION ( 'NONE',  ( 0.000000000000000000, 0.000000000000000000, -1.000000000000000000 ) ) ;
#605 = CARTESIAN_POINT ( 'NONE',  ( 60.00000000000000000, 0.000000000000000000, 0.000000000000000000 ) ) ;
#606 = TOROIDAL_SURFACE ( 'NONE', #70, 65.00000000000000000, 25.00000000000000000 ) ;
#607 = EDGE_LOOP ( 'NONE', ( #1050, #630, #135, #824 ) ) ;
#608 = VECTOR ( 'NONE', #69, 1000.000000000000114 ) ;
#609 = EDGE_CURVE ( 'NONE', #647, #1014, #1102, .T. ) ;
#610 = AXIS2_PLACEMENT_3D ( 'NONE', #877, #34, #415 ) ;
#611 = EDGE_LOOP ( 'NONE', ( #212, #1159, #318, #599 ) ) ;
#612 = CARTESIAN_POINT ( 'NONE',  ( 60.00000000000000000, 7.150691859941823557E-13, 1.812851457450015893E-13 ) ) ;
#613 = ORIENTED_EDGE ( 'NONE', *, *, #1123, .F. ) ;
#614 = DIRECTION ( 'NONE',  ( 1.000000000000000000, 0.000000000000000000, 0.000000000000000000 ) ) ;
#615 = ADVANCED_FACE ( 'NONE', ( #905 ), #453, .T. ) ;
#616 = ORIENTED_EDGE ( 'NONE', *, *, #643, .T. ) ;
#617 = CARTESIAN_POINT ( 'NONE',  ( 0.000000000000000000, 7.150691859941823557E-13, 1.812851457450015893E-13 ) ) ;
#618 = EDGE_LOOP ( 'NONE', ( #965, #433, #255, #967 ) ) ;
#619 = CARTESIAN_POINT ( 'NONE',  ( -0.9999999999999453770, 1.224646799147353256E-15, 10.00000000000000000 ) ) ;
#620 = APPROVAL_DATE_TIME ( #521, #769 ) ;
#621 = VERTEX_POINT ( 'NONE', #732 ) ;
#622 = CARTESIAN_POINT ( 'NONE',  ( 0.000000000000000000, 0.000000000000000000, 0.000000000000000000 ) ) ;
#623 = DIRECTION ( 'NONE',  ( 0.000000000000000000, -0.6974899032611575622, 0.7165946098379061269 ) ) ;
#624 = EDGE_CURVE ( 'NONE', #1090, #756, #533, .T. ) ;
#625 = VECTOR ( 'NONE', #1053, 1000.000000000000114 ) ;
#626 = EDGE_CURVE ( 'NONE', #571, #692, #1183, .T. ) ;
#627 = CIRCLE ( 'NONE', #563, 12.59565906802719937 ) ;
#628 = LINE ( 'NONE', #354, #389 ) ;
#629 = VECTOR ( 'NONE', #293, 1000.000000000000000 ) ;
#630 = ORIENTED_EDGE ( 'NONE', *, *, #980, .T. ) ;
#631 = DIRECTION ( 'NONE',  ( 1.000000000000000000, -0.000000000000000000, -0.000000000000000000 ) ) ;
#632 = ORIENTED_EDGE ( 'NONE', *, *, #278, .F. ) ;
#633 = EDGE_CURVE ( 'NONE', #1217, #898, #60, .T. ) ;
#634 = CARTESIAN_POINT ( 'NONE',  ( 0.000000000000000000, 38.77336351860815711, 9.829866807534381579 ) ) ;
#635 = VERTEX_POINT ( 'NONE', #434 ) ;
#636 = CARTESIAN_POINT ( 'NONE',  ( 0.000000000000000000, 0.000000000000000000, 0.000000000000000000 ) ) ;
#637 = CARTESIAN_POINT ( 'NONE',  ( 60.00000000000000000, 9.829866807535049489, -38.77336351860798658 ) ) ;
#638 = EDGE_LOOP ( 'NONE', ( #1197, #976 ) ) ;
#639 = LINE ( 'NONE', #297, #1165 ) ;
#640 = LINE ( 'NONE', #724, #90 ) ;
#641 = ORIENTED_EDGE ( 'NONE', *, *, #903, .F. ) ;
#642 = DIRECTION ( 'NONE',  ( 1.000000000000000000, 0.000000000000000000, 0.000000000000000000 ) ) ;
#643 = EDGE_CURVE ( 'NONE', #970, #222, #106, .T. ) ;
#644 = CARTESIAN_POINT ( 'NONE',  ( 60.00000000000000000, 0.000000000000000000, 0.000000000000000000 ) ) ;
#645 = ORIENTED_EDGE ( 'NONE', *, *, #358, .T. ) ;
#646 = DIRECTION ( 'NONE',  ( -1.000000000000000000, -0.000000000000000000, -0.000000000000000000 ) ) ;
#647 = VERTEX_POINT ( 'NONE', #77 ) ;
#648 = AXIS2_PLACEMENT_3D ( 'NONE', #1094, #155, #1193 ) ;
#649 = DIRECTION ( 'NONE',  ( 0.000000000000000000, 1.224646799147353207E-16, 1.000000000000000000 ) ) ;
#650 = CIRCLE ( 'NONE', #1011, 12.59565906802719937 ) ;
#651 = ADVANCED_FACE ( 'NONE', ( #356 ), #161, .F. ) ;
#652 = ORIENTED_EDGE ( 'NONE', *, *, #750, .T. ) ;
#653 = FACE_OUTER_BOUND ( 'NONE', #1068, .T. ) ;
#654 = CARTESIAN_POINT ( 'NONE',  ( 0.000000000000000000, -9.174029974238613187E-13, -8.929446567696146173E-13 ) ) ;
#655 = DIRECTION ( 'NONE',  ( 0.000000000000000000, 0.2718441847040459769, 0.9623412800262661770 ) ) ;
#656 = VERTEX_POINT ( 'NONE', #809 ) ;
#657 = CARTESIAN_POINT ( 'NONE',  ( 60.00000000000000000, 10.87376738816122490, 38.49365120105004934 ) ) ;
#658 = CARTESIAN_POINT ( 'NONE',  ( 0.000000000000000000, -28.66378439351526097, -27.89959613044731412 ) ) ;
#659 = PLANE ( 'NONE',  #990 ) ;
#660 = EDGE_CURVE ( 'NONE', #251, #995, #1176, .T. ) ;
#661 = CARTESIAN_POINT ( 'NONE',  ( 0.000000000000000000, -12.12132267030013644, 3.424056670156577553 ) ) ;
#662 = FACE_OUTER_BOUND ( 'NONE', #915, .T. ) ;
#663 = EDGE_CURVE ( 'NONE', #970, #725, #992, .T. ) ;
#664 = DIRECTION ( 'NONE',  ( 0.000000000000000000, 0.000000000000000000, -1.000000000000000000 ) ) ;
#665 = VECTOR ( 'NONE', #748, 1000.000000000000000 ) ;
#666 = DIRECTION ( 'NONE',  ( 0.000000000000000000, 0.000000000000000000, -1.000000000000000000 ) ) ;
#667 = DIRECTION ( 'NONE',  ( 0.000000000000000000, 0.000000000000000000, -1.000000000000000000 ) ) ;
#668 = AXIS2_PLACEMENT_3D ( 'NONE', #968, #126, #511 ) ;
#669 = FACE_BOUND ( 'NONE', #343, .T. ) ;
#670 = DIRECTION ( 'NONE',  ( 0.000000000000000000, -0.7165946098379064599, -0.6974899032611574512 ) ) ;
#671 = CARTESIAN_POINT ( 'NONE',  ( 0.000000000000000000, -27.89959613044670306, 28.66378439351482754 ) ) ;
#672 = CARTESIAN_POINT ( 'NONE',  ( 0.000000000000000000, 4.188422238552969232E-13, -1.652099882984794978E-12 ) ) ;
#673 = DIRECTION ( 'NONE',  ( 1.000000000000000000, -0.000000000000000000, -0.000000000000000000 ) ) ;
#674 = ORIENTED_EDGE ( 'NONE', *, *, #349, .F. ) ;
#675 = CARTESIAN_POINT ( 'NONE',  ( 60.00000000000000000, 0.000000000000000000, 0.000000000000000000 ) ) ;
#676 = DIRECTION ( 'NONE',  ( 0.000000000000000000, 0.000000000000000000, -1.000000000000000000 ) ) ;
#677 = DIRECTION ( 'NONE',  ( 0.000000000000000000, 0.000000000000000000, 1.000000000000000000 ) ) ;
#678 = PERSON ( 'UNSPECIFIED', 'UNSPECIFIED', 'UNSPECIFIED', ('UNSPECIFIED'), ('UNSPECIFIED'), ('UNSPECIFIED') ) ;
#679 = EDGE_CURVE ( 'NONE', #101, #68, #737, .T. ) ;
#680 = ORIENTED_EDGE ( 'NONE', *, *, #663, .T. ) ;
#681 = DIRECTION ( 'NONE',  ( 0.000000000000000000, 0.6974899032611573402, -0.7165946098379063489 ) ) ;
#682 = VECTOR ( 'NONE', #880, 1000.000000000000000 ) ;
#683 = DIRECTION ( 'NONE',  ( 1.000000000000000000, -0.000000000000000000, -0.000000000000000000 ) ) ;
#684 = VECTOR ( 'NONE', #377, 1000.000000000000114 ) ;
#685 = CIRCLE ( 'NONE', #147, 40.00000000000000000 ) ;
#686 = AXIS2_PLACEMENT_3D ( 'NONE', #717, #819, #1077 ) ;
#687 = COORDINATED_UNIVERSAL_TIME_OFFSET ( 5, 30, .AHEAD. ) ;
#688 = CARTESIAN_POINT ( 'NONE',  ( 0.000000000000000000, -7.171710942422546452E-13, -1.818180238924004621E-13 ) ) ;
#689 = LINE ( 'NONE', #503, #625 ) ;
#690 = LINE ( 'NONE', #956, #48 ) ;
#691 = LINE ( 'NONE', #601, #816 ) ;
#692 = VERTEX_POINT ( 'NONE', #538 ) ;
#693 = DIRECTION ( 'NONE',  ( -1.000000000000000000, -0.000000000000000000, -0.000000000000000000 ) ) ;
#694 = CARTESIAN_POINT ( 'NONE',  ( -0.9999999999999453770, 0.000000000000000000, 0.000000000000000000 ) ) ;
#695 = EDGE_CURVE ( 'NONE', #781, #1137, #1098, .T. ) ;
#696 = ADVANCED_FACE ( 'NONE', ( #64 ), #554, .T. ) ;
#697 = ORIENTED_EDGE ( 'NONE', *, *, #624, .F. ) ;
#698 = CARTESIAN_POINT ( 'NONE',  ( 60.00000000000000000, -9.025981395503219318, -8.785345024869856800 ) ) ;
#699 = VERTEX_POINT ( 'NONE', #187 ) ;
#700 = CARTESIAN_POINT ( 'NONE',  ( 0.000000000000000000, 0.000000000000000000, 0.000000000000000000 ) ) ;
#701 = CARTESIAN_POINT ( 'NONE',  ( -64.00000000000000000, 0.000000000000000000, -9.999999999999628741 ) ) ;
#702 = CIRCLE ( 'NONE', #1116, 40.00000000000000000 ) ;
#703 = VECTOR ( 'NONE', #983, 1000.000000000000114 ) ;
#704 = DIRECTION ( 'NONE',  ( 1.000000000000000000, -0.000000000000000000, -0.000000000000000000 ) ) ;
#705 = APPROVAL_PERSON_ORGANIZATION ( #44, #769, #243 ) ;
#706 = LINE ( 'NONE', #612, #4 ) ;
#707 = CC_DESIGN_DATE_AND_TIME_ASSIGNMENT ( #766, #952, ( #1199 ) ) ;
#708 = DIRECTION ( 'NONE',  ( 0.000000000000000000, 0.2457466701883583848, -0.9693340879652041497 ) ) ;
#709 = APPLICATION_PROTOCOL_DEFINITION ( 'international standard', 'config_control_design', 1994, #526 ) ;
#710 = FACE_OUTER_BOUND ( 'NONE', #247, .T. ) ;
#711 = EDGE_CURVE ( 'NONE', #953, #1046, #52, .T. ) ;
#712 = DIRECTION ( 'NONE',  ( 0.000000000000000000, 0.000000000000000000, 1.000000000000000000 ) ) ;
#713 = DIRECTION ( 'NONE',  ( 1.000000000000000000, 0.000000000000000000, 0.000000000000000000 ) ) ;
#714 = EDGE_CURVE ( 'NONE', #485, #876, #506, .T. ) ;
#715 = APPROVAL_STATUS ( 'not_yet_approved' ) ;
#716 = ORIENTED_EDGE ( 'NONE', *, *, #136, .F. ) ;
#717 = CARTESIAN_POINT ( 'NONE',  ( 25.00000000000000000, 0.000000000000000000, 0.000000000000000000 ) ) ;
#718 = ORIENTED_EDGE ( 'NONE', *, *, #55, .T. ) ;
#719 = DIRECTION ( 'NONE',  ( 1.000000000000000000, -0.000000000000000000, -0.000000000000000000 ) ) ;
#720 = APPROVAL_STATUS ( 'not_yet_approved' ) ;
#721 = EDGE_CURVE ( 'NONE', #1058, #1001, #743, .T. ) ;
#722 = AXIS2_PLACEMENT_3D ( 'NONE', #988, #520, #325 ) ;
#723 = AXIS2_PLACEMENT_3D ( 'NONE', #1016, #727, #1078 ) ;
#724 = CARTESIAN_POINT ( 'NONE',  ( -0.9999999999999453770, -3.095341274796207465, 12.20940169502661554 ) ) ;
#725 = VERTEX_POINT ( 'NONE', #109 ) ;
#726 = DIRECTION ( 'NONE',  ( 1.000000000000000000, -0.000000000000000000, 0.000000000000000000 ) ) ;
#727 = DIRECTION ( 'NONE',  ( 0.000000000000000000, -1.000000000000000000, 0.000000000000000000 ) ) ;
#728 = ORIENTED_EDGE ( 'NONE', *, *, #663, .F. ) ;
#729 = CARTESIAN_POINT ( 'NONE',  ( 60.00000000000000000, -10.87376738816082700, -38.49365120105169780 ) ) ;
#730 = ADVANCED_FACE ( 'NONE', ( #299, #940, #844, #573, #86, #1214, #752 ), #379, .T. ) ;
#731 = EDGE_LOOP ( 'NONE', ( #123, #49, #933, #958 ) ) ;
#732 = CARTESIAN_POINT ( 'NONE',  ( 0.000000000000000000, 0.000000000000000000, -65.00000000000000000 ) ) ;
#733 = EDGE_CURVE ( 'NONE', #635, #1137, #295, .T. ) ;
#734 = ORIENTED_EDGE ( 'NONE', *, *, #540, .F. ) ;
#735 = DIRECTION ( 'NONE',  ( 1.000000000000000000, 0.000000000000000000, 0.000000000000000000 ) ) ;
#736 = EDGE_LOOP ( 'NONE', ( #999, #1131, #1127, #33 ) ) ;
#737 = LINE ( 'NONE', #81, #991 ) ;
#738 = CARTESIAN_POINT ( 'NONE',  ( 0.000000000000000000, 28.66378439351565888, 27.89959613044569053 ) ) ;
#739 = VERTEX_POINT ( 'NONE', #181 ) ;
#740 = VERTEX_POINT ( 'NONE', #481 ) ;
#741 = AXIS2_PLACEMENT_3D ( 'NONE', #878, #964, #130 ) ;
#742 = EDGE_LOOP ( 'NONE', ( #603, #547, #437, #879 ) ) ;
#743 = CIRCLE ( 'NONE', #264, 40.00000000000000000 ) ;
#744 = DIRECTION ( 'NONE',  ( 1.000000000000000000, 0.000000000000000000, 0.000000000000000000 ) ) ;
#745 = TOROIDAL_SURFACE ( 'NONE', #29, 65.00000000000000000, 25.00000000000000000 ) ;
#746 = VERTEX_POINT ( 'NONE', #281 ) ;
#747 = EDGE_CURVE ( 'NONE', #485, #1014, #852, .T. ) ;
#748 = DIRECTION ( 'NONE',  ( 0.000000000000000000, 0.9693340879652039277, 0.2457466701883595506 ) ) ;
#749 = LINE ( 'NONE', #116, #971 ) ;
#750 = EDGE_CURVE ( 'NONE', #1046, #1001, #1120, .T. ) ;
#751 = LINE ( 'NONE', #3, #929 ) ;
#752 = FACE_OUTER_BOUND ( 'NONE', #159, .T. ) ;
#753 = DIRECTION ( 'NONE',  ( 0.000000000000000000, 0.000000000000000000, -1.000000000000000000 ) ) ;
#754 = EDGE_CURVE ( 'NONE', #995, #1137, #369, .T. ) ;
#755 = DIRECTION ( 'NONE',  ( 0.000000000000000000, 0.000000000000000000, -1.000000000000000000 ) ) ;
#756 = VERTEX_POINT ( 'NONE', #274 ) ;
#757 = CARTESIAN_POINT ( 'NONE',  ( 60.00000000000000000, 12.20940169502679673, 3.095341274795501363 ) ) ;
#758 = AXIS2_PLACEMENT_3D ( 'NONE', #770, #1152, #121 ) ;
#759 = AXIS2_PLACEMENT_3D ( 'NONE', #471, #1210, #664 ) ;
#760 = DIRECTION ( 'NONE',  ( 1.000000000000000000, -0.000000000000000000, -0.000000000000000000 ) ) ;
#761 = DIRECTION ( 'NONE',  ( -1.000000000000000000, -0.000000000000000000, -0.000000000000000000 ) ) ;
#762 = ORIENTED_EDGE ( 'NONE', *, *, #886, .F. ) ;
#763 = CARTESIAN_POINT ( 'NONE',  ( 0.000000000000000000, 0.000000000000000000, 0.000000000000000000 ) ) ;
#764 = FACE_OUTER_BOUND ( 'NONE', #225, .T. ) ;
#765 = EDGE_CURVE ( 'NONE', #756, #1058, #1035, .T. ) ;
#766 = DATE_AND_TIME ( #304, #170 ) ;
#767 = ORIENTED_EDGE ( 'NONE', *, *, #609, .F. ) ;
#768 = PLANE ( 'NONE',  #467 ) ;
#769 = APPROVAL ( #720, 'UNSPECIFIED' ) ;
#770 = CARTESIAN_POINT ( 'NONE',  ( 0.000000000000000000, 1.155504264518950027E-13, -1.187154285284261269E-13 ) ) ;
#771 = ORIENTED_EDGE ( 'NONE', *, *, #536, .T. ) ;
#772 = CARTESIAN_POINT ( 'NONE',  ( 0.000000000000000000, -4.127581635622850424E-13, 1.165967924086827836E-13 ) ) ;
#773 = VERTEX_POINT ( 'NONE', #13 ) ;
#774 = CARTESIAN_POINT ( 'NONE',  ( 0.000000000000000000, 0.000000000000000000, 0.000000000000000000 ) ) ;
#775 = AXIS2_PLACEMENT_3D ( 'NONE', #94, #1121, #574 ) ;
#776 = LINE ( 'NONE', #1172, #1023 ) ;
#777 = AXIS2_PLACEMENT_3D ( 'NONE', #901, #631, #446 ) ;
#778 = LINE ( 'NONE', #154, #1203 ) ;
#779 = AXIS2_PLACEMENT_3D ( 'NONE', #195, #922, #755 ) ;
#780 = CARTESIAN_POINT ( 'NONE',  ( 0.000000000000000000, 0.000000000000000000, 0.000000000000000000 ) ) ;
#781 = VERTEX_POINT ( 'NONE', #859 ) ;
#782 = LINE ( 'NONE', #774, #874 ) ;
#783 = ADVANCED_FACE ( 'NONE', ( #847 ), #768, .T. ) ;
#784 = ORIENTED_EDGE ( 'NONE', *, *, #1085, .T. ) ;
#785 = DIRECTION ( 'NONE',  ( 1.000000000000000000, -0.000000000000000000, -0.000000000000000000 ) ) ;
#786 = ORIENTED_EDGE ( 'NONE', *, *, #151, .F. ) ;
#787 = ADVANCED_FACE ( 'NONE', ( #393 ), #1218, .F. ) ;
#788 = CARTESIAN_POINT ( 'NONE',  ( -0.9999999999999453770, -9.025981395503219318, -8.785345024869856800 ) ) ;
#789 = CARTESIAN_POINT ( 'NONE',  ( 60.00000000000000000, 38.77336351860815711, 9.829866807534381579 ) ) ;
#790 = ORIENTED_EDGE ( 'NONE', *, *, #217, .T. ) ;
#791 = DIRECTION ( 'NONE',  ( 1.000000000000000000, 0.000000000000000000, 0.000000000000000000 ) ) ;
#792 = VERTEX_POINT ( 'NONE', #757 ) ;
#793 = LINE ( 'NONE', #788, #143 ) ;
#794 = DIRECTION ( 'NONE',  ( 1.000000000000000000, -0.000000000000000000, -0.000000000000000000 ) ) ;
#795 = LINE ( 'NONE', #24, #682 ) ;
#796 = ORIENTED_EDGE ( 'NONE', *, *, #873, .F. ) ;
#797 = DIRECTION ( 'NONE',  ( 0.000000000000000000, 0.000000000000000000, -1.000000000000000000 ) ) ;
#798 = CARTESIAN_POINT ( 'NONE',  ( -0.9999999999999453770, 0.000000000000000000, 0.000000000000000000 ) ) ;
#799 = CARTESIAN_POINT ( 'NONE',  ( 0.000000000000000000, 0.000000000000000000, 0.000000000000000000 ) ) ;
#800 = VECTOR ( 'NONE', #1219, 1000.000000000000114 ) ;
#801 = AXIS2_PLACEMENT_3D ( 'NONE', #833, #1201, #1113 ) ;
#802 = VERTEX_POINT ( 'NONE', #198 ) ;
#803 = CIRCLE ( 'NONE', #610, 40.00000000000000000 ) ;
#804 = DIRECTION ( 'NONE',  ( 1.000000000000000000, 0.000000000000000000, 0.000000000000000000 ) ) ;
#805 = EDGE_CURVE ( 'NONE', #401, #586, #1082, .T. ) ;
#806 = DIRECTION ( 'NONE',  ( 0.000000000000000000, 0.6974899032611573402, -0.7165946098379063489 ) ) ;
#807 = APPROVAL_ROLE ( '' ) ;
#808 = DIRECTION ( 'NONE',  ( 1.000000000000000000, 0.000000000000000000, 0.000000000000000000 ) ) ;
#809 = CARTESIAN_POINT ( 'NONE',  ( 0.000000000000000000, 0.000000000000000000, -12.59565906802719937 ) ) ;
#810 = APPROVAL_DATE_TIME ( #1129, #168 ) ;
#811 = CYLINDRICAL_SURFACE ( 'NONE', #371, 12.59565906802719937 ) ;
#812 = ORIENTED_EDGE ( 'NONE', *, *, #353, .F. ) ;
#813 = DIRECTION ( 'NONE',  ( -1.000000000000000000, -0.000000000000000000, -0.000000000000000000 ) ) ;
#814 = DIRECTION ( 'NONE',  ( 0.000000000000000000, 0.7165946098379062379, 0.6974899032611576732 ) ) ;
#815 = ORIENTED_EDGE ( 'NONE', *, *, #73, .F. ) ;
#816 = VECTOR ( 'NONE', #704, 1000.000000000000000 ) ;
#817 = CARTESIAN_POINT ( 'NONE',  ( 60.00000000000000000, -38.77336351860773789, -9.829866807536035367 ) ) ;
#818 = AXIS2_PLACEMENT_3D ( 'NONE', #178, #492, #384 ) ;
#819 = DIRECTION ( 'NONE',  ( 1.000000000000000000, 0.000000000000000000, 0.000000000000000000 ) ) ;
#820 = VECTOR ( 'NONE', #826, 1000.000000000000000 ) ;
#821 = ORIENTED_EDGE ( 'NONE', *, *, #957, .T. ) ;
#822 = DIRECTION ( 'NONE',  ( 1.000000000000000000, -0.000000000000000000, -0.000000000000000000 ) ) ;
#823 = EDGE_CURVE ( 'NONE', #129, #395, #627, .T. ) ;
#824 = ORIENTED_EDGE ( 'NONE', *, *, #38, .F. ) ;
#825 = EDGE_CURVE ( 'NONE', #1004, #222, #184, .T. ) ;
#826 = DIRECTION ( 'NONE',  ( 1.000000000000000000, -0.000000000000000000, -0.000000000000000000 ) ) ;
#827 = ORIENTED_EDGE ( 'NONE', *, *, #386, .F. ) ;
#828 = DIRECTION ( 'NONE',  ( 0.000000000000000000, -0.6974899032611575622, 0.7165946098379061269 ) ) ;
#829 = EDGE_LOOP ( 'NONE', ( #491, #632, #917, #544 ) ) ;
#830 = CARTESIAN_POINT ( 'NONE',  ( 0.000000000000000000, 0.000000000000000000, 0.000000000000000000 ) ) ;
#831 = ORIENTED_EDGE ( 'NONE', *, *, #891, .F. ) ;
#832 = EDGE_LOOP ( 'NONE', ( #888, #851, #174, #944 ) ) ;
#833 = CARTESIAN_POINT ( 'NONE',  ( 0.000000000000000000, -2.131512589594385448E-16, 8.407632992289033314E-16 ) ) ;
#834 = ORIENTED_EDGE ( 'NONE', *, *, #624, .T. ) ;
#835 = CIRCLE ( 'NONE', #426, 12.59565906802719937 ) ;
#836 = DIRECTION ( 'NONE',  ( 0.000000000000000000, 0.000000000000000000, -1.000000000000000000 ) ) ;
#837 = AXIS2_PLACEMENT_3D ( 'NONE', #966, #507, #982 ) ;
#838 = AXIS2_PLACEMENT_3D ( 'NONE', #1140, #693, #428 ) ;
#839 = CARTESIAN_POINT ( 'NONE',  ( 60.00000000000000000, 0.000000000000000000, 0.000000000000000000 ) ) ;
#840 = SECURITY_CLASSIFICATION ( '', '', #112 ) ;
#841 = EDGE_CURVE ( 'NONE', #68, #1156, #685, .T. ) ;
#842 = PLANE ( 'NONE',  #562 ) ;
#843 = DIRECTION ( 'NONE',  ( 0.000000000000000000, 0.000000000000000000, -1.000000000000000000 ) ) ;
#844 = FACE_BOUND ( 'NONE', #1054, .T. ) ;
#845 = CARTESIAN_POINT ( 'NONE',  ( 60.00000000000000000, 0.000000000000000000, 0.000000000000000000 ) ) ;
#846 = EDGE_CURVE ( 'NONE', #725, #970, #227, .T. ) ;
#847 = FACE_OUTER_BOUND ( 'NONE', #298, .T. ) ;
#848 = CARTESIAN_POINT ( 'NONE',  ( -0.9999999999999453770, -12.12132267030013644, 3.424056670156577553 ) ) ;
#849 = EDGE_CURVE ( 'NONE', #746, #647, #782, .T. ) ;
#850 = CARTESIAN_POINT ( 'NONE',  ( 60.00000000000000000, -7.171710942422546452E-13, -1.818180238924004621E-13 ) ) ;
#851 = ORIENTED_EDGE ( 'NONE', *, *, #349, .T. ) ;
#852 = LINE ( 'NONE', #568, #665 ) ;
#853 = AXIS2_PLACEMENT_3D ( 'NONE', #798, #866, #311 ) ;
#854 = CARTESIAN_POINT ( 'NONE',  ( 0.000000000000000000, 27.89959613044660003, -28.66378439351595730 ) ) ;
#855 = PRODUCT_DEFINITION_FORMATION_WITH_SPECIFIED_SOURCE ( 'ANY', '', #345, .NOT_KNOWN. ) ;
#856 = DIRECTION ( 'NONE',  ( 1.000000000000000000, -0.000000000000000000, -0.000000000000000000 ) ) ;
#857 = ADVANCED_FACE ( 'NONE', ( #138 ), #1057, .F. ) ;
#858 = ORIENTED_EDGE ( 'NONE', *, *, #695, .T. ) ;
#859 = CARTESIAN_POINT ( 'NONE',  ( 0.000000000000000000, 10.87376738816142741, 38.49365120105075988 ) ) ;
#860 = DIRECTION ( 'NONE',  ( 1.000000000000000000, -0.000000000000000000, 0.000000000000000000 ) ) ;
#861 = EDGE_CURVE ( 'NONE', #1217, #101, #347, .T. ) ;
#862 = CARTESIAN_POINT ( 'NONE',  ( 60.00000000000000000, -38.49365120105102989, 10.87376738816048594 ) ) ;
#863 = APPROVAL_STATUS ( 'not_yet_approved' ) ;
#864 = ORIENTED_EDGE ( 'NONE', *, *, #891, .T. ) ;
#865 = DIRECTION ( 'NONE',  ( 0.000000000000000000, 0.2457466701883583848, -0.9693340879652041497 ) ) ;
#866 = DIRECTION ( 'NONE',  ( 1.000000000000000000, 0.000000000000000000, 0.000000000000000000 ) ) ;
#867 = VERTEX_POINT ( 'NONE', #206 ) ;
#868 = ORIENTED_EDGE ( 'NONE', *, *, #482, .F. ) ;
#869 = VERTEX_POINT ( 'NONE', #519 ) ;
#870 = CARTESIAN_POINT ( 'NONE',  ( 0.000000000000000000, 0.000000000000000000, 0.000000000000000000 ) ) ;
#871 = CIRCLE ( 'NONE', #346, 40.00000000000000000 ) ;
#872 = CARTESIAN_POINT ( 'NONE',  ( 0.000000000000000000, -3.095341274796207465, 12.20940169502661554 ) ) ;
#873 = EDGE_CURVE ( 'NONE', #1217, #597, #882, .T. ) ;
#874 = VECTOR ( 'NONE', #523, 1000.000000000000114 ) ;
#875 = AXIS2_PLACEMENT_3D ( 'NONE', #830, #436, #1003 ) ;
#876 = VERTEX_POINT ( 'NONE', #226 ) ;
#877 = CARTESIAN_POINT ( 'NONE',  ( 0.000000000000000000, 0.000000000000000000, 0.000000000000000000 ) ) ;
#878 = CARTESIAN_POINT ( 'NONE',  ( 25.00000000000000000, 7.960204194457797252E-15, 65.00000000000000000 ) ) ;
#879 = ORIENTED_EDGE ( 'NONE', *, *, #626, .F. ) ;
#880 = DIRECTION ( 'NONE',  ( 1.000000000000000000, 0.000000000000000000, 0.000000000000000000 ) ) ;
#881 = ORIENTED_EDGE ( 'NONE', *, *, #747, .T. ) ;
#882 = LINE ( 'NONE', #120, #909 ) ;
#883 = ORIENTED_EDGE ( 'NONE', *, *, #679, .F. ) ;
#884 = CARTESIAN_POINT ( 'NONE',  ( -0.9999999999999453770, 3.424056670157564319, 12.12132267029985755 ) ) ;
#885 = COORDINATED_UNIVERSAL_TIME_OFFSET ( 5, 30, .AHEAD. ) ;
#886 = EDGE_CURVE ( 'NONE', #912, #773, #303, .T. ) ;
#887 = DIRECTION ( 'NONE',  ( 0.000000000000000000, 0.000000000000000000, -1.000000000000000000 ) ) ;
#888 = ORIENTED_EDGE ( 'NONE', *, *, #1155, .T. ) ;
#889 = DIRECTION ( 'NONE',  ( -1.000000000000000000, -0.000000000000000000, -0.000000000000000000 ) ) ;
#890 = AXIS2_PLACEMENT_3D ( 'NONE', #672, #1026, #575 ) ;
#891 = EDGE_CURVE ( 'NONE', #1088, #129, #1157, .T. ) ;
#892 = VECTOR ( 'NONE', #592, 1000.000000000000000 ) ;
#893 = VECTOR ( 'NONE', #1110, 1000.000000000000000 ) ;
#894 = AXIS2_PLACEMENT_3D ( 'NONE', #799, #677, #156 ) ;
#895 = DIRECTION ( 'NONE',  ( 0.000000000000000000, 0.000000000000000000, -1.000000000000000000 ) ) ;
#896 = ORIENTED_EDGE ( 'NONE', *, *, #474, .F. ) ;
#897 = CARTESIAN_POINT ( 'NONE',  ( 25.00000000000000000, 0.000000000000000000, 0.000000000000000000 ) ) ;
#898 = VERTEX_POINT ( 'NONE', #41 ) ;
#899 = CARTESIAN_POINT ( 'NONE',  ( 60.00000000000000000, 3.095341274796201692, -12.20940169502661909 ) ) ;
#900 = ORIENTED_EDGE ( 'NONE', *, *, #841, .F. ) ;
#901 = CARTESIAN_POINT ( 'NONE',  ( 0.000000000000000000, 0.000000000000000000, 0.000000000000000000 ) ) ;
#902 = ORIENTED_EDGE ( 'NONE', *, *, #373, .F. ) ;
#903 = EDGE_CURVE ( 'NONE', #1034, #210, #706, .T. ) ;
#904 = CARTESIAN_POINT ( 'NONE',  ( 60.00000000000000000, 0.000000000000000000, 0.000000000000000000 ) ) ;
#905 = FACE_OUTER_BOUND ( 'NONE', #450, .T. ) ;
#906 = EDGE_CURVE ( 'NONE', #305, #995, #402, .T. ) ;
#907 = ORIENTED_EDGE ( 'NONE', *, *, #278, .T. ) ;
#908 = AXIS2_PLACEMENT_3D ( 'NONE', #605, #614, #978 ) ;
#909 = VECTOR ( 'NONE', #213, 1000.000000000000000 ) ;
#910 = DIRECTION ( 'NONE',  ( 0.000000000000000000, 0.9693340879652039277, 0.2457466701883595506 ) ) ;
#911 = CIRCLE ( 'NONE', #686, 90.00000000000001421 ) ;
#912 = VERTEX_POINT ( 'NONE', #47 ) ;
#913 = CARTESIAN_POINT ( 'NONE',  ( 34.99999999999999289, 0.000000000000000000, 0.000000000000000000 ) ) ;
#914 = EDGE_CURVE ( 'NONE', #1075, #480, #1171, .T. ) ;
#915 = EDGE_LOOP ( 'NONE', ( #9, #444, #900, #553 ) ) ;
#916 = DIRECTION ( 'NONE',  ( 0.000000000000000000, -0.9693340879652038167, -0.2457466701883596338 ) ) ;
#917 = ORIENTED_EDGE ( 'NONE', *, *, #942, .F. ) ;
#918 = CARTESIAN_POINT ( 'NONE',  ( 60.00000000000000000, -8.785345024869730679, 9.025981395503341886 ) ) ;
#919 = ADVANCED_FACE ( 'NONE', ( #501 ), #27, .T. ) ;
#920 = LINE ( 'NONE', #370, #424 ) ;
#921 = ORIENTED_EDGE ( 'NONE', *, *, #310, .F. ) ;
#922 = DIRECTION ( 'NONE',  ( 1.000000000000000000, 0.000000000000000000, 0.000000000000000000 ) ) ;
#923 = DIRECTION ( 'NONE',  ( 0.000000000000000000, 0.000000000000000000, -1.000000000000000000 ) ) ;
#924 = ORIENTED_EDGE ( 'NONE', *, *, #849, .T. ) ;
#925 = AXIS2_PLACEMENT_3D ( 'NONE', #515, #242, #989 ) ;
#926 = DIRECTION ( 'NONE',  ( 0.000000000000000000, 0.000000000000000000, 1.000000000000000000 ) ) ;
#927 = AXIS2_PLACEMENT_3D ( 'NONE', #262, #439, #649 ) ;
#928 = EDGE_CURVE ( 'NONE', #222, #1004, #250, .T. ) ;
#929 = VECTOR ( 'NONE', #462, 1000.000000000000000 ) ;
#930 = DIRECTION ( 'NONE',  ( 1.000000000000000000, 0.000000000000000000, 0.000000000000000000 ) ) ;
#931 = CC_DESIGN_APPROVAL ( #168, ( #840 ) ) ;
#932 = CARTESIAN_POINT ( 'NONE',  ( 0.000000000000000000, 1.224646799147353256E-15, 10.00000000000000000 ) ) ;
#933 = ORIENTED_EDGE ( 'NONE', *, *, #906, .T. ) ;
#934 = CARTESIAN_POINT ( 'NONE',  ( 60.00000000000000000, -12.12132267030013644, 3.424056670156577553 ) ) ;
#935 = CARTESIAN_POINT ( 'NONE',  ( 60.00000000000000000, 1.229510161632448260E-12, -3.473146111587260292E-13 ) ) ;
#936 = CARTESIAN_POINT ( 'NONE',  ( 0.000000000000000000, 0.000000000000000000, 0.000000000000000000 ) ) ;
#937 = ADVANCED_FACE ( 'NONE', ( #497 ), #596, .F. ) ;
#938 = DIRECTION ( 'NONE',  ( 0.000000000000000000, -0.9623412800262657329, 0.2718441847040476422 ) ) ;
#939 = ADVANCED_FACE ( 'NONE', ( #1149 ), #220, .F. ) ;
#940 = FACE_BOUND ( 'NONE', #611, .T. ) ;
#941 = CARTESIAN_POINT ( 'NONE',  ( 0.000000000000000000, 0.000000000000000000, 0.000000000000000000 ) ) ;
#942 = EDGE_CURVE ( 'NONE', #558, #898, #803, .T. ) ;
#943 = CARTESIAN_POINT ( 'NONE',  ( -64.00000000000000000, 0.000000000000000000, 0.000000000000000000 ) ) ;
#944 = ORIENTED_EDGE ( 'NONE', *, *, #1047, .F. ) ;
#945 = CIRCLE ( 'NONE', #327, 40.00000000000000000 ) ;
#946 = VERTEX_POINT ( 'NONE', #789 ) ;
#947 = DIRECTION ( 'NONE',  ( 0.000000000000000000, 0.000000000000000000, -1.000000000000000000 ) ) ;
#948 = AXIS2_PLACEMENT_3D ( 'NONE', #588, #683, #182 ) ;
#949 = VECTOR ( 'NONE', #102, 1000.000000000000114 ) ;
#950 = CARTESIAN_POINT ( 'NONE',  ( 0.000000000000000000, 9.829866807535152518, -38.77336351860839869 ) ) ;
#951 = CIRCLE ( 'NONE', #550, 12.59565906802719937 ) ;
#952 = DATE_TIME_ROLE ( 'creation_date' ) ;
#953 = VERTEX_POINT ( 'NONE', #698 ) ;
#954 = CARTESIAN_POINT ( 'NONE',  ( 60.00000000000000000, 0.000000000000000000, 0.000000000000000000 ) ) ;
#955 = CARTESIAN_POINT ( 'NONE',  ( 0.000000000000000000, 3.095341274796201247, -12.20940169502661732 ) ) ;
#956 = CARTESIAN_POINT ( 'NONE',  ( -0.9999999999999453770, 3.095341274796200803, -12.20940169502661554 ) ) ;
#957 = EDGE_CURVE ( 'NONE', #867, #137, #1178, .T. ) ;
#958 = ORIENTED_EDGE ( 'NONE', *, *, #660, .F. ) ;
#959 = ORIENTED_EDGE ( 'NONE', *, *, #805, .F. ) ;
#960 = EDGE_CURVE ( 'NONE', #802, #1062, #173, .T. ) ;
#961 = EDGE_LOOP ( 'NONE', ( #1071, #452, #37, #301 ) ) ;
#962 = CARTESIAN_POINT ( 'NONE',  ( 0.000000000000000000, 0.000000000000000000, 0.000000000000000000 ) ) ;
#963 = ORIENTED_EDGE ( 'NONE', *, *, #1091, .F. ) ;
#964 = DIRECTION ( 'NONE',  ( 0.000000000000000000, 1.000000000000000000, -1.224646799147353207E-16 ) ) ;
#965 = ORIENTED_EDGE ( 'NONE', *, *, #754, .T. ) ;
#966 = CARTESIAN_POINT ( 'NONE',  ( 60.00000000000000000, 0.000000000000000000, 0.000000000000000000 ) ) ;
#967 = ORIENTED_EDGE ( 'NONE', *, *, #660, .T. ) ;
#968 = CARTESIAN_POINT ( 'NONE',  ( 0.000000000000000000, 0.000000000000000000, 0.000000000000000000 ) ) ;
#969 = EDGE_CURVE ( 'NONE', #251, #781, #509, .T. ) ;
#970 = VERTEX_POINT ( 'NONE', #456 ) ;
#971 = VECTOR ( 'NONE', #385, 1000.000000000000000 ) ;
#972 = CARTESIAN_POINT ( 'NONE',  ( -0.9999999999999453770, 0.000000000000000000, 0.000000000000000000 ) ) ;
#973 = TOROIDAL_SURFACE ( 'NONE', #445, 65.00000000000000000, 25.00000000000000000 ) ;
#974 = CC_DESIGN_SECURITY_CLASSIFICATION ( #840, ( #855 ) ) ;
#975 = DIRECTION ( 'NONE',  ( 0.000000000000000000, 0.2718441847040459769, 0.9623412800262661770 ) ) ;
#976 = ORIENTED_EDGE ( 'NONE', *, *, #1115, .F. ) ;
#977 = DIRECTION ( 'NONE',  ( 0.000000000000000000, 0.000000000000000000, -1.000000000000000000 ) ) ;
#978 = DIRECTION ( 'NONE',  ( 0.000000000000000000, 0.000000000000000000, -1.000000000000000000 ) ) ;
#979 = ORIENTED_EDGE ( 'NONE', *, *, #495, .T. ) ;
#980 = EDGE_CURVE ( 'NONE', #395, #153, #640, .T. ) ;
#981 = PERSON_AND_ORGANIZATION_ROLE ( 'design_supplier' ) ;
#982 = DIRECTION ( 'NONE',  ( 0.000000000000000000, 0.000000000000000000, -1.000000000000000000 ) ) ;
#983 = DIRECTION ( 'NONE',  ( 0.000000000000000000, 0.7165946098379037954, 0.6974899032611600047 ) ) ;
#984 = LINE ( 'NONE', #884, #1205 ) ;
#985 = SHAPE_DEFINITION_REPRESENTATION ( #527, #559 ) ;
#986 = ORIENTED_EDGE ( 'NONE', *, *, #714, .T. ) ;
#987 = CARTESIAN_POINT ( 'NONE',  ( 0.000000000000000000, 1.229510161632448260E-12, -3.473146111587260292E-13 ) ) ;
#988 = CARTESIAN_POINT ( 'NONE',  ( 0.000000000000000000, -4.013098901508176748E-13, -1.420656004819026860E-12 ) ) ;
#989 = DIRECTION ( 'NONE',  ( 0.000000000000000000, 0.000000000000000000, -1.000000000000000000 ) ) ;
#990 = AXIS2_PLACEMENT_3D ( 'NONE', #1036, #192, #290 ) ;
#991 = VECTOR ( 'NONE', #259, 1000.000000000000114 ) ;
#992 = CIRCLE ( 'NONE', #648, 90.00000000000001421 ) ;
#993 = DIRECTION ( 'NONE',  ( 1.000000000000000000, 0.000000000000000000, 0.000000000000000000 ) ) ;
#994 = CARTESIAN_POINT ( 'NONE',  ( 0.000000000000000000, 28.66378439351565888, 27.89959613044569053 ) ) ;
#995 = VERTEX_POINT ( 'NONE', #1096 ) ;
#996 = DIRECTION ( 'NONE',  ( -1.000000000000000000, -0.000000000000000000, -0.000000000000000000 ) ) ;
#997 = EDGE_CURVE ( 'NONE', #740, #621, #128, .T. ) ;
#998 = ORIENTED_EDGE ( 'NONE', *, *, #58, .F. ) ;
#999 = ORIENTED_EDGE ( 'NONE', *, *, #997, .F. ) ;
#1000 = CARTESIAN_POINT ( 'NONE',  ( 0.000000000000000000, -9.174029974238613187E-13, -8.929446567696146173E-13 ) ) ;
#1001 = VERTEX_POINT ( 'NONE', #729 ) ;
#1002 = FACE_BOUND ( 'NONE', #542, .T. ) ;
#1003 = DIRECTION ( 'NONE',  ( 0.000000000000000000, 0.000000000000000000, -1.000000000000000000 ) ) ;
#1004 = VERTEX_POINT ( 'NONE', #545 ) ;
#1005 = DIRECTION ( 'NONE',  ( 0.000000000000000000, 0.000000000000000000, -1.000000000000000000 ) ) ;
#1006 = ADVANCED_FACE ( 'NONE', ( #164 ), #811, .T. ) ;
#1007 = ORIENTED_EDGE ( 'NONE', *, *, #1043, .T. ) ;
#1008 = VECTOR ( 'NONE', #99, 1000.000000000000000 ) ;
#1009 = VECTOR ( 'NONE', #822, 1000.000000000000000 ) ;
#1010 = CARTESIAN_POINT ( 'NONE',  ( 0.000000000000000000, -10.87376738816062627, -38.49365120105099436 ) ) ;
#1011 = AXIS2_PLACEMENT_3D ( 'NONE', #622, #158, #541 ) ;
#1012 = VERTEX_POINT ( 'NONE', #1092 ) ;
#1013 = FACE_OUTER_BOUND ( 'NONE', #518, .T. ) ;
#1014 = VERTEX_POINT ( 'NONE', #634 ) ;
#1015 = CARTESIAN_POINT ( 'NONE',  ( 0.000000000000000000, 0.000000000000000000, 0.000000000000000000 ) ) ;
#1016 = CARTESIAN_POINT ( 'NONE',  ( 25.00000000000000000, 0.000000000000000000, -65.00000000000000000 ) ) ;
#1017 = PLANE ( 'NONE',  #779 ) ;
#1018 = CARTESIAN_POINT ( 'NONE',  ( -0.9999999999999453770, 0.000000000000000000, 0.000000000000000000 ) ) ;
#1019 = LINE ( 'NONE', #932, #2 ) ;
#1020 = AXIS2_PLACEMENT_3D ( 'NONE', #326, #537, #63 ) ;
#1021 = VECTOR ( 'NONE', #655, 1000.000000000000114 ) ;
#1022 = FACE_OUTER_BOUND ( 'NONE', #455, .T. ) ;
#1023 = VECTOR ( 'NONE', #623, 1000.000000000000114 ) ;
#1024 = DIRECTION ( 'NONE',  ( 1.000000000000000000, 0.000000000000000000, 0.000000000000000000 ) ) ;
#1025 = DIRECTION ( 'NONE',  ( 1.000000000000000000, 0.000000000000000000, 0.000000000000000000 ) ) ;
#1026 = DIRECTION ( 'NONE',  ( 0.000000000000000000, -0.2457466701883596338, 0.9693340879652039277 ) ) ;
#1027 = EDGE_LOOP ( 'NONE', ( #340, #516, #238, #133 ) ) ;
#1028 = EDGE_CURVE ( 'NONE', #324, #210, #1175, .T. ) ;
#1029 = DIRECTION ( 'NONE',  ( 0.000000000000000000, 0.000000000000000000, -1.000000000000000000 ) ) ;
#1030 = CARTESIAN_POINT ( 'NONE',  ( 60.00000000000000000, 0.000000000000000000, 0.000000000000000000 ) ) ;
#1031 = ADVANCED_FACE ( 'NONE', ( #152 ), #530, .T. ) ;
#1032 = CARTESIAN_POINT ( 'NONE',  ( -0.9999999999999453770, 9.025981395504320659, 8.785345024868725261 ) ) ;
#1033 = DIRECTION ( 'NONE',  ( 1.000000000000000000, 0.000000000000000000, 0.000000000000000000 ) ) ;
#1034 = VERTEX_POINT ( 'NONE', #899 ) ;
#1035 = LINE ( 'NONE', #658, #408 ) ;
#1036 = CARTESIAN_POINT ( 'NONE',  ( 0.000000000000000000, 1.229510161632448260E-12, -3.473146111587260292E-13 ) ) ;
#1037 = CYLINDRICAL_SURFACE ( 'NONE', #1202, 40.00000000000000000 ) ;
#1038 = PERSON_AND_ORGANIZATION ( #678, #149 ) ;
#1039 = LINE ( 'NONE', #585, #183 ) ;
#1040 = ORIENTED_EDGE ( 'NONE', *, *, #765, .T. ) ;
#1041 = DIRECTION ( 'NONE',  ( 1.000000000000000000, 0.000000000000000000, 0.000000000000000000 ) ) ;
#1042 = AXIS2_PLACEMENT_3D ( 'NONE', #1133, #1025, #8 ) ;
#1043 = EDGE_CURVE ( 'NONE', #656, #322, #650, .T. ) ;
#1044 = CARTESIAN_POINT ( 'NONE',  ( 60.00000000000000000, 9.025981395504322435, 8.785345024868727037 ) ) ;
#1045 = CC_DESIGN_APPROVAL ( #543, ( #855 ) ) ;
#1046 = VERTEX_POINT ( 'NONE', #142 ) ;
#1047 = EDGE_CURVE ( 'NONE', #22, #586, #432, .T. ) ;
#1048 = DIRECTION ( 'NONE',  ( 0.000000000000000000, 0.9623412800262661770, -0.2718441847040459769 ) ) ;
#1049 = APPROVAL_DATE_TIME ( #1173, #543 ) ;
#1050 = ORIENTED_EDGE ( 'NONE', *, *, #257, .F. ) ;
#1051 = ORIENTED_EDGE ( 'NONE', *, *, #1028, .T. ) ;
#1052 = DIRECTION ( 'NONE',  ( 0.000000000000000000, 0.9693340879652041497, 0.2457466701883587457 ) ) ;
#1053 = DIRECTION ( 'NONE',  ( 0.000000000000000000, 0.6974899032611573402, -0.7165946098379063489 ) ) ;
#1054 = EDGE_LOOP ( 'NONE', ( #613, #1194, #577, #762 ) ) ;
#1055 = EDGE_LOOP ( 'NONE', ( #1200, #234, #1124, #1189 ) ) ;
#1056 = ORIENTED_EDGE ( 'NONE', *, *, #861, .F. ) ;
#1057 = PLANE ( 'NONE',  #306 ) ;
#1058 = VERTEX_POINT ( 'NONE', #535 ) ;
#1059 = CARTESIAN_POINT ( 'NONE',  ( 0.000000000000000000, 8.785345024869116060, -9.025981395503940519 ) ) ;
#1060 = CARTESIAN_POINT ( 'NONE',  ( -0.9999999999999453770, 12.12132267029973676, -3.424056670157999083 ) ) ;
#1061 = ORIENTED_EDGE ( 'NONE', *, *, #969, .T. ) ;
#1062 = VERTEX_POINT ( 'NONE', #1010 ) ;
#1063 = DIRECTION ( 'NONE',  ( 1.000000000000000000, 0.000000000000000000, 0.000000000000000000 ) ) ;
#1064 = EDGE_CURVE ( 'NONE', #802, #1046, #1074, .T. ) ;
#1065 = VECTOR ( 'NONE', #230, 1000.000000000000000 ) ;
#1066 = CARTESIAN_POINT ( 'NONE',  ( 60.00000000000000000, 0.000000000000000000, 0.000000000000000000 ) ) ;
#1067 = VECTOR ( 'NONE', #1063, 1000.000000000000000 ) ;
#1068 = EDGE_LOOP ( 'NONE', ( #674, #229, #594, #1154 ) ) ;
#1069 = VECTOR ( 'NONE', #646, 1000.000000000000000 ) ;
#1070 = DIRECTION ( 'NONE',  ( 0.000000000000000000, 0.2457466701883583848, -0.9693340879652041497 ) ) ;
#1071 = ORIENTED_EDGE ( 'NONE', *, *, #849, .F. ) ;
#1072 = LINE ( 'NONE', #1158, #25 ) ;
#1073 = DATE_TIME_ROLE ( 'classification_date' ) ;
#1074 = LINE ( 'NONE', #339, #228 ) ;
#1075 = VERTEX_POINT ( 'NONE', #256 ) ;
#1076 = DIRECTION ( 'NONE',  ( 0.000000000000000000, 0.000000000000000000, -1.000000000000000000 ) ) ;
#1077 = DIRECTION ( 'NONE',  ( 0.000000000000000000, 0.000000000000000000, -1.000000000000000000 ) ) ;
#1078 = DIRECTION ( 'NONE',  ( 0.000000000000000000, 0.000000000000000000, -1.000000000000000000 ) ) ;
#1079 = VECTOR ( 'NONE', #312, 1000.000000000000000 ) ;
#1080 = AXIS2_PLACEMENT_3D ( 'NONE', #694, #889, #319 ) ;
#1081 = CALENDAR_DATE ( 2026, 14, 8 ) ;
#1082 = CIRCLE ( 'NONE', #531, 10.00000000000000000 ) ;
#1083 = CIRCLE ( 'NONE', #489, 9.999999999999628741 ) ;
#1084 = ORIENTED_EDGE ( 'NONE', *, *, #997, .T. ) ;
#1085 = EDGE_CURVE ( 'NONE', #692, #571, #911, .T. ) ;
#1086 = CARTESIAN_POINT ( 'NONE',  ( -0.9999999999999453770, 0.000000000000000000, 0.000000000000000000 ) ) ;
#1087 = ORIENTED_EDGE ( 'NONE', *, *, #460, .F. ) ;
#1088 = VERTEX_POINT ( 'NONE', #1186 ) ;
#1089 = DIRECTION ( 'NONE',  ( 1.000000000000000000, -0.000000000000000000, 0.000000000000000000 ) ) ;
#1090 = VERTEX_POINT ( 'NONE', #245 ) ;
#1091 = EDGE_CURVE ( 'NONE', #792, #946, #628, .T. ) ;
#1092 = CARTESIAN_POINT ( 'NONE',  ( 0.000000000000000000, 3.424056670157565208, 12.12132267029985933 ) ) ;
#1093 = ORIENTED_EDGE ( 'NONE', *, *, #1130, .T. ) ;
#1094 = CARTESIAN_POINT ( 'NONE',  ( 34.99999999999999289, 0.000000000000000000, 0.000000000000000000 ) ) ;
#1095 = ORIENTED_EDGE ( 'NONE', *, *, #823, .T. ) ;
#1096 = CARTESIAN_POINT ( 'NONE',  ( 60.00000000000000000, 28.66378439351626994, 27.89959613044628739 ) ) ;
#1097 = ORIENTED_EDGE ( 'NONE', *, *, #980, .F. ) ;
#1098 = LINE ( 'NONE', #175, #204 ) ;
#1099 = ADVANCED_FACE ( 'NONE', ( #260 ), #745, .T. ) ;
#1100 = ORIENTED_EDGE ( 'NONE', *, *, #404, .T. ) ;
#1101 = CIRCLE ( 'NONE', #486, 40.00000000000000000 ) ;
#1102 = CIRCLE ( 'NONE', #330, 40.00000000000000000 ) ;
#1103 = EDGE_CURVE ( 'NONE', #725, #692, #61, .T. ) ;
#1104 =( NAMED_UNIT ( * ) SI_UNIT ( $, .STERADIAN. ) SOLID_ANGLE_UNIT ( ) );
#1105 = LOCAL_TIME ( 9, 59, 39.00000000000000000, #885 ) ;
#1106 = EDGE_LOOP ( 'NONE', ( #680, #1179, #784, #1180 ) ) ;
#1107 = CARTESIAN_POINT ( 'NONE',  ( 34.99999999999999289, 0.000000000000000000, 0.000000000000000000 ) ) ;
#1108 = CC_DESIGN_PERSON_AND_ORGANIZATION_ASSIGNMENT ( #209, #981, ( #855 ) ) ;
#1109 = ORIENTED_EDGE ( 'NONE', *, *, #292, .F. ) ;
#1110 = DIRECTION ( 'NONE',  ( 0.000000000000000000, -0.2718441847040464210, -0.9623412800262660660 ) ) ;
#1111 = PLANE ( 'NONE',  #775 ) ;
#1112 = CARTESIAN_POINT ( 'NONE',  ( -64.00000000000000000, 0.000000000000000000, 0.000000000000000000 ) ) ;
#1113 = DIRECTION ( 'NONE',  ( 0.000000000000000000, 0.9693340879652039277, 0.2457466701883595228 ) ) ;
#1114 = CYLINDRICAL_SURFACE ( 'NONE', #948, 40.00000000000000000 ) ;
#1115 = EDGE_CURVE ( 'NONE', #869, #22, #1083, .T. ) ;
#1116 = AXIS2_PLACEMENT_3D ( 'NONE', #1066, #417, #1143 ) ;
#1117 = EDGE_CURVE ( 'NONE', #1161, #62, #479, .T. ) ;
#1118 = AXIS2_PLACEMENT_3D ( 'NONE', #654, #814, #1181 ) ;
#1119 = AXIS2_PLACEMENT_3D ( 'NONE', #335, #1041, #587 ) ;
#1120 = LINE ( 'NONE', #935, #893 ) ;
#1121 = DIRECTION ( 'NONE',  ( 0.000000000000000000, -0.6974899032611565630, 0.7165946098379072371 ) ) ;
#1122 = CARTESIAN_POINT ( 'NONE',  ( 0.000000000000000000, -38.77336351860773789, -9.829866807536035367 ) ) ;
#1123 = EDGE_CURVE ( 'NONE', #153, #912, #378, .T. ) ;
#1124 = ORIENTED_EDGE ( 'NONE', *, *, #903, .T. ) ;
#1125 = DIRECTION ( 'NONE',  ( 1.000000000000000000, 0.000000000000000000, 0.000000000000000000 ) ) ;
#1126 = DIRECTION ( 'NONE',  ( 1.000000000000000000, -0.000000000000000000, -0.000000000000000000 ) ) ;
#1127 = ORIENTED_EDGE ( 'NONE', *, *, #1085, .F. ) ;
#1128 = PLANE ( 'NONE',  #890 ) ;
#1129 = DATE_AND_TIME ( #237, #75 ) ;
#1130 = EDGE_CURVE ( 'NONE', #802, #656, #951, .T. ) ;
#1131 = ORIENTED_EDGE ( 'NONE', *, *, #419, .T. ) ;
#1132 = DIRECTION ( 'NONE',  ( 1.000000000000000000, -0.000000000000000000, 0.000000000000000000 ) ) ;
#1133 = CARTESIAN_POINT ( 'NONE',  ( 60.00000000000000000, 0.000000000000000000, 0.000000000000000000 ) ) ;
#1134 = EDGE_CURVE ( 'NONE', #485, #792, #751, .T. ) ;
#1135 = FACE_OUTER_BOUND ( 'NONE', #618, .T. ) ;
#1136 = FACE_OUTER_BOUND ( 'NONE', #1146, .T. ) ;
#1137 = VERTEX_POINT ( 'NONE', #657 ) ;
#1138 = CIRCLE ( 'NONE', #853, 12.59565906802719937 ) ;
#1139 = ORIENTED_EDGE ( 'NONE', *, *, #928, .F. ) ;
#1140 = CARTESIAN_POINT ( 'NONE',  ( 34.99999999999999289, 0.000000000000000000, 0.000000000000000000 ) ) ;
#1141 = CIRCLE ( 'NONE', #723, 24.99999999999999289 ) ;
#1142 = VECTOR ( 'NONE', #916, 1000.000000000000114 ) ;
#1143 = DIRECTION ( 'NONE',  ( 0.000000000000000000, 0.000000000000000000, -1.000000000000000000 ) ) ;
#1144 = AXIS2_PLACEMENT_3D ( 'NONE', #688, #1052, #411 ) ;
#1145 = ADVANCED_FACE ( 'NONE', ( #669, #1022 ), #1017, .F. ) ;
#1146 = EDGE_LOOP ( 'NONE', ( #1087, #1153, #858, #352 ) ) ;
#1147 = ORIENTED_EDGE ( 'NONE', *, *, #711, .T. ) ;
#1148 = ORIENTED_EDGE ( 'NONE', *, *, #73, .T. ) ;
#1149 = FACE_OUTER_BOUND ( 'NONE', #961, .T. ) ;
#1150 = CARTESIAN_POINT ( 'NONE',  ( 0.000000000000000000, 1.542523356081084226E-15, 12.59565906802719937 ) ) ;
#1151 = ORIENTED_EDGE ( 'NONE', *, *, #609, .T. ) ;
#1152 = DIRECTION ( 'NONE',  ( 0.000000000000000000, 0.6974899032611601157, -0.7165946098379039064 ) ) ;
#1153 = ORIENTED_EDGE ( 'NONE', *, *, #218, .T. ) ;
#1154 = ORIENTED_EDGE ( 'NONE', *, *, #457, .T. ) ;
#1155 = EDGE_CURVE ( 'NONE', #22, #869, #565, .T. ) ;
#1156 = VERTEX_POINT ( 'NONE', #180 ) ;
#1157 = LINE ( 'NONE', #134, #1067 ) ;
#1158 = CARTESIAN_POINT ( 'NONE',  ( 0.000000000000000000, -10.87376738816082700, -38.49365120105169780 ) ) ;
#1159 = ORIENTED_EDGE ( 'NONE', *, *, #200, .T. ) ;
#1160 = ORIENTED_EDGE ( 'NONE', *, *, #236, .T. ) ;
#1161 = VERTEX_POINT ( 'NONE', #934 ) ;
#1162 = DIRECTION ( 'NONE',  ( 1.000000000000000000, -0.000000000000000000, 0.000000000000000000 ) ) ;
#1163 = CIRCLE ( 'NONE', #1020, 24.99999999999999289 ) ;
#1164 = EDGE_LOOP ( 'NONE', ( #425, #1192, #231, #1051 ) ) ;
#1165 = VECTOR ( 'NONE', #564, 999.9999999999998863 ) ;
#1166 = LINE ( 'NONE', #333, #387 ) ;
#1167 = CIRCLE ( 'NONE', #429, 40.00000000000000000 ) ;
#1168 = AXIS2_PLACEMENT_3D ( 'NONE', #954, #115, #604 ) ;
#1169 = PERSON_AND_ORGANIZATION ( #678, #149 ) ;
#1170 = EDGE_LOOP ( 'NONE', ( #979, #316, #767, #414 ) ) ;
#1171 = LINE ( 'NONE', #20, #169 ) ;
#1172 = CARTESIAN_POINT ( 'NONE',  ( 60.00000000000000000, -9.174029974238613187E-13, -8.929446567696146173E-13 ) ) ;
#1173 = DATE_AND_TIME ( #54, #1105 ) ;
#1174 = ADVANCED_FACE ( 'NONE', ( #556 ), #190, .T. ) ;
#1175 = LINE ( 'NONE', #1198, #820 ) ;
#1176 = LINE ( 'NONE', #994, #1009 ) ;
#1177 = EDGE_CURVE ( 'NONE', #1156, #137, #1207, .T. ) ;
#1178 = LINE ( 'NONE', #344, #1142 ) ;
#1179 = ORIENTED_EDGE ( 'NONE', *, *, #1103, .T. ) ;
#1180 = ORIENTED_EDGE ( 'NONE', *, *, #11, .F. ) ;
#1181 = DIRECTION ( 'NONE',  ( 0.000000000000000000, -0.6974899032611575622, 0.7165946098379061269 ) ) ;
#1182 = AXIS2_PLACEMENT_3D ( 'NONE', #700, #51, #221 ) ;
#1183 = CIRCLE ( 'NONE', #582, 90.00000000000001421 ) ;
#1184 = CC_DESIGN_PERSON_AND_ORGANIZATION_ASSIGNMENT ( #1038, #584, ( #345 ) ) ;
#1185 = ORIENTED_EDGE ( 'NONE', *, *, #217, .F. ) ;
#1186 = CARTESIAN_POINT ( 'NONE',  ( -0.9999999999999453770, 1.542523356081084226E-15, 12.59565906802719937 ) ) ;
#1187 = DIRECTION ( 'NONE',  ( 0.000000000000000000, 0.000000000000000000, -1.000000000000000000 ) ) ;
#1188 = ORIENTED_EDGE ( 'NONE', *, *, #474, .T. ) ;
#1189 = ORIENTED_EDGE ( 'NONE', *, *, #1028, .F. ) ;
#1190 = CARTESIAN_POINT ( 'NONE',  ( 60.00000000000000000, 1.102182119232618069E-14, -90.00000000000001421 ) ) ;
#1191 = ADVANCED_FACE ( 'NONE', ( #653 ), #177, .T. ) ;
#1192 = ORIENTED_EDGE ( 'NONE', *, *, #55, .F. ) ;
#1193 = DIRECTION ( 'NONE',  ( 0.000000000000000000, 0.000000000000000000, -1.000000000000000000 ) ) ;
#1194 = ORIENTED_EDGE ( 'NONE', *, *, #522, .T. ) ;
#1195 = DIRECTION ( 'NONE',  ( 0.000000000000000000, 0.000000000000000000, -1.000000000000000000 ) ) ;
#1196 = VERTEX_POINT ( 'NONE', #97 ) ;
#1197 = ORIENTED_EDGE ( 'NONE', *, *, #1155, .F. ) ;
#1198 = CARTESIAN_POINT ( 'NONE',  ( 0.000000000000000000, 9.829866807535152518, -38.77336351860839869 ) ) ;
#1199 = PRODUCT_DEFINITION ( 'UNKNOWN', '', #855, #96 ) ;
#1200 = ORIENTED_EDGE ( 'NONE', *, *, #536, .F. ) ;
#1201 = DIRECTION ( 'NONE',  ( 0.000000000000000000, 0.2457466701883595228, -0.9693340879652039277 ) ) ;
#1202 = AXIS2_PLACEMENT_3D ( 'NONE', #580, #111, #405 ) ;
#1203 = VECTOR ( 'NONE', #418, 1000.000000000000000 ) ;
#1204 = ORIENTED_EDGE ( 'NONE', *, *, #296, .F. ) ;
#1205 = VECTOR ( 'NONE', #43, 1000.000000000000000 ) ;
#1206 = AXIS2_PLACEMENT_3D ( 'NONE', #561, #930, #977 ) ;
#1207 = LINE ( 'NONE', #1122, #629 ) ;
#1208 = AXIS2_PLACEMENT_3D ( 'NONE', #280, #673, #576 ) ;
#1209 = ORIENTED_EDGE ( 'NONE', *, *, #332, .F. ) ;
#1210 = DIRECTION ( 'NONE',  ( 1.000000000000000000, 0.000000000000000000, 0.000000000000000000 ) ) ;
#1211 = DIRECTION ( 'NONE',  ( 1.000000000000000000, 0.000000000000000000, 0.000000000000000000 ) ) ;
#1212 = DIRECTION ( 'NONE',  ( 0.000000000000000000, -0.2457466701883587734, 0.9693340879652041497 ) ) ;
#1213 = ADVANCED_FACE ( 'NONE', ( #382 ), #560, .F. ) ;
#1214 = FACE_BOUND ( 'NONE', #266, .T. ) ;
#1215 = LINE ( 'NONE', #570, #800 ) ;
#1216 = ADVANCED_FACE ( 'NONE', ( #662 ), #490, .F. ) ;
#1217 = VERTEX_POINT ( 'NONE', #374 ) ;
#1218 = CYLINDRICAL_SURFACE ( 'NONE', #818, 40.00000000000000000 ) ;
#1219 = DIRECTION ( 'NONE',  ( 0.000000000000000000, -0.7165946098379072371, -0.6974899032611564520 ) ) ;
ENDSEC;
END-ISO-10303-21;
